<?xml version="1.0" standalone="no"?>
<!DOCTYPE svg PUBLIC "-//W3C//DTD SVG 1.1//EN" "http://www.w3.org/Graphics/SVG/1.1/DTD/svg11.dtd" >
<svg xmlns="http://www.w3.org/2000/svg" xmlns:xlink="http://www.w3.org/1999/xlink" version="1.1">
<metadata>
Created by FontForge 20170731 at Mon Apr  8 17:01:24 2019
 By Aleksey,,,
Copyright (c) 2019 by Typedepot. All rights reserved. |DCNT
</metadata>
<defs>
<font id="CorsaGrotesk-Bold" horiz-adv-x="397" >
  <font-face 
    font-family="Corsa Grotesk"
    font-weight="700"
    font-stretch="normal"
    units-per-em="1000"
    panose-1="2 11 8 5 3 2 2 2 2 4"
    ascent="800"
    descent="-200"
    x-height="520"
    cap-height="700"
    bbox="-523 -241 1377 995"
    underline-thickness="87"
    underline-position="-279"
    unicode-range="U+000D-F8FF"
  />
<missing-glyph horiz-adv-x="681" 
d="M583 -121h-485v853h485v-853zM197 658l144 -273l143 273h-287zM170 550v-490l129 245zM383 305l128 -245v490zM341 225l-144 -273h287z" />
    <glyph glyph-name=".notdef" horiz-adv-x="681" 
d="M583 -121h-485v853h485v-853zM197 658l144 -273l143 273h-287zM170 550v-490l129 245zM383 305l128 -245v490zM341 225l-144 -273h287z" />
    <glyph glyph-name=".null" horiz-adv-x="0" 
 />
    <glyph glyph-name="nonmarkingreturn" horiz-adv-x="333" 
 />
    <glyph glyph-name="CR.001" unicode="&#xd;" horiz-adv-x="348" 
 />
    <glyph glyph-name="space" unicode=" " horiz-adv-x="254" 
 />
    <glyph glyph-name="exclam" unicode="!" horiz-adv-x="281" 
d="M193 205h-104l-21 495h145zM194 5q-22 -22 -54 -22t-55 22q-22 22 -22 54t22 54q23 22 55 22t54 -22q23 -22 23 -54t-23 -54z" />
    <glyph glyph-name="quotedbl" unicode="&#x22;" horiz-adv-x="423" 
d="M154 466h-90l-2 234h120zM347 466h-90l-2 234h120z" />
    <glyph glyph-name="numbersign" unicode="#" horiz-adv-x="745" 
d="M725 540v-88h-134l-38 -211h125v-88h-141l-27 -153h-95l27 153h-196l-27 -153h-96l27 153h-110v88h126l37 211h-116v88h132l28 160h95l-28 -160h197l29 160h95l-29 -160h119zM261 241h197l38 211h-198z" />
    <glyph glyph-name="dollar" unicode="$" horiz-adv-x="588" 
d="M550 195q0 -90 -59 -140.5t-161 -59.5v-98h-72v97q-146 11 -242 127l82 81q85 -112 195 -112q56 0 88 25t32 70q0 27 -15 49q-8 13 -40 32q-19 12 -57 21l-33 9l-33 10q-98 28 -145 75t-47 129q0 96 60 144q59 47 155 55v92h72v-93q126 -10 210 -90l-71 -95
q-72 87 -175 87q-53 0 -83.5 -24.5t-30.5 -69.5q0 -46 33 -69t111 -45q39 -11 56 -18q24 -7 51 -19q34 -14 49 -27q75 -53 70 -143z" />
    <glyph glyph-name="percent" unicode="%" horiz-adv-x="774" 
d="M198 -30h-76l451 760h76zM207 411q-73 0 -117.5 41.5t-44.5 107.5q0 69 45.5 111.5t119.5 42.5q73 0 117.5 -42t44.5 -110t-45.5 -109.5t-119.5 -41.5zM209 479q35 0 56.5 22t21.5 61t-21 61t-57 22t-57.5 -22.5t-21.5 -60.5q0 -40 21.5 -61.5t57.5 -21.5zM565 -13
q-72 0 -117 41.5t-45 107.5q0 69 46 111.5t120 42.5q72 0 116.5 -42t44.5 -110t-45 -109.5t-120 -41.5zM567 55q35 0 56.5 22t21.5 61t-21 60.5t-57 21.5t-57.5 -22t-21.5 -60q0 -40 21.5 -61.5t57.5 -21.5z" />
    <glyph glyph-name="ampersand" unicode="&#x26;" horiz-adv-x="672" 
d="M569 128l143 -128h-129l-76 67q-97 -78 -221 -78q-104 0 -171 49t-67 141q0 58 32.5 103.5t97.5 89.5q-67 85 -67 162q0 80 52 128q52 49 136 49q78 0 128 -44t50 -114q0 -75 -55 -125q-42 -38 -105 -71q21 -21 43 -40l135 -122q47 63 85 148l93 -44q-48 -105 -104 -171z
M300 625q-40 0 -64.5 -24.5t-24.5 -66.5q0 -52 48 -114q68 39 95 66.5t27 64.5q0 34 -22.5 54t-58.5 20zM298 80q74 0 136 51l-144 126q-27 24 -56 53q-71 -48 -71 -112q0 -53 37.5 -85.5t97.5 -32.5z" />
    <glyph glyph-name="quotesingle" unicode="'" horiz-adv-x="230" 
d="M156 471h-93l-1 229h119z" />
    <glyph glyph-name="parenleft" unicode="(" horiz-adv-x="339" 
d="M333 -170h-128q-161 193 -161 451t161 451h128q-34 -43 -55 -76q-24 -37 -51 -92q-61 -120 -61 -283q0 -159 61 -283q33 -63 52 -92q20 -31 54 -76z" />
    <glyph glyph-name="parenright" unicode=")" horiz-adv-x="339" 
d="M134 -170h-128q34 45 54 76q22 32 51 92q62 122 62 283q0 163 -61 283q-24 48 -52 92q-27 41 -54 76h128q161 -193 161 -451t-161 -451z" />
    <glyph glyph-name="asterisk" unicode="*" horiz-adv-x="425" 
d="M252 383h-77l15 121l-98 -74l-41 69l112 49l-111 47l40 69l98 -74l-15 121h77l-14 -121l98 74l40 -69l-112 -47l112 -49l-40 -69l-98 74z" />
    <glyph glyph-name="plus" unicode="+" horiz-adv-x="690" 
d="M390 112h-90v185h-181v81h181v185h90v-185h181v-81h-181v-185z" />
    <glyph glyph-name="comma" unicode="," horiz-adv-x="268" 
d="M124 139q42 0 68.5 -30.5t26.5 -81.5q0 -65 -41 -118q-39 -51 -91 -79l-43 32q100 59 102 145q-12 -13 -36 -13q-32 0 -49.5 18.5t-17.5 49.5q0 35 22.5 56t58.5 21z" />
    <glyph glyph-name="hyphen" unicode="-" horiz-adv-x="486" 
d="M423 218h-360v94h360v-94z" />
    <glyph glyph-name="period" unicode="." horiz-adv-x="256" 
d="M128 142q32 0 55.5 -22.5t23.5 -54.5t-23 -54t-56 -22t-56 22t-23 54t23 54.5t56 22.5z" />
    <glyph glyph-name="slash" unicode="/" horiz-adv-x="510" 
d="M114 -170h-105l386 972h106z" />
    <glyph glyph-name="zero" unicode="0" horiz-adv-x="669" 
d="M334 711q135 0 212 -96q77 -97 77 -264q0 -168 -77 -266q-77 -96 -212 -96q-136 0 -212 96q-76 95 -76 265t76 265q77 96 212 96zM183 351q0 -258 151 -258t151 257t-151 257t-151 -256z" />
    <glyph glyph-name="one" unicode="1" horiz-adv-x="552" 
d="M533 -1h-497v98h187v490l-174 -21l-5 105l289 36h22v-610h178v-98z" />
    <glyph glyph-name="two" unicode="2" horiz-adv-x="595" 
d="M361 187l-90 -88l283 5v-104h-514v21l239 249q72 75 98 117q28 43 28 94q0 62 -35 95t-96 33q-75 0 -167 -92l-74 86q100 108 248 108q124 0 192.5 -59t68.5 -167q0 -86 -55 -159q-29 -39 -54 -66q-35 -37 -72 -73z" />
    <glyph glyph-name="three" unicode="3" horiz-adv-x="598" 
d="M542 682l-189 -264q99 -10 154.5 -63t55.5 -138q0 -111 -81 -169q-80 -57 -205 -57q-153 0 -254 102l68 89q83 -89 185 -89q68 0 109.5 33t41.5 93q0 120 -175 120h-65v21l168 236h-294v104h481v-18z" />
    <glyph glyph-name="four" unicode="4" horiz-adv-x="636" 
d="M502 445v-206h112v-95h-112v-144h-127v144h-354l-1 19l234 537h132l-201 -461h190l1 206h126z" />
    <glyph glyph-name="five" unicode="5" horiz-adv-x="609" 
d="M318 439q119 0 186 -56.5t67 -158.5q0 -108 -75 -171t-206 -63q-158 0 -253 91l58 90q95 -84 182 -84q73 0 115.5 33.5t42.5 97.5q0 124 -173 124q-74 0 -165 -18l-13 7v369h450v-102h-338v-169q60 10 122 10z" />
    <glyph glyph-name="six" unicode="6" horiz-adv-x="651" 
d="M378 453q104 0 168 -58q65 -57 65 -164q0 -114 -75 -177t-198 -63q-169 0 -242 130q-52 91 -52 219q0 170 93 276q83 95 230 95q138 0 234 -69l-52 -93q-83 64 -169 64q-109 0 -163 -77q-41 -57 -45 -145q0 -37 1 -47q63 109 205 109zM333 88q65 0 104 37.5t39 100.5
q0 61 -37.5 98t-102.5 37q-68 0 -108 -39.5t-40 -98.5q0 -29 10 -53q15 -39 51 -60.5t84 -21.5z" />
    <glyph glyph-name="seven" unicode="7" horiz-adv-x="563" 
d="M20 596v104h526v-23l-336 -677h-142l302 596h-350z" />
    <glyph glyph-name="eight" unicode="8" horiz-adv-x="642" 
d="M459 371q144 -43 144 -181q0 -98 -75 -149.5t-205 -51.5q-127 0 -206 50q-78 51 -78 152q0 137 144 180q-51 18 -83 58.5t-32 97.5q0 87 68.5 135.5t184.5 48.5t185 -49t69 -135q0 -57 -31.5 -97t-84.5 -59zM199 516q0 -46 32 -74t90 -28t90.5 28t32.5 74q0 49 -33 76
t-90 27t-89.5 -27t-32.5 -76zM321 81q67 0 105 31.5t38 88.5t-38 89t-105 32t-105 -32t-38 -89t38 -88.5t105 -31.5z" />
    <glyph glyph-name="nine" unicode="9" horiz-adv-x="647" 
d="M310 712q144 0 217 -96q74 -95 74 -254q0 -170 -81 -270q-80 -101 -229 -101q-139 0 -242 72l54 93q83 -65 178 -65q90 0 138.5 59.5t53.5 162.5v38q-56 -101 -202 -101q-102 0 -167 57q-64 58 -64 165q0 114 74 177q75 63 196 63zM313 342q66 0 105.5 39.5t39.5 99.5
t-40 97.5t-103 37.5q-64 0 -102 -38t-38 -101q0 -61 37.5 -98t100.5 -37z" />
    <glyph glyph-name="colon" unicode=":" horiz-adv-x="281" 
d="M60 410q0 34 22 55t58 21t58.5 -21t22.5 -55q0 -35 -22 -55t-59 -20t-58.5 20t-21.5 55zM140 -11q-37 0 -58.5 20t-21.5 55q0 34 22.5 54.5t57.5 20.5q36 0 58.5 -21t22.5 -54q0 -36 -22 -55.5t-59 -19.5z" />
    <glyph glyph-name="semicolon" unicode=";" horiz-adv-x="296" 
d="M65 410q0 34 22 55t58 21t58.5 -21t22.5 -55q0 -35 -22 -55t-59 -20t-58.5 20t-21.5 55zM142 139q42 0 68.5 -30.5t26.5 -81.5q0 -65 -41 -118q-40 -52 -90 -79l-44 32q46 27 74 65t29 80q-13 -13 -37 -13q-32 0 -49.5 18.5t-17.5 49.5q0 35 22.5 56t58.5 21z" />
    <glyph glyph-name="less" unicode="&#x3c;" horiz-adv-x="694" 
d="M88 392l486 183v-109l-357 -128l357 -127v-110l-486 183v108z" />
    <glyph glyph-name="equal" unicode="=" horiz-adv-x="691" 
d="M538 383h-385v90h385v-90zM538 202h-385v89h385v-89z" />
    <glyph glyph-name="greater" unicode="&#x3e;" horiz-adv-x="694" 
d="M119 466v109l487 -183v-108l-487 -183v110l358 127z" />
    <glyph glyph-name="question" unicode="?" horiz-adv-x="478" 
d="M258 205h-110q-9 29 -9 62q0 36 12.5 65t32 46.5t41.5 35t41.5 32t32 36t12.5 47.5q0 41 -26.5 63t-67.5 22q-79 0 -134 -90l-82 74q86 113 226 113q91 0 150 -43q61 -43 61 -132q0 -86 -65 -135q-7 -5 -37.5 -27t-42.5 -33t-25.5 -34t-14.5 -48q0 -21 5 -54zM209 -17
q-33 0 -55 22t-22 54t22 54t55 22q32 0 54.5 -22t22.5 -54t-22.5 -54t-54.5 -22z" />
    <glyph glyph-name="at" unicode="@" horiz-adv-x="943" 
d="M568 410l8 61h77l-1 -240q0 -80 66 -80q50 0 74 43t24 115q0 146 -92 233t-246 87q-164 0 -258 -94q-93 -93 -93 -248q0 -151 94 -244q95 -93 264 -93q112 0 214 50l22 -61q-105 -52 -235 -52q-205 0 -323 112t-118 291q0 178 117 291q116 112 311 112q189 0 308 -107
t119 -272q0 -107 -49 -169.5t-137 -62.5q-48 0 -83.5 20t-44.5 58q-37 -76 -145 -76q-87 0 -134.5 52t-47.5 143q0 90 46.5 144t133.5 54q90 0 129 -67zM459 158q52 0 77.5 34t25.5 88q0 59 -26.5 91t-74.5 32q-54 0 -80 -32.5t-26 -87.5q0 -60 27 -92.5t77 -32.5z" />
    <glyph glyph-name="A" unicode="A" horiz-adv-x="780" 
d="M756 0h-142l-63 163h-329l-63 -163h-135l280 704h172zM386 591l-124 -322h249l-124 322h-1z" />
    <glyph glyph-name="B" unicode="B" horiz-adv-x="716" 
d="M529 359q54 -8 97 -51q44 -44 44 -117q0 -91 -65 -141t-166 -50h-354v700h326q112 0 172.5 -47t60.5 -134q0 -115 -115 -160zM396 601h-175v-198h178q48 0 76.5 26.5t28.5 71.5t-30 72.5t-78 27.5zM221 99h193q50 0 82 29t32 76q0 46 -30.5 75.5t-83.5 29.5h-193v-210z
" />
    <glyph glyph-name="C" unicode="C" horiz-adv-x="751" 
d="M438 -8q-175 0 -282 98q-106 99 -106 261q0 161 104 260q105 99 280 99q96 0 165.5 -30.5t130.5 -95.5l-96 -83q-78 95 -198 95q-112 0 -180 -68t-68 -177q0 -110 68 -178q68 -67 178 -67q122 0 207 102l91 -85q-120 -131 -294 -131z" />
    <glyph glyph-name="D" unicode="D" horiz-adv-x="760" 
d="M379 0h-294v700h294q146 0 238 -98q91 -97 93 -251q0 -153 -92 -253q-92 -98 -239 -98zM220 595v-490h127q107 0 164 66t57 182q0 113 -58.5 177.5t-162.5 64.5h-127z" />
    <glyph glyph-name="E" unicode="E" horiz-adv-x="650" 
d="M603 0h-518v700h509v-105h-374v-200h323v-105h-323v-185h383v-105z" />
    <glyph glyph-name="F" unicode="F" horiz-adv-x="614" 
d="M220 0h-135v700h498v-105h-363v-210h312v-106h-312v-279z" />
    <glyph glyph-name="G" unicode="G" horiz-adv-x="800" 
d="M430 285v88h312v-260q-60 -59 -140.5 -91.5t-166.5 -32.5q-169 0 -276 94q-108 95 -108 266q0 167 108 264q110 98 286 98q172 0 285 -104l-79 -93q-74 83 -205 83q-119 0 -186 -66.5t-67 -178.5q0 -114 66 -182q67 -67 174 -67q108 0 180 60v122h-183z" />
    <glyph glyph-name="H" unicode="H" horiz-adv-x="778" 
d="M221 0h-136v700h136v-297h336v297h136v-700h-136v288h-336v-288z" />
    <glyph glyph-name="I" unicode="I" horiz-adv-x="306" 
d="M221 0h-136v700h136v-700z" />
    <glyph glyph-name="J" unicode="J" horiz-adv-x="419" 
d="M121 -11q-58 0 -96 13v113q44 -14 91 -14q43 0 67.5 24t24.5 71v504h135v-504q0 -102 -59 -154.5t-163 -52.5z" />
    <glyph glyph-name="K" unicode="K" horiz-adv-x="679" 
d="M664 700l-250 -346l257 -354h-156l-204 287h-97v-287h-129v700h129v-297l95 1l213 296h142z" />
    <glyph glyph-name="L" unicode="L" horiz-adv-x="584" 
d="M566 0h-481v700h135v-593h346v-107z" />
    <glyph glyph-name="M" unicode="M" horiz-adv-x="963" 
d="M216 0h-131v700h142l257 -364l252 364h142v-700h-138v329l10 182h-2l-257 -368h-26l-257 367h-1l9 -181v-329z" />
    <glyph glyph-name="N" unicode="N" horiz-adv-x="778" 
d="M565 415v285h128v-700h-110l-379 507l1 -2q8 -134 8 -184v-321h-128v700h110l376 -495q-6 67 -6 210z" />
    <glyph glyph-name="O" unicode="O" horiz-adv-x="860" 
d="M51 349q0 159 104 260q103 102 275 102t275 -102q104 -101 104 -260q0 -158 -104 -259t-275 -101q-172 0 -276 101q-103 100 -103 259zM430 106q106 0 174 66q67 67 67 177t-67 177q-68 68 -174 68q-105 0 -173 -68q-67 -67 -67 -177t67 -177q67 -66 173 -66z" />
    <glyph glyph-name="P" unicode="P" horiz-adv-x="706" 
d="M220 0h-135v700h318q126 0 195 -71t69 -168q0 -99 -69 -169t-194 -70h-184v-222zM220 595v-268h161q67 0 105.5 38t38.5 96q0 59 -38 96.5t-106 37.5h-161z" />
    <glyph glyph-name="Q" unicode="Q" horiz-adv-x="861" 
d="M811 349q0 -179 -126 -280l82 -125l-81 -52l-85 129q-76 -32 -171 -32q-173 0 -276 100t-103 260q0 161 103 261q104 101 276 101q173 0 277 -101t104 -261zM430 106q58 0 103 19l-97 147l81 52l94 -143q57 65 57 168q0 110 -64 177q-65 68 -174 68q-108 0 -173 -68
q-64 -67 -64 -177q0 -109 64 -176t173 -67z" />
    <glyph glyph-name="R" unicode="R" horiz-adv-x="714" 
d="M667 461q0 -74 -40.5 -134t-113.5 -87l143 -240h-150l-124 222h-162v-222h-135v700h318q123 0 194 -71q70 -70 70 -168zM381 595h-161v-268h161q65 0 104.5 38t39.5 96t-39 96t-105 38z" />
    <glyph glyph-name="S" unicode="S" horiz-adv-x="630" 
d="M321 -7q-172 0 -285 122l78 87q96 -106 206 -106q56 0 88 24.5t32 68.5q0 25 -16 49q-12 19 -42 31q-16 10 -58 20l-33 9l-31 8q-196 52 -196 207q0 103 72 150q73 47 186 47q141 0 250 -85l-64 -91q-97 76 -184 76q-54 0 -85.5 -22.5t-31.5 -66.5q0 -47 33 -69
q35 -22 112 -44l52 -16q63 -20 91 -40q48 -27 66 -60q24 -44 24 -96q0 -104 -74 -154q-73 -49 -190 -49z" />
    <glyph glyph-name="T" unicode="T" horiz-adv-x="639" 
d="M387 0h-135v595h-229v105h593v-105h-229v-595z" />
    <glyph glyph-name="U" unicode="U" horiz-adv-x="740" 
d="M370 -11q-137 0 -216 76q-78 77 -78 208v427h135v-422q0 -85 44 -133t116 -48q71 0 114.5 48t43.5 133v422h135v-427q0 -134 -81 -209q-79 -75 -213 -75z" />
    <glyph glyph-name="V" unicode="V" horiz-adv-x="704" 
d="M358 146l197 554h136l-261 -700h-156l-260 700h144z" />
    <glyph glyph-name="W" unicode="W" horiz-adv-x="1044" 
d="M391 0h-182l-194 700h138l155 -562h4l139 562h151l145 -562h5l153 562h124l-194 -700h-182l-131 509h-4z" />
    <glyph glyph-name="X" unicode="X" horiz-adv-x="677" 
d="M421 363l260 -363h-161l-181 259l-178 -259h-151l248 339l-252 361h156l178 -258l180 258h145z" />
    <glyph glyph-name="Y" unicode="Y" horiz-adv-x="695" 
d="M542 700h136l-262 -436l-2 -264h-135l1 262l-263 438h141l191 -326z" />
    <glyph glyph-name="Z" unicode="Z" horiz-adv-x="627" 
d="M50 700h535v-87l-387 -511l189 3h198v-105h-552v88l386 510l-192 -3h-177v105z" />
    <glyph glyph-name="bracketleft" unicode="[" horiz-adv-x="337" 
d="M307 -170h-229v902h229v-84h-110v-734h110v-84z" />
    <glyph glyph-name="backslash" unicode="\" horiz-adv-x="532" 
d="M512 -170h-104l-388 972h105z" />
    <glyph glyph-name="bracketright" unicode="]" horiz-adv-x="337" 
d="M259 -170h-229v84h110v734h-110v84h229v-902z" />
    <glyph glyph-name="asciicircum" unicode="^" horiz-adv-x="686" 
d="M400 700l182 -331h-99l-140 274l-140 -274h-99l182 331h114z" />
    <glyph glyph-name="underscore" unicode="_" horiz-adv-x="479" 
d="M482 -146h-485v89h485v-89z" />
    <glyph glyph-name="grave" unicode="`" horiz-adv-x="360" 
d="M298 597h-93l-95 168h118z" />
    <glyph glyph-name="a" unicode="a" horiz-adv-x="654" 
d="M476 437l6 83h117v-520h-116l-9 89q-56 -98 -190 -98q-116 0 -185 74q-68 74 -68 191q0 119 72 196t190 77q130 0 183 -92zM319 96q65 0 110 45q46 45 46 118q0 75 -45 120t-111 45q-69 0 -112.5 -44.5t-43.5 -120.5q0 -74 43.5 -118.5t112.5 -44.5z" />
    <glyph glyph-name="b" unicode="b" horiz-adv-x="666" 
d="M385 529q114 0 182 -77t68 -192q0 -118 -71 -194q-70 -75 -186 -75q-132 0 -185 96l-9 -87h-116v772h127v-332q27 42 78 65.5t112 23.5zM348 95q65 0 111 44q45 45 45 120q0 76 -44 121t-112 45q-66 0 -111 -46q-45 -45 -45 -120q0 -73 44 -119q45 -45 112 -45z" />
    <glyph glyph-name="c" unicode="c" horiz-adv-x="572" 
d="M325 -9q-134 0 -214 73q-80 74 -80 196t79 195q80 74 212 74q137 0 227 -90l-71 -83q-64 70 -149 70q-75 0 -120.5 -45.5t-45.5 -120.5t46 -120.5t121 -45.5q86 0 147 72l74 -83q-50 -49 -103 -70.5t-123 -21.5z" />
    <glyph glyph-name="d" unicode="d" horiz-adv-x="667" 
d="M472 445v327h127v-772h-116l-9 89q-56 -98 -189 -98q-120 0 -187 76t-67 192q0 118 69 194q70 76 192 76q124 0 180 -84zM320 96q66 0 110 45q45 47 45 119q0 71 -44 118q-43 46 -111 46q-70 0 -113.5 -45t-43.5 -119t43.5 -119t113.5 -45z" />
    <glyph glyph-name="e" unicode="e" horiz-adv-x="600" 
d="M566 290q0 -33 -5 -65h-397q6 -71 50.5 -106t115.5 -35q98 0 169 69l55 -84q-94 -78 -226 -78q-140 0 -218.5 72.5t-78.5 196.5q0 121 73 194q73 75 206 75q119 0 187.5 -63.5t68.5 -175.5zM309 440q-60 0 -98.5 -34.5t-46.5 -98.5h270q1 3 1 15q0 52 -34.5 85t-91.5 33z
" />
    <glyph glyph-name="f" unicode="f" horiz-adv-x="406" 
d="M240 0h-126v423h-104v97h104v86q0 178 187 178q48 0 106 -11l-8 -99q-39 13 -71 13q-88 0 -88 -96v-71h156v-97h-156v-423z" />
    <glyph glyph-name="g" unicode="g" horiz-adv-x="663" 
d="M481 443l10 77h107v-422q0 -76 -24.5 -131.5t-69 -86.5t-99 -45.5t-121.5 -14.5q-142 0 -236 74l45 89q39 -33 90.5 -52t99.5 -19q87 0 136 38t49 113v50q-21 -45 -71 -70t-112 -25q-49 0 -91.5 12.5t-80.5 40t-60 78.5t-22 121q0 69 21.5 120.5t59 81t81 43.5t92.5 14
q67 0 119 -23.5t77 -62.5zM318 118q71 0 113 42t42 113q0 70 -42 112t-114 42t-114.5 -42t-42.5 -112q0 -71 42.5 -113t115.5 -42z" />
    <glyph glyph-name="h" unicode="h" horiz-adv-x="613" 
d="M357 529q97 0 146.5 -50t49.5 -141v-338h-126v303q0 121 -109 121q-66 0 -95 -42q-28 -40 -28 -97v-285h-127v772h127v-310q58 67 162 67z" />
    <glyph glyph-name="i" unicode="i" horiz-adv-x="263" 
d="M132 608q-34 0 -58.5 24t-24.5 59t24.5 59t59.5 24t59 -24t24 -59t-24.5 -59t-59.5 -24zM195 0h-127v520h127v-520z" />
    <glyph glyph-name="j" unicode="j" horiz-adv-x="312" 
d="M182 774q34 0 58.5 -24t24.5 -59t-24.5 -59t-59.5 -24t-59 24t-24 59t24.5 59t59.5 24zM79 -180q-66 0 -103 21l16 95h2q2 -1 6 -2.5t7 -2.5q26 -11 45 -11q66 0 66 69v531h126v-537q0 -83 -44 -123t-121 -40z" />
    <glyph glyph-name="k" unicode="k" horiz-adv-x="570" 
d="M360 264l199 -264h-144l-146 209h-74v-209h-127v772h127v-460h70l149 208h138z" />
    <glyph glyph-name="l" unicode="l" horiz-adv-x="263" 
d="M195 0h-127v772h127v-772z" />
    <glyph glyph-name="m" unicode="m" horiz-adv-x="904" 
d="M653 529q90 0 140.5 -50t50.5 -152v-327h-127v319q0 105 -94 105q-50 0 -76.5 -32t-26.5 -85v-307h-127v323q0 46 -25 73.5t-69 27.5q-50 0 -77 -32t-27 -85v-307h-127v520h110l4 -66q50 75 150 75q110 0 153 -90q47 90 168 90z" />
    <glyph glyph-name="n" unicode="n" horiz-adv-x="613" 
d="M356 529q98 0 147.5 -49.5t49.5 -141.5v-338h-126v303q0 121 -109 121q-66 0 -95 -42q-28 -40 -28 -97v-285h-127v520h112l5 -74q56 83 171 83z" />
    <glyph glyph-name="o" unicode="o" horiz-adv-x="635" 
d="M31 259q0 123 79 196q80 74 208 74q127 0 207 -74q79 -73 79 -196q0 -122 -79 -195t-207 -73q-129 0 -208 73t-79 195zM161 259q0 -74 43.5 -118.5t113.5 -44.5t114 44.5t44 118.5t-44 119.5t-114 45.5t-113.5 -45t-43.5 -120z" />
    <glyph glyph-name="p" unicode="p" horiz-adv-x="668" 
d="M374 529q122 0 193 -77q70 -76 70 -192q0 -115 -71 -192t-195 -77q-119 0 -176 70v-231h-127v690h109l11 -79q29 42 78.5 65t107.5 23zM349 96q70 0 113.5 45t43.5 119t-44 119t-113 45q-66 0 -112 -46q-45 -45 -45 -118q0 -72 45 -118t112 -46z" />
    <glyph glyph-name="q" unicode="q" horiz-adv-x="677" 
d="M480 447l11 73h109v-690h-127v241q-53 -80 -178 -80t-195 76q-69 77 -69 192t71 192q70 78 193 78q129 0 185 -82zM320 95q66 0 111 45q45 46 45 119t-45 119q-45 47 -111 47q-68 0 -113 -45q-44 -46 -44 -121q0 -74 43.5 -119t113.5 -45z" />
    <glyph glyph-name="r" unicode="r" horiz-adv-x="396" 
d="M330 528q22 0 48 -8l-2 -105q-24 6 -49 6q-63 0 -97.5 -52.5t-34.5 -141.5v-227h-127v520h105l11 -118q18 56 56.5 91t89.5 35z" />
    <glyph glyph-name="s" unicode="s" horiz-adv-x="526" 
d="M271 -9q-160 0 -243 113l87 69q14 -21 32 -43q16 -18 49.5 -32.5t72.5 -14.5q87 0 87 61q0 31 -29 43q-15 7 -29 10q-18 5 -84 21q-74 21 -114.5 62t-40.5 99q0 80 58 114q59 36 147 36q64 0 123.5 -22t95.5 -61l-70 -77q-63 69 -140 69q-82 0 -82 -55q0 -29 21 -43
t78 -30q2 0 5 -1t4 -1q95 -27 128 -48q61 -39 61 -111q0 -79 -63 -119q-61 -39 -154 -39z" />
    <glyph glyph-name="t" unicode="t" horiz-adv-x="460" 
d="M298 -9q-81 0 -125 46t-44 132v254h-119v97h48q44 0 63 22t19 66v79h115v-167h174v-97h-174v-242q0 -88 74 -88q45 0 98 9l3 -101q-46 -10 -132 -10z" />
    <glyph glyph-name="u" unicode="u" horiz-adv-x="584" 
d="M293 -9q-116 0 -177 60t-61 169v300h127v-309q0 -56 29.5 -89t81.5 -33t81 32.5t29 89.5v309h126v-300q0 -109 -60.5 -169t-175.5 -60z" />
    <glyph glyph-name="v" unicode="v" horiz-adv-x="556" 
d="M352 -8h-148l-191 528h137l58 -167q26 -79 74 -250h3q47 164 78 250l59 167h121z" />
    <glyph glyph-name="w" unicode="w" horiz-adv-x="837" 
d="M649 288l62 232h116l-146 -525h-159l-52 190l-44 177l-47 -177l-54 -190h-161l-142 525h122l61 -234l44 -175l47 177l62 236h141l60 -234l44 -183z" />
    <glyph glyph-name="x" unicode="x" horiz-adv-x="549" 
d="M352 272l186 -272h-138l-127 188l-132 -188h-128l185 257l-183 263h140l122 -175l128 175h126z" />
    <glyph glyph-name="y" unicode="y" horiz-adv-x="571" 
d="M359 314l76 206h124l-270 -690h-127l65 162l-215 528h135l80 -206q37 -93 67 -184h3z" />
    <glyph glyph-name="z" unicode="z" horiz-adv-x="522" 
d="M189 97h300v-97h-457v81l294 343l-288 -1v97h446v-81z" />
    <glyph glyph-name="braceleft" unicode="{" horiz-adv-x="369" 
d="M225 582v-190q0 -94 -80 -111q80 -17 80 -111v-190q0 -34 14.5 -50t48.5 -16h52v-84h-81q-87 0 -119 41q-30 41 -30 115v191q0 65 -57 65h-21v78h21q57 0 57 65v191q0 74 30 115q32 41 119 41h81v-84h-52q-34 0 -48.5 -16t-14.5 -50z" />
    <glyph glyph-name="bar" unicode="|" horiz-adv-x="259" 
d="M181 -164h-103v948h103v-948z" />
    <glyph glyph-name="braceright" unicode="}" horiz-adv-x="370" 
d="M317 320h21v-78h-21q-57 0 -57 -65v-191q0 -74 -31 -114q-31 -42 -119 -42h-81v84h53q34 0 48.5 16t14.5 50v190q0 94 80 111q-80 17 -80 111v190q0 34 -14.5 50t-48.5 16h-53v84h81q88 0 119 -42q31 -40 31 -114v-191q0 -65 57 -65z" />
    <glyph glyph-name="asciitilde" unicode="~" horiz-adv-x="588" 
d="M383 274q-33 0 -99 25t-91 25q-39 0 -53 -41l-45 20q10 48 40.5 75t70.5 27q34 0 97 -25q66 -24 92 -24q40 0 54 41l44 -21q-9 -47 -39.5 -74.5t-70.5 -27.5z" />
    <glyph glyph-name="exclamdown" unicode="&#xa1;" horiz-adv-x="269" 
d="M79 513q23 23 55 23t54 -23q23 -22 23 -54t-23 -54q-22 -22 -54 -22t-55 22q-22 22 -22 54t22 54zM81 313h104l21 -495h-145z" />
    <glyph glyph-name="cent" unicode="&#xa2;" horiz-adv-x="631" 
d="M507 242l74 -79q-89 -85 -203 -91l1 -81h-71l1 82q-114 13 -181 84.5t-67 182.5q0 112 66 182q68 72 182 84l-1 84h71l-1 -83q118 -7 201 -89l-73 -85q-63 72 -150 72q-74 0 -118.5 -45.5t-44.5 -119.5q0 -75 46 -121t119 -46q88 0 149 69z" />
    <glyph glyph-name="sterling" unicode="&#xa3;" horiz-adv-x="602" 
d="M297 245q0 -104 -87 -146h344v-99h-503v92q115 31 115 137q0 27 -9 63h-116v83h88q-22 63 -22 114q0 98 68 160t179 62q130 0 225 -107l-79 -77q-64 84 -135 84q-60 0 -93.5 -33.5t-33.5 -90.5q0 -43 27 -112h228v-83h-201q5 -28 5 -47z" />
    <glyph glyph-name="currency" unicode="&#xa4;" horiz-adv-x="741" 
d="M592 207l102 -104l-51 -50l-98 101q-69 -54 -175 -54t-175 54l-97 -101l-51 50l100 103q-38 62 -38 143q0 82 38 143l-100 104l51 49l97 -101q69 54 175 54t175 -54l98 101l51 -49l-101 -105q37 -58 37 -142q0 -83 -38 -142zM253 231q46 -43 117 -43q72 0 116 43
q46 43 46 118q0 74 -46 117q-46 44 -116 44t-117 -44q-45 -44 -45 -117q0 -75 45 -118z" />
    <glyph glyph-name="yen" unicode="&#xa5;" horiz-adv-x="673" 
d="M522 700h135l-232 -397h152v-61h-172v-68h172v-59h-173v-115h-136v115h-172v59h173v68h-173v61h152l-232 397h141l181 -316z" />
    <glyph glyph-name="section" unicode="&#xa7;" horiz-adv-x="608" 
d="M464 130q79 -46 79 -132q0 -81 -65 -125q-64 -45 -168 -45q-139 0 -251 86l59 88q95 -80 178 -80q102 0 102 70q0 36 -33 56t-126 48q-69 20 -125 52q-67 41 -67 117q0 88 97 134q-79 46 -79 132q0 82 64 125q65 45 169 45q139 0 251 -86l-59 -88q-51 42 -91 61t-87 19
q-102 0 -102 -70q0 -37 33 -56t126 -48q73 -21 125 -53q67 -38 67 -116q0 -88 -97 -134zM162 291q0 -35 29 -55.5t98 -42.5q72 -20 107 -32q50 32 50 77q0 35 -29 55.5t-98 42.5q-72 20 -107 32q-50 -32 -50 -77z" />
    <glyph glyph-name="dieresis" unicode="&#xa8;" horiz-adv-x="543" 
d="M158 605q-32 0 -53.5 20.5t-21.5 51.5q0 32 21.5 53t53.5 21q31 0 53 -21t22 -53q0 -30 -22 -51t-53 -21zM310 677q0 32 22 53t54 21q31 0 52.5 -21t21.5 -53q0 -31 -21.5 -51.5t-53.5 -20.5t-53.5 20.5t-21.5 51.5z" />
    <glyph glyph-name="copyright" unicode="&#xa9;" horiz-adv-x="859" 
d="M432 -11q-165 0 -274 100q-110 101 -110 261t109 260q110 101 275 101q164 0 271 -101q108 -101 108 -260q0 -160 -108 -261q-107 -100 -271 -100zM432 36q140 0 230 84q91 85 91 229t-91 229q-92 86 -230 86q-141 0 -233 -86t-92 -229q0 -144 91 -229q92 -84 234 -84z
M448 157q-95 0 -154 53q-58 52 -58 141q0 88 57 140q57 54 150 54q97 0 164 -61l-54 -64q-35 48 -100 48q-54 0 -86.5 -32t-32.5 -84q0 -54 33 -86.5t87 -32.5q60 0 100 46l54 -59q-69 -63 -160 -63z" />
    <glyph glyph-name="ordfeminine" unicode="&#xaa;" horiz-adv-x="501" 
d="M362 641l4 58h82v-361h-81l-7 62q-38 -68 -131 -68q-80 0 -128 51t-48 135q0 81 50 134t132 53q90 0 127 -64zM254 406q46 0 76.5 31t30.5 81q0 51 -31 82.5t-76 31.5q-49 0 -79 -30.5t-30 -83.5q0 -52 30 -82t79 -30zM448 190h-395v77h395v-77z" />
    <glyph glyph-name="guillemotleft" unicode="&#xab;" horiz-adv-x="535" 
d="M38 260l122 174h105l-117 -174l117 -174h-105zM391 434h105l-117 -174l117 -174h-105l-121 174z" />
    <glyph glyph-name="registered" unicode="&#xae;" horiz-adv-x="832" 
d="M419 711q161 0 268 -101t107 -260q0 -160 -107 -261q-106 -100 -268 -100t-271 100q-108 101 -108 261t108 260q109 101 271 101zM419 35q139 0 227 85q89 86 89 229q0 144 -90 230q-89 86 -226 86t-229 -86q-91 -85 -91 -230q0 -143 90 -229q91 -85 230 -85zM575 415
q0 -91 -84 -113l80 -132h-89l-68 125h-53v-125h-83v366h160q60 0 98.5 -34.5t38.5 -86.5zM361 362h72q27 0 44.5 15t17.5 39t-17.5 39t-44.5 15h-72v-108z" />
    <glyph glyph-name="overscore" unicode="&#xaf;" horiz-adv-x="497" 
d="M407 617h-317v73h317v-73z" />
    <glyph glyph-name="degree" unicode="&#xb0;" horiz-adv-x="403" 
d="M41 560q0 68 45.5 109t115.5 41t115 -40.5t45 -109.5q0 -70 -44.5 -110.5t-115.5 -40.5t-116 40.5t-45 110.5zM289 560q0 39 -24.5 63t-63.5 24t-63 -23.5t-24 -63.5t24 -64t63 -24t63.5 24t24.5 64z" />
    <glyph glyph-name="plusminus" unicode="&#xb1;" horiz-adv-x="693" 
d="M391 169h-90v148h-167v89h167v148h90v-148h167v-89h-167v-148zM558 36h-424v90h424v-90z" />
    <glyph glyph-name="uni00B2" unicode="&#xb2;" 
d="M242 380l-35 -35l161 3v-78h-335v15l150 153q43 44 59 69t16 54q0 33 -20.5 51.5t-56.5 18.5q-49 0 -105 -56l-50 61q69 72 169 72q77 0 120 -38t43 -106q0 -36 -19 -70q-20 -36 -36 -53q-3 -3 -13 -13.5t-22.5 -22.5t-25.5 -25z" />
    <glyph glyph-name="uni00B3" unicode="&#xb3;" 
d="M355 688l-113 -162q126 -15 126 -123q0 -68 -52 -105t-131 -37q-106 0 -168 62l48 64q67 -55 118 -55q37 0 60.5 19t23.5 52q0 26 -20 43q-27 25 -84 25h-41v16l98 141h-175v73h310v-13z" />
    <glyph glyph-name="acute" unicode="&#xb4;" horiz-adv-x="356" 
d="M194 597h-94l78 168h118z" />
    <glyph glyph-name="paragraph" unicode="&#xb6;" horiz-adv-x="677" 
d="M29 473q0 59 21 104.5t56 71t73.5 38.5t78.5 13h78v-452h-98q-69 0 -136 50q-33 27 -53 73t-20 102zM427 700h228v-100h-118v-770h-110v870z" />
    <glyph glyph-name="middot" unicode="&#xb7;" horiz-adv-x="269" 
d="M134 226q-36 0 -57.5 21t-21.5 55q0 33 21.5 54t57.5 21q38 0 60 -20.5t22 -54.5t-22 -55t-60 -21z" />
    <glyph glyph-name="cedilla" unicode="&#xb8;" horiz-adv-x="353" 
d="M205 19l-19 -67q120 4 120 -90q0 -45 -38.5 -68t-99.5 -23q-64 0 -103 12l5 59q39 -15 83 -15q71 0 71 42q0 30 -26 40.5t-84 9.5l29 100h62z" />
    <glyph glyph-name="uni00B9" unicode="&#xb9;" 
d="M346 269h-276v70h99v294l-100 -12l-2 69l175 19h15v-370h89v-70z" />
    <glyph glyph-name="ordmasculine" unicode="&#xba;" horiz-adv-x="492" 
d="M46 520q0 88 56 139q56 52 144 52q86 0 142 -51q57 -51 57 -140q0 -87 -58 -136q-56 -49 -141 -49q-84 0 -142 49t-58 136zM168 441q32 -30 78 -30q47 0 77 30t30 83q0 54 -31 82q-32 29 -76 29q-45 0 -77 -29q-31 -28 -31 -82q0 -53 30 -83zM422 189h-352v77h352v-77z
" />
    <glyph glyph-name="guillemotright" unicode="&#xbb;" horiz-adv-x="535" 
d="M156 260l-118 174h106l121 -174l-121 -174h-106zM270 434h105l121 -174l-121 -174h-105l117 174z" />
    <glyph glyph-name="onequarter" unicode="&#xbc;" horiz-adv-x="929" 
d="M70 269v70h99v294l-100 -12l-2 68l175 19h15v-369h89v-70h-276zM251 0l410 700h89l-410 -700h-89zM848 271v-117h68v-69h-68v-85h-84v85h-220l-1 13l170 334h90l-142 -278h103v90l13 27h71z" />
    <glyph glyph-name="onehalf" unicode="&#xbd;" horiz-adv-x="999" 
d="M70 269v70h99v294l-100 -12l-2 68l175 19h15v-369h89v-70h-276zM251 0l410 700h89l-410 -700h-89zM845 110l-35 -35l161 3v-78h-335v15l149 153q44 44 60 68.5t16 53.5q0 33 -21 52t-56 19q-22 0 -45 -12q-18 -9 -33 -19l-28 -26l-49 62q67 72 168 72q78 0 121 -38.5
t43 -105.5q0 -33 -16 -64q-17 -32 -33 -51q-11 -13 -54 -56z" />
    <glyph glyph-name="threequarters" unicode="&#xbe;" horiz-adv-x="923" 
d="M368 403q0 -67 -51 -104.5t-132 -37.5q-108 0 -168 62l48 63q67 -55 118 -55q37 0 60.5 19t23.5 52q0 68 -104 68h-41v17l99 141h-176v72h310v-12l-112 -162q125 -15 125 -123zM244 0l410 700h89l-410 -700h-89zM842 271v-117h68v-69h-68v-85h-85v85h-220v13l170 334h90
l-143 -278h103v90l13 27h72z" />
    <glyph glyph-name="questiondown" unicode="&#xbf;" horiz-adv-x="473" 
d="M267 537q32 0 54.5 -22t22.5 -54t-22.5 -54t-54.5 -22q-33 0 -55 22t-22 54t22 54t55 22zM217 315h111q8 -27 8 -62q0 -42 -17.5 -74.5t-43 -52.5t-51 -38t-43 -42.5t-17.5 -54.5q0 -41 26.5 -63t67.5 -22q76 0 135 90l81 -74q-86 -113 -226 -113q-90 0 -151 43
q-60 44 -60 132q0 86 65 135q7 5 31.5 22t34.5 25t25 24t21.5 33t7.5 38q1 27 -5 54z" />
    <glyph glyph-name="Agrave" unicode="&#xc0;" horiz-adv-x="780" 
d="M377 899l69 -130h-93l-91 130h115zM756 0h-142l-63 163h-329l-63 -163h-135l280 704h172zM386 591l-124 -322h249l-124 322h-1z" />
    <glyph glyph-name="Aacute" unicode="&#xc1;" horiz-adv-x="780" 
d="M420 899h118l-99 -130h-93zM756 0h-142l-63 163h-329l-63 -163h-135l280 704h172zM386 591l-124 -322h249l-124 322h-1z" />
    <glyph glyph-name="Acircumflex" unicode="&#xc2;" horiz-adv-x="780" 
d="M466 773l-77 74l-81 -74h-104l158 137h50l158 -137h-104zM756 0h-142l-63 163h-329l-63 -163h-135l280 704h172zM386 591l-124 -322h249l-124 322h-1z" />
    <glyph glyph-name="Atilde" unicode="&#xc3;" horiz-adv-x="780" 
d="M308 838q-45 0 -50 -41l-45 2q5 61 33 91t73 30q37 0 81 -24q2 -1 8.5 -4.5t15 -7.5t10.5 -5q20 -9 39 -9q21 0 34.5 11.5t15.5 29.5l45 -2q-8 -120 -107 -120q-31 0 -80 23q-2 0 -17 8t-19 9q-18 9 -37 9zM756 0h-142l-63 163h-329l-63 -163h-135l280 704h172zM386 591
l-124 -322h249l-124 322h-1z" />
    <glyph glyph-name="Adieresis" unicode="&#xc4;" horiz-adv-x="780" 
d="M202 858q0 32 21.5 52.5t53.5 20.5q31 0 52.5 -20.5t21.5 -52.5q0 -31 -21.5 -52t-53.5 -21t-53 21t-21 52zM429 858q0 32 21.5 52.5t53.5 20.5t53 -20.5t21 -52.5q0 -31 -21 -52t-53 -21t-53.5 21t-21.5 52zM756 0h-142l-63 163h-329l-63 -163h-135l280 704h172z
M386 591l-124 -322h249l-124 322h-1z" />
    <glyph glyph-name="Aring" unicode="&#xc5;" horiz-adv-x="780" 
d="M388 773q-53 0 -88 30.5t-35 80.5q0 51 35 81t88 30t88 -30t35 -81t-35 -81t-88 -30zM430 928q-16 16 -42 16t-42 -16t-16 -44t16 -44q16 -15 42 -15t42 15q17 16 17 44t-17 44zM756 0h-142l-63 163h-329l-63 -163h-135l280 704h172zM386 591l-124 -322h249l-124 322h-1z
" />
    <glyph glyph-name="AE" unicode="&#xc6;" horiz-adv-x="1003" 
d="M592 291v-190h364v-101h-493v179h-241l-100 -179h-134l389 700h569v-101h-354v-207h303v-101h-303zM278 281h185v318h-8z" />
    <glyph glyph-name="Ccedilla" unicode="&#xc7;" horiz-adv-x="751" 
d="M438 -8h-9l-11 -40q120 4 120 -90q0 -45 -38.5 -68t-99.5 -23q-64 0 -103 12l5 59q39 -15 83 -15q71 0 71 42q0 30 -26 40.5t-84 9.5l22 77q-146 20 -232 115t-86 240q0 161 104 260q105 99 280 99q96 0 165.5 -30.5t130.5 -95.5l-96 -83q-78 95 -198 95q-112 0 -180 -68
t-68 -177q0 -110 68 -178q68 -67 178 -67q122 0 207 102l91 -85q-120 -131 -294 -131z" />
    <glyph glyph-name="Egrave" unicode="&#xc8;" horiz-adv-x="650" 
d="M393 769h-93l-91 130h115zM603 0h-518v700h509v-105h-374v-200h323v-105h-323v-185h383v-105z" />
    <glyph glyph-name="Eacute" unicode="&#xc9;" horiz-adv-x="650" 
d="M386 769h-93l74 130h118zM603 0h-518v700h509v-105h-374v-200h323v-105h-323v-185h383v-105z" />
    <glyph glyph-name="Ecircumflex" unicode="&#xca;" horiz-adv-x="650" 
d="M413 773l-77 74l-81 -74h-104l158 137h50l158 -137h-104zM220 290v-185h383v-105h-518v700h509v-105h-374v-200h323v-105h-323z" />
    <glyph glyph-name="Edieresis" unicode="&#xcb;" horiz-adv-x="650" 
d="M149 858q0 32 21.5 52.5t53.5 20.5q31 0 52.5 -20.5t21.5 -52.5q0 -31 -21.5 -52t-53.5 -21t-53 21t-21 52zM376 858q0 32 21.5 52.5t53.5 20.5t53 -20.5t21 -52.5q0 -31 -21 -52t-53 -21t-53.5 21t-21.5 52zM603 0h-518v700h509v-105h-374v-200h323v-105h-323v-185h383
v-105z" />
    <glyph glyph-name="Igrave" unicode="&#xcc;" horiz-adv-x="306" 
d="M211 769h-93l-91 130h115zM221 0h-136v700h136v-700z" />
    <glyph glyph-name="Iacute" unicode="&#xcd;" horiz-adv-x="306" 
d="M203 769h-93l74 130h118zM221 0h-136v700h136v-700z" />
    <glyph glyph-name="Icircumflex" unicode="&#xce;" horiz-adv-x="306" 
d="M127 910h50l158 -137h-104l-77 74l-81 -74h-104zM221 0h-136v700h136v-700z" />
    <glyph glyph-name="Idieresis" unicode="&#xcf;" horiz-adv-x="306" 
d="M-33 858q0 32 21.5 52.5t53.5 20.5q31 0 52.5 -20.5t21.5 -52.5q0 -31 -21.5 -52t-53.5 -21t-53 21t-21 52zM194 858q0 32 21.5 52.5t53.5 20.5t53 -20.5t21 -52.5q0 -31 -21 -52t-53 -21t-53.5 21t-21.5 52zM221 0h-136v700h136v-700z" />
    <glyph glyph-name="Eth" unicode="&#xd0;" horiz-adv-x="761" 
d="M710 351q1 -153 -91 -253q-92 -98 -239 -98h-295v311h-75v71h75v318h295q146 0 238 -98t92 -251zM221 105h126q108 0 164.5 65.5t56.5 182.5q0 114 -57.5 178t-162.5 64h-127v-213h155v-71h-155v-206z" />
    <glyph glyph-name="Ntilde" unicode="&#xd1;" horiz-adv-x="778" 
d="M318 838q-45 0 -50 -41l-45 2q5 61 33 91t73 30q37 0 81 -24q2 -1 8.5 -4.5t15 -7.5t10.5 -5q20 -9 39 -9q21 0 34.5 11.5t15.5 29.5l45 -2q-8 -120 -107 -120q-31 0 -80 23q-2 0 -17 8t-19 9q-18 9 -37 9zM565 415v285h128v-700h-110l-379 507l1 -2q8 -134 8 -184v-321
h-128v700h110l376 -495q-6 67 -6 210z" />
    <glyph glyph-name="Ograve" unicode="&#xd2;" horiz-adv-x="860" 
d="M487 769h-93l-91 130h115zM51 349q0 159 104 260q103 102 275 102t275 -102q104 -101 104 -260q0 -158 -104 -259t-275 -101q-172 0 -276 101q-103 100 -103 259zM430 106q106 0 174 66q67 67 67 177t-67 177q-68 68 -174 68q-105 0 -173 -68q-67 -67 -67 -177t67 -177
q67 -66 173 -66z" />
    <glyph glyph-name="Oacute" unicode="&#xd3;" horiz-adv-x="860" 
d="M480 769h-93l74 130h118zM51 349q0 159 104 260q103 102 275 102t275 -102q104 -101 104 -260q0 -158 -104 -259t-275 -101q-172 0 -276 101q-103 100 -103 259zM430 106q106 0 174 66q67 67 67 177t-67 177q-68 68 -174 68q-105 0 -173 -68q-67 -67 -67 -177t67 -177
q67 -66 173 -66z" />
    <glyph glyph-name="Ocircumflex" unicode="&#xd4;" horiz-adv-x="860" 
d="M507 773l-77 74l-81 -74h-104l158 137h50l158 -137h-104zM430 711q172 0 275 -102q104 -101 104 -260q0 -158 -104 -259t-275 -101q-172 0 -276 101q-103 100 -103 259t104 260q103 102 275 102zM430 106q106 0 174 66q67 67 67 177t-67 177q-68 68 -174 68
q-105 0 -173 -68q-67 -67 -67 -177t67 -177q67 -66 173 -66z" />
    <glyph glyph-name="Otilde" unicode="&#xd5;" horiz-adv-x="860" 
d="M502 789q-31 0 -80 23q-2 0 -17 8t-19 9q-18 9 -37 9q-45 0 -50 -41l-45 2q5 61 33 91t73 30q38 0 81 -24q2 -1 8.5 -4.5t15 -7.5t10.5 -5q20 -9 39 -9q21 0 34.5 11.5t15.5 29.5l45 -2q-7 -120 -107 -120zM51 349q0 159 104 260q103 102 275 102t275 -102
q104 -101 104 -260q0 -158 -104 -259t-275 -101q-172 0 -276 101q-103 100 -103 259zM430 106q106 0 174 66q67 67 67 177t-67 177q-68 68 -174 68q-105 0 -173 -68q-67 -67 -67 -177t67 -177q67 -66 173 -66z" />
    <glyph glyph-name="Odieresis" unicode="&#xd6;" horiz-adv-x="860" 
d="M243 858q0 32 21.5 52.5t53.5 20.5q31 0 52.5 -20.5t21.5 -52.5q0 -31 -21.5 -52t-53.5 -21t-53 21t-21 52zM470 858q0 32 21.5 52.5t53.5 20.5t53 -20.5t21 -52.5q0 -31 -21 -52t-53 -21t-53.5 21t-21.5 52zM51 349q0 159 104 260q103 102 275 102t275 -102
q104 -101 104 -260q0 -158 -104 -259t-275 -101q-172 0 -276 101q-103 100 -103 259zM430 106q106 0 174 66q67 67 67 177t-67 177q-68 68 -174 68q-105 0 -173 -68q-67 -67 -67 -177t67 -177q67 -66 173 -66z" />
    <glyph glyph-name="multiply" unicode="&#xd7;" horiz-adv-x="689" 
d="M344 271l-146 -148l-66 67l146 147l-148 148l67 67l147 -148l147 148l66 -67l-147 -147l149 -148l-66 -67z" />
    <glyph glyph-name="Oslash" unicode="&#xd8;" horiz-adv-x="860" 
d="M701 731l-51 -78q76 -47 117.5 -126.5t41.5 -177.5q0 -158 -104 -259t-275 -101q-106 0 -187 40l-41 -64h-79l64 98q-65 48 -100.5 122t-35.5 164q0 159 104 260q103 102 275 102q88 0 160 -28l32 48h79zM190 349q0 -111 68 -177l265 406q-39 16 -93 16q-105 0 -173 -68
q-67 -67 -67 -177zM430 106q106 0 174 66q67 67 67 177q0 129 -90 198l-270 -414q53 -27 119 -27z" />
    <glyph glyph-name="Ugrave" unicode="&#xd9;" horiz-adv-x="740" 
d="M428 769h-93l-91 130h115zM370 -11q-137 0 -216 76q-78 77 -78 208v427h135v-422q0 -85 44 -133t116 -48q71 0 114.5 48t43.5 133v422h135v-427q0 -134 -81 -209q-79 -75 -213 -75z" />
    <glyph glyph-name="Uacute" unicode="&#xda;" horiz-adv-x="740" 
d="M421 769h-93l74 130h118zM370 -11q-137 0 -216 76q-78 77 -78 208v427h135v-422q0 -85 44 -133t116 -48q71 0 114.5 48t43.5 133v422h135v-427q0 -134 -81 -209q-79 -75 -213 -75z" />
    <glyph glyph-name="Ucircumflex" unicode="&#xdb;" horiz-adv-x="740" 
d="M448 773l-77 74l-81 -74h-104l158 137h50l158 -137h-104zM529 278v422h135v-427q0 -134 -81 -209q-79 -75 -213 -75q-137 0 -216 76q-78 77 -78 208v427h135v-422q0 -85 44 -133t116 -48q71 0 114.5 48t43.5 133z" />
    <glyph glyph-name="Udieresis" unicode="&#xdc;" horiz-adv-x="740" 
d="M184 858q0 32 21.5 52.5t53.5 20.5q31 0 52.5 -20.5t21.5 -52.5q0 -31 -21.5 -52t-53.5 -21t-53 21t-21 52zM411 858q0 32 21.5 52.5t53.5 20.5t53 -20.5t21 -52.5q0 -31 -21 -52t-53 -21t-53.5 21t-21.5 52zM370 -11q-137 0 -216 76q-78 77 -78 208v427h135v-422
q0 -85 44 -133t116 -48q71 0 114.5 48t43.5 133v422h135v-427q0 -134 -81 -209q-79 -75 -213 -75z" />
    <glyph glyph-name="Yacute" unicode="&#xdd;" horiz-adv-x="695" 
d="M378 899h118l-99 -130h-93zM542 700h136l-262 -436l-2 -264h-135l1 262l-263 438h141l191 -326z" />
    <glyph glyph-name="Thorn" unicode="&#xde;" horiz-adv-x="706" 
d="M220 0h-135v700h135v-106h183q126 0 195 -71t69 -168q0 -99 -69 -169t-194 -70h-184v-116zM220 489v-268h162q68 0 106 37.5t38 96.5t-38 96.5t-106 37.5h-162z" />
    <glyph glyph-name="germandbls" unicode="&#xdf;" horiz-adv-x="632" 
d="M434 -13q-110 0 -190 75l53 81q59 -59 115 -59q35 0 53.5 18t18.5 48q0 26 -16 46t-38.5 33.5t-45 28.5t-38.5 42t-16 64q0 46 36 107q37 62 37 106q0 46 -26 69.5t-70 23.5q-55 0 -82.5 -33.5t-27.5 -92.5v-544h-129v537q0 233 251 233q95 0 152 -44t57 -124
q2 -46 -39.5 -120t-39.5 -102q0 -24 17 -43.5t41.5 -35t49 -34t41.5 -50.5t17 -74q0 -70 -47 -113t-134 -43z" />
    <glyph glyph-name="agrave" unicode="&#xe0;" horiz-adv-x="654" 
d="M320 765l70 -168h-93l-95 168h118zM476 437l6 83h117v-520h-116l-9 89q-56 -98 -190 -98q-116 0 -185 74q-68 74 -68 191q0 119 72 196t190 77q130 0 183 -92zM319 96q65 0 110 45q46 45 46 118q0 75 -45 120t-111 45q-69 0 -112.5 -44.5t-43.5 -120.5q0 -74 43.5 -118.5
t112.5 -44.5z" />
    <glyph glyph-name="aacute" unicode="&#xe1;" horiz-adv-x="654" 
d="M359 765h118l-102 -168h-94zM476 437l6 83h117v-520h-116l-9 89q-56 -98 -190 -98q-116 0 -185 74q-68 74 -68 191q0 119 72 196t190 77q130 0 183 -92zM319 96q65 0 110 45q46 45 46 118q0 75 -45 120t-111 45q-69 0 -112.5 -44.5t-43.5 -120.5q0 -74 43.5 -118.5
t112.5 -44.5z" />
    <glyph glyph-name="acircumflex" unicode="&#xe2;" horiz-adv-x="654" 
d="M411 597l-77 99l-81 -99h-104l151 175h63l152 -175h-104zM476 437l6 83h117v-520h-116l-9 89q-56 -98 -190 -98q-116 0 -185 74q-68 74 -68 191q0 119 72 196t190 77q130 0 183 -92zM319 96q65 0 110 45q46 45 46 118q0 75 -45 120t-111 45q-69 0 -112.5 -44.5
t-43.5 -120.5q0 -74 43.5 -118.5t112.5 -44.5z" />
    <glyph glyph-name="atilde" unicode="&#xe3;" horiz-adv-x="670" 
d="M240 658q-45 0 -50 -41l-45 2q5 61 33.5 91t72.5 30q35 0 82 -24q54 -26 72 -26q21 0 34.5 11.5t15.5 29.5l45 -2q-8 -120 -107 -120q-29 0 -80 23q-2 0 -17 7.5l-19 9.5q-18 9 -37 9zM476 437l6 83h117v-520h-116l-9 89q-56 -98 -190 -98q-116 0 -185 74q-68 74 -68 191
q0 119 72 196t190 77q130 0 183 -92zM319 96q65 0 110 45q46 45 46 118q0 75 -45 120t-111 45q-69 0 -112.5 -44.5t-43.5 -120.5q0 -74 43.5 -118.5t112.5 -44.5z" />
    <glyph glyph-name="adieresis" unicode="&#xe4;" horiz-adv-x="654" 
d="M219 605q-32 0 -53.5 20.5t-21.5 51.5q0 32 21.5 53t53.5 21q31 0 53 -21t22 -53q0 -30 -22 -51t-53 -21zM371 677q0 32 22 53t54 21q31 0 52.5 -21t21.5 -53q0 -31 -21.5 -51.5t-53.5 -20.5t-53.5 20.5t-21.5 51.5zM476 437l6 83h117v-520h-116l-9 89q-56 -98 -190 -98
q-116 0 -185 74q-68 74 -68 191q0 119 72 196t190 77q130 0 183 -92zM319 96q65 0 110 45q46 45 46 118q0 75 -45 120t-111 45q-69 0 -112.5 -44.5t-43.5 -120.5q0 -74 43.5 -118.5t112.5 -44.5z" />
    <glyph glyph-name="aring" unicode="&#xe5;" horiz-adv-x="670" 
d="M407 622q-35 -29 -86 -29q-50 0 -87 29q-36 30 -36 82t35 81q36 30 88 30q53 0 87 -30q35 -29 35 -81t-36 -82zM362 748q-16 16 -42 16t-42 -16t-16 -44t16 -44q16 -15 42 -15t42 15q17 16 17 44t-17 44zM476 437l6 83h117v-520h-116l-9 89q-56 -98 -190 -98
q-116 0 -185 74q-68 74 -68 191q0 119 72 196t190 77q130 0 183 -92zM319 96q65 0 110 45q46 45 46 118q0 75 -45 120t-111 45q-69 0 -112.5 -44.5t-43.5 -120.5q0 -74 43.5 -118.5t112.5 -44.5z" />
    <glyph glyph-name="ae" unicode="&#xe6;" horiz-adv-x="986" 
d="M232 -9q-95 0 -148 40t-53 117q0 161 236 161q74 0 134 -10q0 36 -1 46q-4 91 -130 91q-100 0 -197 -39l-6 103q108 29 226 29q80 0 126.5 -23.5t66.5 -77.5q71 101 223 101q120 0 181 -67q62 -68 62 -174q0 -26 -5 -68h-380q6 -70 52 -106t122 -36q87 0 182 43l5 -94
q-92 -36 -203 -36q-188 0 -255 124q-67 -124 -238 -124zM566 301h255q7 62 -25 101.5t-90 39.5q-128 0 -140 -141zM256 79q57 0 101 35q43 34 43 87l1 28q-48 7 -107 7q-134 0 -134 -81q0 -38 26 -57t70 -19z" />
    <glyph glyph-name="ccedilla" unicode="&#xe7;" horiz-adv-x="572" 
d="M327 -9l-11 -39q120 4 120 -90q0 -45 -38.5 -68t-99.5 -23q-64 0 -103 12l5 59q39 -15 83 -15q71 0 71 42q0 30 -26 40.5t-84 9.5l22 76q-108 16 -171.5 86.5t-63.5 178.5q0 122 79 195q80 74 212 74q137 0 227 -90l-71 -83q-64 70 -149 70q-75 0 -120.5 -45.5
t-45.5 -120.5t46 -120.5t121 -45.5q86 0 147 72l74 -83q-50 -49 -102.5 -70.5t-121.5 -21.5z" />
    <glyph glyph-name="egrave" unicode="&#xe8;" horiz-adv-x="600" 
d="M294 765l70 -168h-93l-95 168h118zM566 290q0 -33 -5 -65h-397q6 -71 50.5 -106t115.5 -35q98 0 169 69l55 -84q-94 -78 -226 -78q-140 0 -218.5 72.5t-78.5 196.5q0 121 73 194q73 75 206 75q119 0 187.5 -63.5t68.5 -175.5zM309 440q-60 0 -98.5 -34.5t-46.5 -98.5h270
q1 3 1 15q0 52 -34.5 85t-91.5 33z" />
    <glyph glyph-name="eacute" unicode="&#xe9;" horiz-adv-x="600" 
d="M334 765h118l-102 -168h-94zM566 290q0 -33 -5 -65h-397q6 -71 50.5 -106t115.5 -35q98 0 169 69l55 -84q-94 -78 -226 -78q-140 0 -218.5 72.5t-78.5 196.5q0 121 73 194q73 75 206 75q119 0 187.5 -63.5t68.5 -175.5zM309 440q-60 0 -98.5 -34.5t-46.5 -98.5h270
q1 3 1 15q0 52 -34.5 85t-91.5 33z" />
    <glyph glyph-name="ecircumflex" unicode="&#xea;" horiz-adv-x="600" 
d="M385 597l-77 99l-81 -99h-104l151 175h63l152 -175h-104zM566 290q0 -33 -5 -65h-397q6 -71 50.5 -106t115.5 -35q98 0 169 69l55 -84q-94 -78 -226 -78q-140 0 -218.5 72.5t-78.5 196.5q0 121 73 194q73 75 206 75q119 0 187.5 -63.5t68.5 -175.5zM309 440
q-60 0 -98.5 -34.5t-46.5 -98.5h270q1 3 1 15q0 52 -34.5 85t-91.5 33z" />
    <glyph glyph-name="edieresis" unicode="&#xeb;" horiz-adv-x="600" 
d="M193 605q-32 0 -53.5 20.5t-21.5 51.5q0 32 21.5 53t53.5 21q31 0 53 -21t22 -53q0 -30 -22 -51t-53 -21zM345 677q0 32 22 53t54 21q31 0 52.5 -21t21.5 -53q0 -31 -21.5 -51.5t-53.5 -20.5t-53.5 20.5t-21.5 51.5zM566 290q0 -33 -5 -65h-397q6 -71 50.5 -106
t115.5 -35q98 0 169 69l55 -84q-94 -78 -226 -78q-140 0 -218.5 72.5t-78.5 196.5q0 121 73 194q73 75 206 75q119 0 187.5 -63.5t68.5 -175.5zM309 440q-60 0 -98.5 -34.5t-46.5 -98.5h270q1 3 1 15q0 52 -34.5 85t-91.5 33z" />
    <glyph glyph-name="igrave" unicode="&#xec;" horiz-adv-x="263" 
d="M191 597h-93l-95 168h118zM195 0h-127v520h127v-520z" />
    <glyph glyph-name="iacute" unicode="&#xed;" horiz-adv-x="263" 
d="M176 597h-94l78 168h118zM195 0h-127v520h127v-520z" />
    <glyph glyph-name="icircumflex" unicode="&#xee;" horiz-adv-x="263" 
d="M101 772h63l152 -175h-104l-77 99l-81 -99h-104zM195 0h-127v520h127v-520z" />
    <glyph glyph-name="idieresis" unicode="&#xef;" horiz-adv-x="263" 
d="M20 605q-32 0 -53.5 20.5t-21.5 51.5q0 32 21.5 53t53.5 21q31 0 53 -21t22 -53q0 -30 -22 -51t-53 -21zM172 677q0 32 22 53t54 21q31 0 52.5 -21t21.5 -53q0 -31 -21.5 -51.5t-53.5 -20.5t-53.5 20.5t-21.5 51.5zM195 0h-127v520h127v-520z" />
    <glyph glyph-name="eth" unicode="&#xf0;" horiz-adv-x="646" 
d="M509 726l-72 -47q163 -166 163 -388q0 -146 -74 -223t-208 -77q-130 0 -204 68q-73 67 -73 182q0 114 74 180q73 65 186 67q66 0 114 -23.5t73 -61.5q-12 69 -59 142q-27 42 -73 82l-104 -67l-33 44l91 60q-46 34 -123 76l84 62q69 -37 123 -83l80 52zM319 86
q72 0 110.5 42t38.5 114q0 71 -39.5 111t-109.5 40t-109.5 -41.5t-39.5 -110.5q0 -70 38.5 -112.5t110.5 -42.5z" />
    <glyph glyph-name="ntilde" unicode="&#xf1;" horiz-adv-x="613" 
d="M234 658q-45 0 -50 -41l-45 2q5 61 33 91t73 30q37 0 81 -24q2 -1 8.5 -4.5t15 -7.5t10.5 -5q20 -9 39 -9q21 0 34.5 11.5t15.5 29.5l45 -2q-8 -120 -107 -120q-31 0 -80 23q-2 0 -17 7.5l-19 9.5q-18 9 -37 9zM356 529q98 0 147.5 -49.5t49.5 -141.5v-338h-126v303
q0 121 -109 121q-66 0 -95 -42q-28 -40 -28 -97v-285h-127v520h112l5 -74q56 83 171 83z" />
    <glyph glyph-name="ograve" unicode="&#xf2;" horiz-adv-x="635" 
d="M378 597h-93l-95 168h118zM31 259q0 123 79 196q80 74 208 74q127 0 207 -74q79 -73 79 -196q0 -122 -79 -195t-207 -73q-129 0 -208 73t-79 195zM161 259q0 -74 43.5 -118.5t113.5 -44.5t114 44.5t44 118.5t-44 119.5t-114 45.5t-113.5 -45t-43.5 -120z" />
    <glyph glyph-name="oacute" unicode="&#xf3;" horiz-adv-x="635" 
d="M363 597h-94l78 168h118zM31 259q0 123 79 196q80 74 208 74q127 0 207 -74q79 -73 79 -196q0 -122 -79 -195t-207 -73q-129 0 -208 73t-79 195zM161 259q0 -74 43.5 -118.5t113.5 -44.5t114 44.5t44 118.5t-44 119.5t-114 45.5t-113.5 -45t-43.5 -120z" />
    <glyph glyph-name="ocircumflex" unicode="&#xf4;" horiz-adv-x="635" 
d="M399 597l-77 99l-81 -99h-104l151 175h63l152 -175h-104zM318 529q127 0 207 -74q79 -73 79 -196q0 -122 -79 -195t-207 -73q-129 0 -208 73t-79 195q0 123 79 196q80 74 208 74zM161 259q0 -74 43.5 -118.5t113.5 -44.5t114 44.5t44 118.5t-44 119.5t-114 45.5
t-113.5 -45t-43.5 -120z" />
    <glyph glyph-name="otilde" unicode="&#xf5;" horiz-adv-x="635" 
d="M391 609q-31 0 -80 23q-2 0 -17 7.5l-19 9.5q-18 9 -37 9q-45 0 -50 -41l-45 2q5 61 33 91t73 30q37 0 81 -24q2 -1 8.5 -4.5t15 -7.5t10.5 -5q20 -9 39 -9q21 0 34.5 11.5t15.5 29.5l45 -2q-8 -120 -107 -120zM31 259q0 123 79 196q80 74 208 74q127 0 207 -74
q79 -73 79 -196q0 -122 -79 -195t-207 -73q-129 0 -208 73t-79 195zM161 259q0 -74 43.5 -118.5t113.5 -44.5t114 44.5t44 118.5t-44 119.5t-114 45.5t-113.5 -45t-43.5 -120z" />
    <glyph glyph-name="odieresis" unicode="&#xf6;" horiz-adv-x="635" 
d="M207 605q-32 0 -53.5 20.5t-21.5 51.5q0 32 21.5 53t53.5 21q31 0 53 -21t22 -53q0 -30 -22 -51t-53 -21zM359 677q0 32 22 53t54 21q31 0 52.5 -21t21.5 -53q0 -31 -21.5 -51.5t-53.5 -20.5t-53.5 20.5t-21.5 51.5zM31 259q0 123 79 196q80 74 208 74q127 0 207 -74
q79 -73 79 -196q0 -122 -79 -195t-207 -73q-129 0 -208 73t-79 195zM161 259q0 -74 43.5 -118.5t113.5 -44.5t114 44.5t44 118.5t-44 119.5t-114 45.5t-113.5 -45t-43.5 -120z" />
    <glyph glyph-name="divide" unicode="&#xf7;" horiz-adv-x="692" 
d="M347 453q-25 0 -42 15.5t-17 41.5t17 41t42 15t41.5 -15t16.5 -41q0 -24 -17 -40.5t-41 -16.5zM559 293h-425v89h425v-89zM347 110q-25 0 -42 15.5t-17 41.5t16.5 40.5t42.5 14.5q25 0 41.5 -14.5t16.5 -40.5t-16.5 -41.5t-41.5 -15.5z" />
    <glyph glyph-name="oslash" unicode="&#xf8;" horiz-adv-x="635" 
d="M540 554l-48 -73q112 -73 112 -222q0 -121 -79 -194q-80 -74 -207 -74q-68 0 -130 24l-32 -49h-62l48 74q-111 74 -111 219q0 123 79 196q80 74 208 74q72 0 128 -24l32 49h62zM207 138l178 273q-27 13 -67 13q-70 0 -114 -45q-43 -44 -43 -120q0 -75 46 -121zM318 96
q70 0 114 44.5t44 118.5q0 77 -48 124l-178 -274q30 -13 68 -13z" />
    <glyph glyph-name="ugrave" unicode="&#xf9;" horiz-adv-x="584" 
d="M349 597h-93l-95 168h118zM293 -9q-116 0 -177 60t-61 169v300h127v-309q0 -56 29.5 -89t81.5 -33t81 32.5t29 89.5v309h126v-300q0 -109 -60.5 -169t-175.5 -60z" />
    <glyph glyph-name="uacute" unicode="&#xfa;" horiz-adv-x="584" 
d="M335 597h-94l78 168h118zM293 -9q-116 0 -177 60t-61 169v300h127v-309q0 -56 29.5 -89t81.5 -33t81 32.5t29 89.5v309h126v-300q0 -109 -60.5 -169t-175.5 -60z" />
    <glyph glyph-name="ucircumflex" unicode="&#xfb;" horiz-adv-x="584" 
d="M370 597l-77 99l-81 -99h-104l151 175h63l152 -175h-104zM403 211v309h126v-300q0 -109 -60.5 -169t-175.5 -60q-116 0 -177 60t-61 169v300h127v-309q0 -56 29.5 -89t81.5 -33t81 32.5t29 89.5z" />
    <glyph glyph-name="udieresis" unicode="&#xfc;" horiz-adv-x="584" 
d="M178 605q-32 0 -53.5 20.5t-21.5 51.5q0 32 21.5 53t53.5 21q31 0 53 -21t22 -53q0 -30 -22 -51t-53 -21zM330 677q0 32 22 53t54 21q31 0 52.5 -21t21.5 -53q0 -31 -21.5 -51.5t-53.5 -20.5t-53.5 20.5t-21.5 51.5zM293 -9q-116 0 -177 60t-61 169v300h127v-309
q0 -56 29.5 -89t81.5 -33t81 32.5t29 89.5v309h126v-300q0 -109 -60.5 -169t-175.5 -60z" />
    <glyph glyph-name="yacute" unicode="&#xfd;" horiz-adv-x="571" 
d="M323 765h118l-102 -168h-94zM359 314l76 206h124l-270 -690h-127l65 162l-215 528h135l80 -206q37 -93 67 -184h3z" />
    <glyph glyph-name="thorn" unicode="&#xfe;" horiz-adv-x="668" 
d="M195 -170h-127v942h127v-325q27 39 75.5 60.5t103.5 21.5q122 0 193 -77q70 -76 70 -192q0 -115 -71 -192t-195 -77q-119 0 -176 74v-235zM349 96q70 0 113.5 45t43.5 119t-44 119t-113 45q-66 0 -112 -46q-45 -45 -45 -118q0 -72 45 -118t112 -46z" />
    <glyph glyph-name="ydieresis" unicode="&#xff;" horiz-adv-x="571" 
d="M182 605q-32 0 -53.5 20.5t-21.5 51.5q0 32 21.5 53t53.5 21q31 0 53 -21t22 -53q0 -30 -22 -51t-53 -21zM334 677q0 32 22 53t54 21q31 0 52.5 -21t21.5 -53q0 -31 -21.5 -51.5t-53.5 -20.5t-53.5 20.5t-21.5 51.5zM359 314l76 206h124l-270 -690h-127l65 162l-215 528
h135l80 -206q37 -93 67 -184h3z" />
    <glyph glyph-name="Amacron" unicode="&#x100;" horiz-adv-x="780" 
d="M230 870h317v-73h-317v73zM756 0h-142l-63 163h-329l-63 -163h-135l280 704h172zM386 591l-124 -322h249l-124 322h-1z" />
    <glyph glyph-name="amacron" unicode="&#x101;" horiz-adv-x="654" 
d="M173 690h317v-73h-317v73zM476 437l6 83h117v-520h-116l-9 89q-56 -98 -190 -98q-116 0 -185 74q-68 74 -68 191q0 119 72 196t190 77q130 0 183 -92zM319 96q65 0 110 45q46 45 46 118q0 75 -45 120t-111 45q-69 0 -112.5 -44.5t-43.5 -120.5q0 -74 43.5 -118.5
t112.5 -44.5z" />
    <glyph glyph-name="Abreve" unicode="&#x102;" horiz-adv-x="780" 
d="M388 771q-155 0 -164 131h74q8 -72 90 -72q84 0 91 72h74q-9 -131 -165 -131zM756 0h-142l-63 163h-329l-63 -163h-135l280 704h172zM386 591l-124 -322h249l-124 322h-1z" />
    <glyph glyph-name="abreve" unicode="&#x103;" horiz-adv-x="670" 
d="M327 600q-165 0 -173 158h80q3 -92 93 -92q47 0 69.5 23t24.5 69h79q-6 -158 -173 -158zM476 437l6 83h117v-520h-116l-9 89q-56 -98 -190 -98q-116 0 -185 74q-68 74 -68 191q0 119 72 196t190 77q130 0 183 -92zM319 96q65 0 110 45q46 45 46 118q0 75 -45 120t-111 45
q-69 0 -112.5 -44.5t-43.5 -120.5q0 -74 43.5 -118.5t112.5 -44.5z" />
    <glyph glyph-name="Aogonek" unicode="&#x104;" horiz-adv-x="780" 
d="M776 -90l1 -78q-37 -10 -86 -10q-113 0 -113 89q0 62 53 89h-17l-63 163h-329l-63 -163h-135l280 704h172l280 -704h-9q-93 -10 -93 -61q0 -38 50 -38q21 0 72 9zM386 591l-124 -322h249l-124 322h-1z" />
    <glyph glyph-name="aogonek" unicode="&#x105;" horiz-adv-x="641" 
d="M623 -91l2 -78q-41 -11 -86 -11q-51 0 -82.5 25t-31.5 70q0 61 58 89l-9 85q-56 -98 -190 -98q-116 0 -185 74q-68 74 -68 191q0 119 72 196t190 77q130 0 183 -92l6 83h117v-520h-3q-95 -14 -95 -64q0 -37 50 -37q33 0 72 10zM319 96q65 0 110 45q46 45 46 118
q0 75 -45 120t-111 45q-69 0 -112.5 -44.5t-43.5 -120.5q0 -74 43.5 -118.5t112.5 -44.5z" />
    <glyph glyph-name="Cacute" unicode="&#x106;" horiz-adv-x="751" 
d="M460 769h-93l74 130h118zM438 -8q-175 0 -282 98q-106 99 -106 261q0 161 104 260q105 99 280 99q96 0 165.5 -30.5t130.5 -95.5l-96 -83q-78 95 -198 95q-112 0 -180 -68t-68 -177q0 -110 68 -178q68 -67 178 -67q122 0 207 102l91 -85q-120 -131 -294 -131z" />
    <glyph glyph-name="cacute" unicode="&#x107;" horiz-adv-x="572" 
d="M354 597h-94l78 168h118zM325 -9q-134 0 -214 73q-80 74 -80 196t79 195q80 74 212 74q137 0 227 -90l-71 -83q-64 70 -149 70q-75 0 -120.5 -45.5t-45.5 -120.5t46 -120.5t121 -45.5q86 0 147 72l74 -83q-50 -49 -103 -70.5t-123 -21.5z" />
    <glyph glyph-name="Ccircumflex" unicode="&#x108;" horiz-adv-x="751" 
d="M488 773l-77 74l-81 -74h-104l158 137h50l158 -137h-104zM641 208l91 -85q-120 -131 -294 -131q-175 0 -282 98q-106 99 -106 261q0 161 104 260q105 99 280 99q96 0 165.5 -30.5t130.5 -95.5l-96 -83q-78 95 -198 95q-112 0 -180 -68t-68 -177q0 -110 68 -178
q68 -67 178 -67q122 0 207 102z" />
    <glyph glyph-name="ccircumflex" unicode="&#x109;" horiz-adv-x="572" 
d="M390 597l-77 99l-81 -99h-104l151 175h63l152 -175h-104zM477 166l74 -83q-50 -49 -103 -70.5t-123 -21.5q-134 0 -214 73q-80 74 -80 196t79 195q80 74 212 74q137 0 227 -90l-71 -83q-64 70 -149 70q-75 0 -120.5 -45.5t-45.5 -120.5t46 -120.5t121 -45.5q86 0 147 72z
" />
    <glyph glyph-name="Cdotaccent" unicode="&#x10a;" horiz-adv-x="751" 
d="M338 857q0 31 22 52.5t54 21.5q30 0 52 -21.5t22 -52.5q0 -30 -22 -51t-53 -21t-53 21t-22 51zM438 -8q-175 0 -282 98q-106 99 -106 261q0 161 104 260q105 99 280 99q96 0 165.5 -30.5t130.5 -95.5l-96 -83q-78 95 -198 95q-112 0 -180 -68t-68 -177q0 -110 68 -178
q68 -67 178 -67q122 0 207 102l91 -85q-120 -131 -294 -131z" />
    <glyph glyph-name="cdotaccent" unicode="&#x10b;" horiz-adv-x="572" 
d="M238 677q0 32 21.5 53t53.5 21t53.5 -21t21.5 -53q0 -31 -21.5 -51.5t-53.5 -20.5t-53.5 20.5t-21.5 51.5zM325 -9q-134 0 -214 73q-80 74 -80 196t79 195q80 74 212 74q137 0 227 -90l-71 -83q-64 70 -149 70q-75 0 -120.5 -45.5t-45.5 -120.5t46 -120.5t121 -45.5
q86 0 147 72l74 -83q-50 -49 -103 -70.5t-123 -21.5z" />
    <glyph glyph-name="Ccaron" unicode="&#x10c;" horiz-adv-x="751" 
d="M603 895l-128 -130h-131l-128 130h109l85 -89l85 89h108zM641 208l91 -85q-120 -131 -294 -131q-175 0 -282 98q-106 99 -106 261q0 161 104 260q105 99 280 99q96 0 165.5 -30.5t130.5 -95.5l-96 -83q-78 95 -198 95q-112 0 -180 -68t-68 -177q0 -110 68 -178
q68 -67 178 -67q122 0 207 102z" />
    <glyph glyph-name="ccaron" unicode="&#x10d;" horiz-adv-x="572" 
d="M499 772l-148 -175h-70l-148 175h104l81 -102l77 102h104zM477 166l74 -83q-50 -49 -103 -70.5t-123 -21.5q-134 0 -214 73q-80 74 -80 196t79 195q80 74 212 74q137 0 227 -90l-71 -83q-64 70 -149 70q-75 0 -120.5 -45.5t-45.5 -120.5t46 -120.5t121 -45.5q86 0 147 72
z" />
    <glyph glyph-name="Dcaron" unicode="&#x10e;" horiz-adv-x="760" 
d="M560 895l-128 -130h-131l-128 130h109l85 -89l85 89h108zM85 700h294q146 0 238 -98q91 -97 93 -251q0 -153 -92 -253q-92 -98 -239 -98h-294v700zM220 105h127q107 0 164 66t57 182q0 113 -58.5 177.5t-162.5 64.5h-127v-490z" />
    <glyph glyph-name="dcaron" unicode="&#x10f;" horiz-adv-x="655" 
d="M472 445v327h127v-772h-116l-9 89q-56 -98 -189 -98q-120 0 -187 76t-67 192q0 118 69 194q70 76 192 76q124 0 180 -84zM673 603v159h92l-22 -159h-70zM320 96q66 0 110 45q45 47 45 119q0 71 -44 118q-43 46 -111 46q-70 0 -113.5 -45t-43.5 -119t43.5 -119t113.5 -45z
" />
    <glyph glyph-name="Dcroat" unicode="&#x110;" horiz-adv-x="761" 
d="M710 351q1 -153 -91 -253q-92 -98 -239 -98h-295v311h-75v71h75v318h295q146 0 238 -98t92 -251zM221 105h126q108 0 164.5 65.5t56.5 182.5q0 114 -57.5 178t-162.5 64h-127v-213h155v-71h-155v-206z" />
    <glyph glyph-name="dslash" unicode="&#x111;" horiz-adv-x="690" 
d="M599 678h82v-55h-82v-623h-116l-9 89q-56 -98 -189 -98q-120 0 -187 76t-67 192q0 118 69 194q70 76 192 76q124 0 180 -84v178h-137v55h137v94h127v-94zM320 96q66 0 110 45q45 47 45 119q0 71 -44 118q-43 46 -111 46q-70 0 -113.5 -45t-43.5 -119t43.5 -119t113.5 -45
z" />
    <glyph glyph-name="Emacron" unicode="&#x112;" horiz-adv-x="650" 
d="M494 797h-317v73h317v-73zM603 0h-518v700h509v-105h-374v-200h323v-105h-323v-185h383v-105z" />
    <glyph glyph-name="emacron" unicode="&#x113;" horiz-adv-x="600" 
d="M147 690h317v-73h-317v73zM566 290q0 -33 -5 -65h-397q6 -71 50.5 -106t115.5 -35q98 0 169 69l55 -84q-94 -78 -226 -78q-140 0 -218.5 72.5t-78.5 196.5q0 121 73 194q73 75 206 75q119 0 187.5 -63.5t68.5 -175.5zM309 440q-60 0 -98.5 -34.5t-46.5 -98.5h270
q1 3 1 15q0 52 -34.5 85t-91.5 33z" />
    <glyph glyph-name="Ebreve" unicode="&#x114;" horiz-adv-x="650" 
d="M335 771q-155 0 -164 131h74q7 -72 90 -72t91 72h74q-9 -131 -165 -131zM603 0h-518v700h509v-105h-374v-200h323v-105h-323v-185h383v-105z" />
    <glyph glyph-name="ebreve" unicode="&#x115;" horiz-adv-x="600" 
d="M132 758h80q3 -92 93 -92t93 92h80q-6 -158 -173 -158t-173 158zM566 290q0 -33 -5 -65h-397q6 -71 50.5 -106t115.5 -35q98 0 169 69l55 -84q-94 -78 -226 -78q-140 0 -218.5 72.5t-78.5 196.5q0 121 73 194q73 75 206 75q119 0 187.5 -63.5t68.5 -175.5zM309 440
q-60 0 -98.5 -34.5t-46.5 -98.5h270q1 3 1 15q0 52 -34.5 85t-91.5 33z" />
    <glyph glyph-name="Edotaccent" unicode="&#x116;" horiz-adv-x="650" 
d="M264 857q0 31 22 52.5t54 21.5q30 0 52 -21.5t22 -52.5q0 -30 -22 -51t-53 -21t-53 21t-22 51zM603 0h-518v700h509v-105h-374v-200h323v-105h-323v-185h383v-105z" />
    <glyph glyph-name="edotaccent" unicode="&#x117;" horiz-adv-x="600" 
d="M233 677q0 32 21.5 53t53.5 21t53.5 -21t21.5 -53q0 -31 -21.5 -51.5t-53.5 -20.5t-53.5 20.5t-21.5 51.5zM566 290q0 -33 -5 -65h-397q6 -71 50.5 -106t115.5 -35q98 0 169 69l55 -84q-94 -78 -226 -78q-140 0 -218.5 72.5t-78.5 196.5q0 121 73 194q73 75 206 75
q119 0 187.5 -63.5t68.5 -175.5zM309 440q-60 0 -98.5 -34.5t-46.5 -98.5h270q1 3 1 15q0 52 -34.5 85t-91.5 33z" />
    <glyph glyph-name="Eogonek" unicode="&#x118;" horiz-adv-x="650" 
d="M605 -90l1 -78q-37 -10 -86 -10q-113 0 -113 89q0 62 53 89h-375v700h509v-105h-374v-200h323v-105h-323v-185h383v-105h-27q-93 -10 -93 -61q0 -38 50 -38q21 0 72 9z" />
    <glyph glyph-name="eogonek" unicode="&#x119;" horiz-adv-x="600" 
d="M566 290q0 -33 -5 -65h-397q6 -71 50.5 -106t115.5 -35q98 0 169 69l55 -84q-40 -34 -89 -54q-41 -20 -53.5 -32t-12.5 -34q0 -48 50 -48q29 0 67 24l28 -66q-44 -37 -114 -37q-48 0 -78 22.5t-30 70.5q0 44 30 77q-5 -1 -24 -1q-140 0 -218.5 72.5t-78.5 196.5
q0 121 73 194q73 75 206 75q119 0 187.5 -63.5t68.5 -175.5zM309 440q-60 0 -98.5 -34.5t-46.5 -98.5h270q1 3 1 15q0 52 -34.5 85t-91.5 33z" />
    <glyph glyph-name="Ecaron" unicode="&#x11a;" horiz-adv-x="650" 
d="M528 895l-128 -130h-131l-128 130h109l85 -89l85 89h108zM220 290v-185h383v-105h-518v700h509v-105h-374v-200h323v-105h-323z" />
    <glyph glyph-name="ecaron" unicode="&#x11b;" horiz-adv-x="600" 
d="M495 772l-148 -175h-70l-148 175h104l81 -102l77 102h104zM566 290q0 -33 -5 -65h-397q6 -71 50.5 -106t115.5 -35q98 0 169 69l55 -84q-94 -78 -226 -78q-140 0 -218.5 72.5t-78.5 196.5q0 121 73 194q73 75 206 75q119 0 187.5 -63.5t68.5 -175.5zM309 440
q-60 0 -98.5 -34.5t-46.5 -98.5h270q1 3 1 15q0 52 -34.5 85t-91.5 33z" />
    <glyph glyph-name="Gcircumflex" unicode="&#x11c;" horiz-adv-x="800" 
d="M494 773l-77 74l-81 -74h-104l158 137h50l158 -137h-104zM430 285v88h312v-260q-60 -59 -140.5 -91.5t-166.5 -32.5q-169 0 -276 94q-108 95 -108 266q0 167 108 264q110 98 286 98q172 0 285 -104l-79 -93q-74 83 -205 83q-119 0 -186 -66.5t-67 -178.5q0 -114 66 -182
q67 -67 174 -67q108 0 180 60v122h-183z" />
    <glyph glyph-name="gcircumflex" unicode="&#x11d;" horiz-adv-x="663" 
d="M406 597l-77 99l-81 -99h-104l151 175h63l152 -175h-104zM481 443l10 77h107v-422q0 -76 -24.5 -131.5t-69 -86.5t-99 -45.5t-121.5 -14.5q-142 0 -236 74l45 89q39 -33 90.5 -52t99.5 -19q87 0 136 38t49 113v50q-21 -45 -71 -70t-112 -25q-49 0 -91.5 12.5t-80.5 40
t-60 78.5t-22 121q0 69 21.5 120.5t59 81t81 43.5t92.5 14q67 0 119 -23.5t77 -62.5zM318 118q71 0 113 42t42 113q0 70 -42 112t-114 42t-114.5 -42t-42.5 -112q0 -71 42.5 -113t115.5 -42z" />
    <glyph glyph-name="Gbreve" unicode="&#x11e;" horiz-adv-x="800" 
d="M417 771q-155 0 -164 131h74q7 -72 90 -72q84 0 91 72h74q-9 -131 -165 -131zM430 285v88h312v-260q-60 -59 -140.5 -91.5t-166.5 -32.5q-169 0 -276 94q-108 95 -108 266q0 167 108 264q110 98 286 98q172 0 285 -104l-79 -93q-74 83 -205 83q-119 0 -186 -66.5
t-67 -178.5q0 -114 66 -182q67 -67 174 -67q108 0 180 60v122h-183z" />
    <glyph glyph-name="gbreve" unicode="&#x11f;" horiz-adv-x="663" 
d="M152 758h80q3 -92 93 -92t93 92h80q-6 -158 -173 -158t-173 158zM481 443l10 77h107v-422q0 -76 -24.5 -131.5t-69 -86.5t-99 -45.5t-121.5 -14.5q-142 0 -236 74l45 89q39 -33 90.5 -52t99.5 -19q87 0 136 38t49 113v50q-21 -45 -71 -70t-112 -25q-49 0 -91.5 12.5
t-80.5 40t-60 78.5t-22 121q0 69 21.5 120.5t59 81t81 43.5t92.5 14q67 0 119 -23.5t77 -62.5zM318 118q71 0 113 42t42 113q0 70 -42 112t-114 42t-114.5 -42t-42.5 -112q0 -71 42.5 -113t115.5 -42z" />
    <glyph glyph-name="Gdotaccent" unicode="&#x120;" horiz-adv-x="800" 
d="M345 857q0 31 22 52.5t54 21.5q30 0 52 -21.5t22 -52.5q0 -30 -22 -51t-53 -21t-53 21t-22 51zM430 285v88h312v-260q-60 -59 -140.5 -91.5t-166.5 -32.5q-169 0 -276 94q-108 95 -108 266q0 167 108 264q110 98 286 98q172 0 285 -104l-79 -93q-74 83 -205 83
q-119 0 -186 -66.5t-67 -178.5q0 -114 66 -182q67 -67 174 -67q108 0 180 60v122h-183z" />
    <glyph glyph-name="gdotaccent" unicode="&#x121;" horiz-adv-x="663" 
d="M253 677q0 32 21.5 53t53.5 21t53.5 -21t21.5 -53q0 -31 -21.5 -51.5t-53.5 -20.5t-53.5 20.5t-21.5 51.5zM481 443l10 77h107v-422q0 -76 -24.5 -131.5t-69 -86.5t-99 -45.5t-121.5 -14.5q-142 0 -236 74l45 89q39 -33 90.5 -52t99.5 -19q87 0 136 38t49 113v50
q-21 -45 -71 -70t-112 -25q-49 0 -91.5 12.5t-80.5 40t-60 78.5t-22 121q0 69 21.5 120.5t59 81t81 43.5t92.5 14q67 0 119 -23.5t77 -62.5zM318 118q71 0 113 42t42 113q0 70 -42 112t-114 42t-114.5 -42t-42.5 -112q0 -71 42.5 -113t115.5 -42z" />
    <glyph glyph-name="uni0122" unicode="&#x122;" horiz-adv-x="800" 
d="M430 285v88h312v-260q-60 -59 -140.5 -91.5t-166.5 -32.5q-169 0 -276 94q-108 95 -108 266q0 167 108 264q110 98 286 98q172 0 285 -104l-79 -93q-74 83 -205 83q-119 0 -186 -66.5t-67 -178.5q0 -114 66 -182q67 -67 174 -67q108 0 180 60v122h-183zM440 -241h-78
l22 167h90z" />
    <glyph glyph-name="uni0123" unicode="&#x123;" horiz-adv-x="663" 
d="M312 761h78l-22 -167h-90zM481 443l10 77h107v-422q0 -76 -24.5 -131.5t-69 -86.5t-99 -45.5t-121.5 -14.5q-142 0 -236 74l45 89q39 -33 90.5 -52t99.5 -19q87 0 136 38t49 113v50q-21 -45 -71 -70t-112 -25q-49 0 -91.5 12.5t-80.5 40t-60 78.5t-22 121
q0 69 21.5 120.5t59 81t81 43.5t92.5 14q67 0 119 -23.5t77 -62.5zM318 118q71 0 113 42t42 113q0 70 -42 112t-114 42t-114.5 -42t-42.5 -112q0 -71 42.5 -113t115.5 -42z" />
    <glyph glyph-name="Hcircumflex" unicode="&#x124;" horiz-adv-x="778" 
d="M464 773l-77 74l-81 -74h-104l158 137h50l158 -137h-104zM557 403v297h136v-700h-136v288h-336v-288h-136v700h136v-297h336z" />
    <glyph glyph-name="hcircumflex" unicode="&#x125;" horiz-adv-x="613" 
d="M314 845h-104l-77 74l-81 -74h-104l158 137h50zM357 529q97 0 146.5 -50t49.5 -141v-338h-126v303q0 121 -109 121q-66 0 -95 -42q-28 -40 -28 -97v-285h-127v772h127v-310q58 67 162 67z" />
    <glyph glyph-name="Hbar" unicode="&#x126;" horiz-adv-x="791" 
d="M700 586h69v-75h-69v-511h-136v288h-337v-288h-136v511h-69v75h69v114h136v-114h337v114h136v-114zM227 399h337v112h-337v-112z" />
    <glyph glyph-name="hbar" unicode="&#x127;" horiz-adv-x="613" 
d="M357 529q97 0 146.5 -50t49.5 -141v-338h-126v303q0 121 -109 121q-66 0 -95 -42q-28 -40 -28 -97v-285h-127v623h-73v55h73v94h127v-94h145v-55h-145v-161q58 67 162 67z" />
    <glyph glyph-name="Itilde" unicode="&#x128;" horiz-adv-x="306" 
d="M226 789q-31 0 -80 23q-2 0 -17 8t-19 9q-18 9 -37 9q-45 0 -50 -41l-45 2q5 61 33 91t73 30q38 0 81 -24q2 -1 8.5 -4.5t15 -7.5t10.5 -5q20 -9 39 -9q21 0 34.5 11.5t15.5 29.5l45 -2q-7 -120 -107 -120zM221 0h-136v700h136v-700z" />
    <glyph glyph-name="itilde" unicode="&#x129;" horiz-adv-x="263" 
d="M204 609q-31 0 -80 23q-2 0 -17 7.5l-19 9.5q-18 9 -37 9q-45 0 -50 -41l-45 2q5 61 33 91t73 30q38 0 81 -24q2 -1 8.5 -4.5t15 -7.5t10.5 -5q20 -9 39 -9q21 0 34.5 11.5t15.5 29.5l45 -2q-7 -120 -107 -120zM195 0h-127v520h127v-520z" />
    <glyph glyph-name="Imacron" unicode="&#x12a;" horiz-adv-x="306" 
d="M312 797h-317v73h317v-73zM221 0h-136v700h136v-700z" />
    <glyph glyph-name="imacron" unicode="&#x12b;" horiz-adv-x="263" 
d="M290 617h-317v73h317v-73zM195 0h-127v520h127v-520z" />
    <glyph glyph-name="Ibreve" unicode="&#x12c;" horiz-adv-x="306" 
d="M153 771q-155 0 -164 131h74q7 -72 90 -72q84 0 91 72h74q-9 -131 -165 -131zM221 0h-136v700h136v-700z" />
    <glyph glyph-name="ibreve" unicode="&#x12d;" horiz-adv-x="263" 
d="M-42 758h80q3 -92 93 -92t93 92h80q-6 -158 -173 -158t-173 158zM195 0h-127v520h127v-520z" />
    <glyph glyph-name="Iogonek" unicode="&#x12e;" horiz-adv-x="306" 
d="M249 -90l1 -78q-37 -10 -86 -10q-113 0 -113 89q0 62 53 89h-19v700h136v-700h-1q-93 -10 -93 -61q0 -38 50 -38q21 0 72 9z" />
    <glyph glyph-name="iogonek" unicode="&#x12f;" horiz-adv-x="263" 
d="M132 608q-34 0 -58.5 24t-24.5 59t24.5 59t59.5 24t59 -24t24 -59t-24.5 -59t-59.5 -24zM224 -90l1 -78q-37 -10 -86 -10q-113 0 -113 89q0 62 53 89h-11v520h127v-520q-93 -10 -93 -61q0 -38 50 -38q21 0 72 9z" />
    <glyph glyph-name="Idot" unicode="&#x130;" horiz-adv-x="306" 
d="M82 857q0 31 22 52.5t54 21.5q30 0 52 -21.5t22 -52.5q0 -30 -22 -51t-53 -21t-53 21t-22 51zM221 0h-136v700h136v-700z" />
    <glyph glyph-name="dotlessi" unicode="&#x131;" horiz-adv-x="263" 
d="M195 0h-127v520h127v-520z" />
    <glyph glyph-name="IJ" unicode="&#x132;" horiz-adv-x="725" 
d="M221 0h-136v700h136v-700zM427 -11q-58 0 -96 13v113q44 -14 91 -14q43 0 67.5 24t24.5 71v504h135v-504q0 -102 -59 -154.5t-163 -52.5z" />
    <glyph glyph-name="ij" unicode="&#x133;" horiz-adv-x="575" 
d="M132 608q-34 0 -58.5 24t-24.5 59t24.5 59t59.5 24t59 -24t24 -59t-24.5 -59t-59.5 -24zM444 608q-34 0 -58.5 24t-24.5 59t24.5 59t59.5 24t59 -24t24 -59t-24.5 -59t-59.5 -24zM195 0h-127v520h127v-520zM342 -180q-66 0 -103 21l16 95l15 -5q26 -11 45 -11q66 0 66 69
v531h126v-537q0 -83 -44 -123t-121 -40z" />
    <glyph glyph-name="Jcircumflex" unicode="&#x134;" horiz-adv-x="419" 
d="M247 910h50l158 -137h-104l-77 74l-81 -74h-104zM208 196v504h135v-504q0 -102 -59 -154.5t-163 -52.5q-58 0 -96 13v113q44 -14 91 -14q43 0 67.5 24t24.5 71z" />
    <glyph glyph-name="jcircumflex" unicode="&#x135;" horiz-adv-x="299" 
d="M149 772h64l151 -175h-104l-77 99l-81 -99h-104zM117 -12v532h127v-536q0 -163 -173 -163q-51 0 -95 11l3 91q35 -12 66 -12q72 0 72 77z" />
    <glyph glyph-name="uni0136" unicode="&#x136;" horiz-adv-x="679" 
d="M664 700l-250 -346l257 -354h-156l-204 287h-97v-287h-129v700h129v-297l95 1l213 296h142zM363 -241h-78l22 167h90z" />
    <glyph glyph-name="uni0137" unicode="&#x137;" horiz-adv-x="570" 
d="M552 520l-192 -256l199 -264h-144l-146 209h-74v-209h-127v772h127v-460h70l149 208h138zM286 -241h-78l22 167h90z" />
    <glyph glyph-name="kgreenlandic" unicode="&#x138;" horiz-adv-x="566" 
d="M356 264l199 -264h-145l-146 209h-73v-209h-123v520h123v-208h70l149 208h137z" />
    <glyph glyph-name="Lacute" unicode="&#x139;" horiz-adv-x="584" 
d="M203 769h-93l74 130h118zM566 0h-481v700h135v-593h346v-107z" />
    <glyph glyph-name="lacute" unicode="&#x13a;" horiz-adv-x="263" 
d="M179 828h-93l74 130h118zM195 0h-127v772h127v-772z" />
    <glyph glyph-name="uni013B" unicode="&#x13b;" horiz-adv-x="584" 
d="M566 0h-481v700h135v-593h346v-107zM336 -241h-78l22 167h90z" />
    <glyph glyph-name="uni013C" unicode="&#x13c;" horiz-adv-x="263" 
d="M195 0h-127v772h127v-772zM144 -241h-78l22 167h90z" />
    <glyph glyph-name="Lcaron" unicode="&#x13d;" horiz-adv-x="584" 
d="M431 578h-59v161h84zM566 0h-481v700h135v-593h346v-107z" />
    <glyph glyph-name="lcaron" unicode="&#x13e;" horiz-adv-x="370" 
d="M195 0h-127v772h127v-772zM345 606h-69l-1 160h93z" />
    <glyph glyph-name="Lslash" unicode="&#x141;" horiz-adv-x="598" 
d="M235 347v-240h346v-107h-482v265l-89 -54v89l89 54v346h136v-262l151 92v-91z" />
    <glyph glyph-name="lslash" unicode="&#x142;" horiz-adv-x="331" 
d="M227 403l94 56v-66l-94 -55v-338h-127v262l-88 -53v67l88 52v444h127v-369z" />
    <glyph glyph-name="Nacute" unicode="&#x143;" horiz-adv-x="778" 
d="M429 899h118l-99 -130h-93zM565 415v285h128v-700h-110l-379 507l1 -2q8 -134 8 -184v-321h-128v700h110l376 -495q-6 67 -6 210z" />
    <glyph glyph-name="nacute" unicode="&#x144;" horiz-adv-x="613" 
d="M343 765h118l-102 -168h-94zM356 529q98 0 147.5 -49.5t49.5 -141.5v-338h-126v303q0 121 -109 121q-66 0 -95 -42q-28 -40 -28 -97v-285h-127v520h112l5 -74q56 83 171 83z" />
    <glyph glyph-name="uni0145" unicode="&#x145;" horiz-adv-x="778" 
d="M565 415v285h128v-700h-110l-379 507l1 -2q8 -134 8 -184v-321h-128v700h110l376 -495q-6 67 -6 210zM400 -241h-78l22 167h90z" />
    <glyph glyph-name="uni0146" unicode="&#x146;" horiz-adv-x="613" 
d="M356 529q98 0 147.5 -49.5t49.5 -141.5v-338h-126v303q0 121 -109 121q-66 0 -95 -42q-28 -40 -28 -97v-285h-127v520h112l5 -74q56 83 171 83zM321 -241h-78l22 167h90z" />
    <glyph glyph-name="Ncaron" unicode="&#x147;" horiz-adv-x="778" 
d="M591 895l-128 -130h-131l-128 130h109l85 -89l85 89h108zM565 415v285h128v-700h-110l-379 507l1 -2q8 -134 8 -184v-321h-128v700h110l376 -495q-6 67 -6 210z" />
    <glyph glyph-name="ncaron" unicode="&#x148;" horiz-adv-x="613" 
d="M505 772l-148 -175h-70l-148 175h104l81 -102l77 102h104zM356 529q98 0 147.5 -49.5t49.5 -141.5v-338h-126v303q0 121 -109 121q-66 0 -95 -42q-28 -40 -28 -97v-285h-127v520h112l5 -74q56 83 171 83z" />
    <glyph glyph-name="Eng" unicode="&#x14a;" horiz-adv-x="777" 
d="M564 415v285h128v-712q0 -167 -173 -167q-51 0 -95 11l3 91q36 -12 66 -12q73 0 73 81v31l-361 481q8 -133 8 -183v-321h-128l-1 700h110l376 -494q-6 68 -6 209z" />
    <glyph glyph-name="eng" unicode="&#x14b;" horiz-adv-x="613" 
d="M380 -179q-51 0 -95 11l3 91q36 -12 66 -12q73 0 73 81v311q0 121 -109 121q-66 0 -95 -42q-28 -40 -28 -97v-285h-127v520h112l4 -74q59 83 173 83q97 0 146.5 -50t49.5 -141v-355q-3 -162 -173 -162z" />
    <glyph glyph-name="Omacron" unicode="&#x14c;" horiz-adv-x="860" 
d="M588 797h-317v73h317v-73zM51 349q0 159 104 260q103 102 275 102t275 -102q104 -101 104 -260q0 -158 -104 -259t-275 -101q-172 0 -276 101q-103 100 -103 259zM430 106q106 0 174 66q67 67 67 177t-67 177q-68 68 -174 68q-105 0 -173 -68q-67 -67 -67 -177t67 -177
q67 -66 173 -66z" />
    <glyph glyph-name="omacron" unicode="&#x14d;" horiz-adv-x="635" 
d="M477 617h-317v73h317v-73zM31 259q0 123 79 196q80 74 208 74q127 0 207 -74q79 -73 79 -196q0 -122 -79 -195t-207 -73q-129 0 -208 73t-79 195zM161 259q0 -74 43.5 -118.5t113.5 -44.5t114 44.5t44 118.5t-44 119.5t-114 45.5t-113.5 -45t-43.5 -120z" />
    <glyph glyph-name="Obreve" unicode="&#x14e;" horiz-adv-x="860" 
d="M429 771q-155 0 -164 131h74q7 -72 90 -72t91 72h74q-9 -131 -165 -131zM51 349q0 159 104 260q103 102 275 102t275 -102q104 -101 104 -260q0 -158 -104 -259t-275 -101q-172 0 -276 101q-103 100 -103 259zM430 106q106 0 174 66q67 67 67 177t-67 177q-68 68 -174 68
q-105 0 -173 -68q-67 -67 -67 -177t67 -177q67 -66 173 -66z" />
    <glyph glyph-name="obreve" unicode="&#x14f;" horiz-adv-x="635" 
d="M145 758h80q3 -92 93 -92t93 92h80q-6 -158 -173 -158t-173 158zM31 259q0 123 79 196q80 74 208 74q127 0 207 -74q79 -73 79 -196q0 -122 -79 -195t-207 -73q-129 0 -208 73t-79 195zM161 259q0 -74 43.5 -118.5t113.5 -44.5t114 44.5t44 118.5t-44 119.5t-114 45.5
t-113.5 -45t-43.5 -120z" />
    <glyph glyph-name="Ohungarumlaut" unicode="&#x150;" horiz-adv-x="860" 
d="M374 769h-93l77 129h119zM550 769h-93l77 129h118zM51 349q0 159 104 260q103 102 275 102t275 -102q104 -101 104 -260q0 -158 -104 -259t-275 -101q-172 0 -276 101q-103 100 -103 259zM430 106q106 0 174 66q67 67 67 177t-67 177q-68 68 -174 68q-105 0 -173 -68
q-67 -67 -67 -177t67 -177q67 -66 173 -66z" />
    <glyph glyph-name="ohungarumlaut" unicode="&#x151;" horiz-adv-x="635" 
d="M263 597h-93l71 168h118zM439 597h-93l71 168h118zM31 259q0 123 79 196q80 74 208 74q127 0 207 -74q79 -73 79 -196q0 -122 -79 -195t-207 -73q-129 0 -208 73t-79 195zM161 259q0 -74 43.5 -118.5t113.5 -44.5t114 44.5t44 118.5t-44 119.5t-114 45.5t-113.5 -45
t-43.5 -120z" />
    <glyph glyph-name="OE" unicode="&#x152;" horiz-adv-x="1137" 
d="M1090 0h-637q-187 0 -294 94q-108 94 -108 255q0 162 108 256q109 95 294 95h628v-100h-383v-208h331v-100h-331v-192h392v-100zM453 102h117v495h-117q-125 0 -195.5 -64.5t-70.5 -183.5t70.5 -183t195.5 -64z" />
    <glyph glyph-name="oe" unicode="&#x153;" horiz-adv-x="1097" 
d="M1063 290q0 -33 -5 -65h-397q6 -71 50.5 -106t115.5 -35q99 0 169 69l55 -84q-95 -78 -226 -78q-186 0 -260 122q-36 -58 -100.5 -90t-146.5 -32q-129 0 -208 73t-79 195q0 123 79 196q80 74 208 74q83 0 147 -32t100 -90q71 122 242 122q119 0 187.5 -63.5t68.5 -175.5z
M806 440q-60 0 -98.5 -34.5t-46.5 -98.5h270q1 3 1 15q0 52 -34.5 85t-91.5 33zM161 259q0 -74 43.5 -118.5t113.5 -44.5t114 44.5t44 118.5t-44 119.5t-114 45.5t-113.5 -45t-43.5 -120z" />
    <glyph glyph-name="Racute" unicode="&#x154;" horiz-adv-x="714" 
d="M344 899h118l-99 -130h-93zM667 461q0 -74 -40.5 -134t-113.5 -87l143 -240h-150l-124 222h-162v-222h-135v700h318q123 0 194 -71q70 -70 70 -168zM381 595h-161v-268h161q65 0 104.5 38t39.5 96t-39 96t-105 38z" />
    <glyph glyph-name="racute" unicode="&#x155;" horiz-adv-x="396" 
d="M229 765h118l-102 -168h-94zM330 528q22 0 48 -8l-2 -105q-24 6 -49 6q-63 0 -97.5 -52.5t-34.5 -141.5v-227h-127v520h105l11 -118q18 56 56.5 91t89.5 35z" />
    <glyph glyph-name="uni0156" unicode="&#x156;" horiz-adv-x="714" 
d="M667 461q0 -74 -40.5 -134t-113.5 -87l143 -240h-150l-124 222h-162v-222h-135v700h318q123 0 194 -71q70 -70 70 -168zM381 595h-161v-268h161q65 0 104.5 38t39.5 96t-39 96t-105 38zM368 -241h-78l22 167h90z" />
    <glyph glyph-name="uni0157" unicode="&#x157;" horiz-adv-x="396" 
d="M330 528q22 0 48 -8l-2 -105q-24 6 -49 6q-63 0 -97.5 -52.5t-34.5 -141.5v-227h-127v520h105l11 -118q18 56 56.5 91t89.5 35zM140 -241h-78l22 167h90z" />
    <glyph glyph-name="Rcaron" unicode="&#x158;" horiz-adv-x="714" 
d="M506 895l-128 -130h-131l-128 130h109l85 -89l85 89h108zM667 461q0 -74 -40.5 -134t-113.5 -87l143 -240h-150l-124 222h-162v-222h-135v700h318q123 0 194 -71q70 -70 70 -168zM381 595h-161v-268h161q65 0 104.5 38t39.5 96t-39 96t-105 38z" />
    <glyph glyph-name="rcaron" unicode="&#x159;" horiz-adv-x="396" 
d="M390 772l-148 -175h-70l-148 175h104l81 -102l77 102h104zM173 520l11 -118q18 56 56.5 91t89.5 35q22 0 48 -8l-2 -105q-24 6 -49 6q-63 0 -97.5 -52.5t-34.5 -141.5v-227h-127v520h105z" />
    <glyph glyph-name="Sacute" unicode="&#x15a;" horiz-adv-x="630" 
d="M364 769h-93l74 130h118zM321 -7q-172 0 -285 122l78 87q96 -106 206 -106q56 0 88 24.5t32 68.5q0 25 -16 49q-12 19 -42 31q-16 10 -58 20l-33 9l-31 8q-196 52 -196 207q0 103 72 150q73 47 186 47q141 0 250 -85l-64 -91q-97 76 -184 76q-54 0 -85.5 -22.5
t-31.5 -66.5q0 -47 33 -69q35 -22 112 -44l52 -16q63 -20 91 -40q48 -27 66 -60q24 -44 24 -96q0 -104 -74 -154q-73 -49 -190 -49z" />
    <glyph glyph-name="sacute" unicode="&#x15b;" horiz-adv-x="526" 
d="M315 597h-94l78 168h118zM271 -9q-160 0 -243 113l87 69q14 -21 32 -43q16 -18 49.5 -32.5t72.5 -14.5q87 0 87 61q0 31 -29 43q-15 7 -29 10q-18 5 -84 21q-74 21 -114.5 62t-40.5 99q0 80 58 114q59 36 147 36q64 0 123.5 -22t95.5 -61l-70 -77q-63 69 -140 69
q-82 0 -82 -55q0 -29 21 -43t78 -30q2 0 5 -1t4 -1q95 -27 128 -48q61 -39 61 -111q0 -79 -63 -119q-61 -39 -154 -39z" />
    <glyph glyph-name="Scircumflex" unicode="&#x15c;" horiz-adv-x="630" 
d="M391 773l-77 74l-81 -74h-104l158 137h50l158 -137h-104zM352 408l52 -16q63 -20 91 -40q48 -27 66 -60q24 -44 24 -96q0 -104 -74 -154q-73 -49 -190 -49q-172 0 -285 122l78 87q96 -106 206 -106q56 0 88 24.5t32 68.5q0 25 -16 49q-12 19 -42 31q-16 10 -58 20l-33 9
l-31 8q-196 52 -196 207q0 103 72 150q73 47 186 47q141 0 250 -85l-64 -91q-97 76 -184 76q-54 0 -85.5 -22.5t-31.5 -66.5q0 -47 33 -69q35 -22 112 -44z" />
    <glyph glyph-name="scircumflex" unicode="&#x15d;" horiz-adv-x="526" 
d="M351 597l-77 99l-81 -99h-104l151 175h63l152 -175h-104zM299 308q95 -27 128 -48q61 -39 61 -111q0 -79 -63 -119q-61 -39 -154 -39q-160 0 -243 113l87 69q14 -21 32 -43q16 -18 49.5 -32.5t72.5 -14.5q87 0 87 61q0 31 -29 43q-15 7 -29 10q-18 5 -84 21
q-74 21 -114.5 62t-40.5 99q0 80 58 114q59 36 147 36q64 0 123.5 -22t95.5 -61l-70 -77q-63 69 -140 69q-82 0 -82 -55q0 -29 21 -43t78 -30q2 0 5 -1t4 -1z" />
    <glyph glyph-name="Scedilla" unicode="&#x15e;" horiz-adv-x="630" 
d="M585 196q0 -102 -70 -151q-68 -49 -180 -52l-12 -41q120 4 120 -90q0 -45 -38.5 -68t-99.5 -23q-64 0 -103 12l5 59q39 -15 83 -15q71 0 71 42q0 30 -26 40.5t-84 9.5l22 76q-138 13 -237 120l78 87q96 -106 206 -106q56 0 88 24.5t32 68.5q0 25 -16 49q-12 19 -42 31
q-16 10 -58 20l-33 9l-31 8q-196 52 -196 207q0 103 72 150q73 47 186 47q141 0 250 -85l-64 -91q-97 76 -184 76q-54 0 -85.5 -22.5t-31.5 -66.5q0 -47 33 -69q35 -22 112 -44l52 -16q63 -20 91 -40q48 -27 66 -60q24 -44 24 -96z" />
    <glyph glyph-name="scedilla" unicode="&#x15f;" horiz-adv-x="526" 
d="M488 149q0 -77 -58 -116q-59 -39 -146 -42l-11 -39q120 4 120 -90q0 -45 -38.5 -68t-99.5 -23q-64 0 -103 12l5 59q39 -15 83 -15q71 0 71 42q0 30 -26 40.5t-84 9.5l22 75q-124 13 -195 110l87 69q14 -21 32 -43q16 -18 49.5 -32.5t72.5 -14.5q87 0 87 61q0 31 -29 43
q-15 7 -29 10q-18 5 -84 21q-74 21 -114.5 62t-40.5 99q0 80 58 114q59 36 147 36q64 0 123.5 -22t95.5 -61l-70 -77q-63 69 -140 69q-82 0 -82 -55q0 -29 21 -43t78 -30q2 0 5 -1t4 -1q95 -27 128 -48q61 -39 61 -111z" />
    <glyph glyph-name="Scaron" unicode="&#x160;" horiz-adv-x="630" 
d="M507 895l-128 -130h-131l-128 130h109l85 -89l85 89h108zM352 408l52 -16q63 -20 91 -40q48 -27 66 -60q24 -44 24 -96q0 -104 -74 -154q-73 -49 -190 -49q-172 0 -285 122l78 87q96 -106 206 -106q56 0 88 24.5t32 68.5q0 25 -16 49q-12 19 -42 31q-16 10 -58 20l-33 9
l-31 8q-196 52 -196 207q0 103 72 150q73 47 186 47q141 0 250 -85l-64 -91q-97 76 -184 76q-54 0 -85.5 -22.5t-31.5 -66.5q0 -47 33 -69q35 -22 112 -44z" />
    <glyph glyph-name="scaron" unicode="&#x161;" horiz-adv-x="526" 
d="M461 772l-148 -175h-70l-148 175h104l81 -102l77 102h104zM299 308q95 -27 128 -48q61 -39 61 -111q0 -79 -63 -119q-61 -39 -154 -39q-160 0 -243 113l87 69q14 -21 32 -43q16 -18 49.5 -32.5t72.5 -14.5q87 0 87 61q0 31 -29 43q-15 7 -29 10q-18 5 -84 21
q-74 21 -114.5 62t-40.5 99q0 80 58 114q59 36 147 36q64 0 123.5 -22t95.5 -61l-70 -77q-63 69 -140 69q-82 0 -82 -55q0 -29 21 -43t78 -30q2 0 5 -1t4 -1z" />
    <glyph glyph-name="uni0162" unicode="&#x162;" horiz-adv-x="639" 
d="M387 0h-135v595h-229v105h593v-105h-229v-595zM333 -241h-78l22 167h90z" />
    <glyph glyph-name="uni0163" unicode="&#x163;" horiz-adv-x="460" 
d="M298 -9q-81 0 -125 46t-44 132v254h-119v97h48q44 0 63 22t19 66v79h115v-167h174v-97h-174v-242q0 -88 74 -88q45 0 98 9l3 -101q-46 -10 -132 -10zM282 -241h-78l22 167h90z" />
    <glyph glyph-name="Tcaron" unicode="&#x164;" horiz-adv-x="639" 
d="M513 895l-128 -130h-131l-128 130h109l85 -89l85 89h108zM23 595v105h593v-105h-229v-595h-135v595h-229z" />
    <glyph glyph-name="tcaron" unicode="&#x165;" horiz-adv-x="432" 
d="M395 596h-69l-1 159h93zM271 -9q-82 0 -123.5 41.5t-41.5 136.5v261h-96v90h100l15 150h107v-150h171v-90h-171v-250q0 -52 19 -73t62 -21q32 0 90 23l4 -100q-49 -18 -136 -18z" />
    <glyph glyph-name="Tbar" unicode="&#x166;" horiz-adv-x="639" 
d="M616 700v-105h-229v-215h144v-58h-144v-322h-135v322h-143v58h143v215h-229v105h593z" />
    <glyph glyph-name="tbar" unicode="&#x167;" horiz-adv-x="460" 
d="M427 102l3 -101q-46 -10 -132 -10q-81 0 -125 46t-44 132v130h-116v45h116v79h-119v97h48q44 0 63 22t19 66v79h115v-167h174v-97h-174v-79h174v-45h-174v-118q0 -88 74 -88q45 0 98 9z" />
    <glyph glyph-name="Utilde" unicode="&#x168;" horiz-adv-x="740" 
d="M443 789q-31 0 -80 23q-2 0 -17 8t-19 9q-18 9 -37 9q-45 0 -50 -41l-45 2q5 61 33 91t73 30q37 0 81 -24q2 -1 8.5 -4.5t15 -7.5t10.5 -5q20 -9 39 -9q21 0 34.5 11.5t15.5 29.5l45 -2q-8 -120 -107 -120zM370 -11q-137 0 -216 76q-78 77 -78 208v427h135v-422
q0 -85 44 -133t116 -48q71 0 114.5 48t43.5 133v422h135v-427q0 -134 -81 -209q-79 -75 -213 -75z" />
    <glyph glyph-name="utilde" unicode="&#x169;" horiz-adv-x="584" 
d="M363 609q-31 0 -80 23q-2 0 -17 7.5l-19 9.5q-18 9 -37 9q-45 0 -50 -41l-45 2q5 61 33 91t73 30q37 0 81 -24q2 -1 8.5 -4.5t15 -7.5t10.5 -5q20 -9 39 -9q21 0 34.5 11.5t15.5 29.5l45 -2q-8 -120 -107 -120zM293 -9q-116 0 -177 60t-61 169v300h127v-309
q0 -56 29.5 -89t81.5 -33t81 32.5t29 89.5v309h126v-300q0 -109 -60.5 -169t-175.5 -60z" />
    <glyph glyph-name="Umacron" unicode="&#x16a;" horiz-adv-x="740" 
d="M529 797h-317v73h317v-73zM370 -11q-137 0 -216 76q-78 77 -78 208v427h135v-422q0 -85 44 -133t116 -48q71 0 114.5 48t43.5 133v422h135v-427q0 -134 -81 -209q-79 -75 -213 -75z" />
    <glyph glyph-name="umacron" unicode="&#x16b;" horiz-adv-x="584" 
d="M449 617h-317v73h317v-73zM293 -9q-116 0 -177 60t-61 169v300h127v-309q0 -56 29.5 -89t81.5 -33t81 32.5t29 89.5v309h126v-300q0 -109 -60.5 -169t-175.5 -60z" />
    <glyph glyph-name="Ubreve" unicode="&#x16c;" horiz-adv-x="740" 
d="M370 771q-155 0 -164 131h74q8 -72 90 -72q83 0 91 72h74q-9 -131 -165 -131zM370 -11q-137 0 -216 76q-78 77 -78 208v427h135v-422q0 -85 44 -133t116 -48q71 0 114.5 48t43.5 133v422h135v-427q0 -134 -81 -209q-79 -75 -213 -75z" />
    <glyph glyph-name="ubreve" unicode="&#x16d;" horiz-adv-x="584" 
d="M117 758h80q3 -92 93 -92t93 92h80q-6 -158 -173 -158t-173 158zM293 -9q-116 0 -177 60t-61 169v300h127v-309q0 -56 29.5 -89t81.5 -33t81 32.5t29 89.5v309h126v-300q0 -109 -60.5 -169t-175.5 -60z" />
    <glyph glyph-name="Uring" unicode="&#x16e;" horiz-adv-x="740" 
d="M370 773q-53 0 -88 30.5t-35 80.5q0 51 35 81t88 30t88 -30t35 -81t-35 -81t-88 -30zM328 840q16 -15 42 -15t42 15q17 16 17 44t-17 44q-16 16 -42 16t-42 -16t-16 -44t16 -44zM370 -11q-137 0 -216 76q-78 77 -78 208v427h135v-422q0 -85 44 -133t116 -48
q71 0 114.5 48t43.5 133v422h135v-427q0 -134 -81 -209q-79 -75 -213 -75z" />
    <glyph glyph-name="uring" unicode="&#x16f;" horiz-adv-x="584" 
d="M290 593q-53 0 -88 30.5t-35 80.5q0 51 35 81t88 30t88 -30t35 -81t-35 -81t-88 -30zM248 660q16 -15 42 -15t42 15q17 16 17 44t-17 44q-16 16 -42 16t-42 -16t-16 -44t16 -44zM293 -9q-116 0 -177 60t-61 169v300h127v-309q0 -56 29.5 -89t81.5 -33t81 32.5t29 89.5
v309h126v-300q0 -109 -60.5 -169t-175.5 -60z" />
    <glyph glyph-name="Uhungarumlaut" unicode="&#x170;" horiz-adv-x="740" 
d="M315 769h-93l77 129h119zM491 769h-93l77 129h118zM370 -11q-137 0 -216 76q-78 77 -78 208v427h135v-422q0 -85 44 -133t116 -48q71 0 114.5 48t43.5 133v422h135v-427q0 -134 -81 -209q-79 -75 -213 -75z" />
    <glyph glyph-name="uhungarumlaut" unicode="&#x171;" horiz-adv-x="584" 
d="M235 597h-93l71 168h118zM411 597h-93l71 168h118zM293 -9q-116 0 -177 60t-61 169v300h127v-309q0 -56 29.5 -89t81.5 -33t81 32.5t29 89.5v309h126v-300q0 -109 -60.5 -169t-175.5 -60z" />
    <glyph glyph-name="Uogonek" unicode="&#x172;" horiz-adv-x="740" 
d="M529 278v422h135v-427q0 -111 -56.5 -183t-156.5 -93q-49 -16 -49 -53t50 -37q21 0 72 9l1 -78q-37 -10 -86 -10q-113 0 -113 89q0 47 30 72q-132 5 -206 80q-74 77 -74 204v427h135v-422q0 -85 44 -133t116 -48q71 0 114.5 48t43.5 133z" />
    <glyph glyph-name="uogonek" unicode="&#x173;" horiz-adv-x="619" 
d="M403 211v309h126v-300q0 -98 -49 -156.5t-143 -69.5q-58 -16 -58 -55q0 -38 50 -38q24 0 72 9l2 -78q-39 -10 -86 -10q-114 0 -114 89q0 55 43 83q-94 12 -142.5 70.5t-48.5 155.5v300h127v-309q0 -56 29.5 -89t81.5 -33t81 32.5t29 89.5z" />
    <glyph glyph-name="Wcircumflex" unicode="&#x174;" horiz-adv-x="1044" 
d="M600 773l-77 74l-81 -74h-104l158 137h50l158 -137h-104zM752 138l153 562h124l-194 -700h-182l-131 509h-4l-127 -509h-182l-194 700h138l155 -562h4l139 562h151l145 -562h5z" />
    <glyph glyph-name="wcircumflex" unicode="&#x175;" horiz-adv-x="837" 
d="M501 594l-77 99l-81 -99h-104l151 175h63l152 -175h-104zM649 288l62 232h116l-146 -525h-159l-52 190l-44 177l-47 -177l-54 -190h-161l-142 525h122l61 -234l44 -175l47 177l62 236h141l60 -234l44 -183z" />
    <glyph glyph-name="Ycircumflex" unicode="&#x176;" horiz-adv-x="695" 
d="M425 773l-77 74l-81 -74h-104l158 137h50l158 -137h-104zM542 700h136l-262 -436l-2 -264h-135l1 262l-263 438h141l191 -326z" />
    <glyph glyph-name="ycircumflex" unicode="&#x177;" horiz-adv-x="571" 
d="M375 597l-77 99l-81 -99h-104l151 175h63l152 -175h-104zM359 314l76 206h124l-270 -690h-127l65 162l-215 528h135l80 -206q37 -93 67 -184h3z" />
    <glyph glyph-name="Ydieresis" unicode="&#x178;" horiz-adv-x="695" 
d="M161 858q0 32 21.5 52.5t53.5 20.5q31 0 52.5 -20.5t21.5 -52.5q0 -31 -21.5 -52t-53.5 -21t-53 21t-21 52zM388 858q0 32 21.5 52.5t53.5 20.5t53 -20.5t21 -52.5q0 -31 -21 -52t-53 -21t-53.5 21t-21.5 52zM542 700h136l-262 -436l-2 -264h-135l1 262l-263 438h141
l191 -326z" />
    <glyph glyph-name="Zacute" unicode="&#x179;" horiz-adv-x="627" 
d="M342 899h118l-99 -130h-93zM50 700h535v-87l-387 -511l189 3h198v-105h-552v88l386 510l-192 -3h-177v105z" />
    <glyph glyph-name="zacute" unicode="&#x17a;" horiz-adv-x="522" 
d="M284 765h118l-102 -168h-94zM189 97h300v-97h-457v81l294 343l-288 -1v97h446v-81z" />
    <glyph glyph-name="Zdotaccent" unicode="&#x17b;" horiz-adv-x="627" 
d="M239 857q0 31 22 52.5t54 21.5q30 0 52 -21.5t22 -52.5q0 -30 -22 -51t-53 -21t-53 21t-22 51zM50 700h535v-87l-387 -511l189 3h198v-105h-552v88l386 510l-192 -3h-177v105z" />
    <glyph glyph-name="zdotaccent" unicode="&#x17c;" horiz-adv-x="522" 
d="M184 677q0 32 21.5 53t53.5 21t53.5 -21t21.5 -53q0 -31 -21.5 -51.5t-53.5 -20.5t-53.5 20.5t-21.5 51.5zM189 97h300v-97h-457v81l294 343l-288 -1v97h446v-81z" />
    <glyph glyph-name="Zcaron" unicode="&#x17d;" horiz-adv-x="627" 
d="M504 895l-128 -130h-131l-128 130h109l85 -89l85 89h108zM50 700h535v-87l-387 -511l189 3h198v-105h-552v88l386 510l-192 -3h-177v105z" />
    <glyph glyph-name="zcaron" unicode="&#x17e;" horiz-adv-x="522" 
d="M446 772l-148 -175h-70l-148 175h104l81 -102l77 102h104zM189 97h300v-97h-457v81l294 343l-288 -1v97h446v-81z" />
    <glyph glyph-name="uni01F4" unicode="&#x1f4;" horiz-adv-x="800" 
d="M448 899h118l-99 -130h-93zM430 285v88h312v-260q-60 -59 -140.5 -91.5t-166.5 -32.5q-169 0 -276 94q-108 95 -108 266q0 167 108 264q110 98 286 98q172 0 285 -104l-79 -93q-74 83 -205 83q-119 0 -186 -66.5t-67 -178.5q0 -114 66 -182q67 -67 174 -67q108 0 180 60
v122h-183z" />
    <glyph glyph-name="uni01F5" unicode="&#x1f5;" horiz-adv-x="663" 
d="M354 765h118l-102 -168h-94zM481 443l10 77h107v-422q0 -76 -24.5 -131.5t-69 -86.5t-99 -45.5t-121.5 -14.5q-142 0 -236 74l45 89q39 -33 90.5 -52t99.5 -19q87 0 136 38t49 113v50q-21 -45 -71 -70t-112 -25q-49 0 -91.5 12.5t-80.5 40t-60 78.5t-22 121
q0 69 21.5 120.5t59 81t81 43.5t92.5 14q67 0 119 -23.5t77 -62.5zM318 118q71 0 113 42t42 113q0 70 -42 112t-114 42t-114.5 -42t-42.5 -112q0 -71 42.5 -113t115.5 -42z" />
    <glyph glyph-name="AEacute" unicode="&#x1fc;" horiz-adv-x="1003" 
d="M698 899h118l-99 -130h-93zM592 291v-190h364v-101h-493v179h-241l-100 -179h-134l389 700h569v-101h-354v-207h303v-101h-303zM278 281h185v318h-8z" />
    <glyph glyph-name="aeacute" unicode="&#x1fd;" horiz-adv-x="986" 
d="M556 597h-94l78 168h118zM232 -9q-95 0 -148 40t-53 117q0 161 236 161q74 0 134 -10q0 36 -1 46q-4 91 -130 91q-100 0 -197 -39l-6 103q108 29 226 29q80 0 126.5 -23.5t66.5 -77.5q71 101 223 101q120 0 181 -67q62 -68 62 -174q0 -26 -5 -68h-380q6 -70 52 -106
t122 -36q87 0 182 43l5 -94q-92 -36 -203 -36q-188 0 -255 124q-67 -124 -238 -124zM566 301h255q7 62 -25 101.5t-90 39.5q-128 0 -140 -141zM256 79q57 0 101 35q43 34 43 87l1 28q-48 7 -107 7q-134 0 -134 -81q0 -38 26 -57t70 -19z" />
    <glyph glyph-name="Oslashacute" unicode="&#x1fe;" horiz-adv-x="860" 
d="M461 899h118l-99 -130h-93zM701 731l-51 -78q76 -47 117.5 -126.5t41.5 -177.5q0 -158 -104 -259t-275 -101q-106 0 -187 40l-41 -64h-79l64 98q-65 48 -100.5 122t-35.5 164q0 159 104 260q103 102 275 102q88 0 160 -28l32 48h79zM190 349q0 -111 68 -177l265 406
q-39 16 -93 16q-105 0 -173 -68q-67 -67 -67 -177zM430 106q106 0 174 66q67 67 67 177q0 129 -90 198l-270 -414q53 -27 119 -27z" />
    <glyph glyph-name="oslashacute" unicode="&#x1ff;" horiz-adv-x="635" 
d="M321 765h118l-103 -168h-94zM540 554l-48 -73q112 -73 112 -222q0 -121 -79 -194q-80 -74 -207 -74q-68 0 -130 24l-32 -49h-62l48 74q-111 74 -111 219q0 123 79 196q80 74 208 74q72 0 128 -24l32 49h62zM207 138l178 273q-27 13 -67 13q-70 0 -114 -45
q-43 -44 -43 -120q0 -75 46 -121zM318 96q70 0 114 44.5t44 118.5q0 77 -48 124l-178 -274q30 -13 68 -13z" />
    <glyph glyph-name="uni0218" unicode="&#x218;" horiz-adv-x="630" 
d="M321 -7q-172 0 -285 122l78 87q96 -106 206 -106q56 0 88 24.5t32 68.5q0 25 -16 49q-12 19 -42 31q-16 10 -58 20l-33 9l-31 8q-196 52 -196 207q0 103 72 150q73 47 186 47q141 0 250 -85l-64 -91q-97 76 -184 76q-54 0 -85.5 -22.5t-31.5 -66.5q0 -47 33 -69
q35 -22 112 -44l52 -16q63 -20 91 -40q48 -27 66 -60q24 -44 24 -96q0 -104 -74 -154q-73 -49 -190 -49zM328 -241h-78l22 167h90z" />
    <glyph glyph-name="uni0219" unicode="&#x219;" horiz-adv-x="526" 
d="M271 -9q-160 0 -243 113l87 69q14 -21 32 -43q16 -18 49.5 -32.5t72.5 -14.5q87 0 87 61q0 31 -29 43q-15 7 -29 10q-18 5 -84 21q-74 21 -114.5 62t-40.5 99q0 80 58 114q59 36 147 36q64 0 123.5 -22t95.5 -61l-70 -77q-63 69 -140 69q-82 0 -82 -55q0 -29 21 -43
t78 -30q2 0 5 -1t4 -1q95 -27 128 -48q61 -39 61 -111q0 -79 -63 -119q-61 -39 -154 -39zM277 -241h-78l22 167h90z" />
    <glyph glyph-name="uni021A" unicode="&#x21a;" horiz-adv-x="639" 
d="M387 0h-135v595h-229v105h593v-105h-229v-595zM333 -241h-78l22 167h90z" />
    <glyph glyph-name="uni021B" unicode="&#x21b;" horiz-adv-x="460" 
d="M298 -9q-81 0 -125 46t-44 132v254h-119v97h48q44 0 63 22t19 66v79h115v-167h174v-97h-174v-242q0 -88 74 -88q45 0 98 9l3 -101q-46 -10 -132 -10zM282 -241h-78l22 167h90z" />
    <glyph glyph-name="uni0237" unicode="&#x237;" horiz-adv-x="299" 
d="M71 -179q-51 0 -95 11l3 91q35 -12 66 -12q72 0 72 77v532h127v-536q0 -163 -173 -163z" />
    <glyph glyph-name="circumflex" unicode="&#x2c6;" horiz-adv-x="523" 
d="M293 772l152 -175h-104l-77 99l-81 -99h-104l151 175h63z" />
    <glyph glyph-name="caron" unicode="&#x2c7;" horiz-adv-x="523" 
d="M264 670l77 102h104l-148 -175h-70l-148 175h104z" />
    <glyph glyph-name="breve" unicode="&#x2d8;" horiz-adv-x="472" 
d="M63 758h80q3 -92 93 -92t93 92h80q-6 -158 -173 -158t-173 158z" />
    <glyph glyph-name="dotaccent" unicode="&#x2d9;" horiz-adv-x="303" 
d="M77 677q0 32 21.5 53t53.5 21t53.5 -21t21.5 -53q0 -31 -21.5 -51.5t-53.5 -20.5t-53.5 20.5t-21.5 51.5z" />
    <glyph glyph-name="ring" unicode="&#x2da;" horiz-adv-x="379" 
d="M191 593q-53 0 -88 30.5t-35 80.5q0 51 35 81t88 30t88 -30t35 -81t-35 -81t-88 -30zM149 660q16 -15 42 -15t42 15q17 16 17 44t-17 44q-16 16 -42 16t-42 -16t-16 -44t16 -44z" />
    <glyph glyph-name="ogonek" unicode="&#x2db;" horiz-adv-x="344" 
d="M191 -178q-113 0 -113 89q0 62 50 87q39 20 103 27l16 -25q-93 -10 -93 -61q0 -38 50 -38q21 0 72 9l1 -78q-37 -10 -86 -10z" />
    <glyph glyph-name="tilde" unicode="&#x2dc;" horiz-adv-x="508" 
d="M325 609q-31 0 -80 23q-2 0 -17 7.5l-19 9.5q-18 9 -37 9q-45 0 -50 -41l-45 2q5 61 33 91t73 30q37 0 81 -24q2 -1 8.5 -4.5t15 -7.5t10.5 -5q20 -9 39 -9q21 0 34.5 11.5t15.5 29.5l45 -2q-8 -120 -107 -120z" />
    <glyph glyph-name="hungarumlaut" unicode="&#x2dd;" horiz-adv-x="551" 
d="M188 597h-93l71 168h118zM364 597h-93l71 168h118z" />
    <glyph glyph-name="gravecomb" unicode="&#x300;" horiz-adv-x="0" 
d="M-240 597h-94l-95 168h118z" />
    <glyph glyph-name="uni0326" unicode="&#x326;" horiz-adv-x="0" 
d="M-128 -241h-75l12 48q0 4 3.5 26.5t5.5 46.5t2 46h84q0 -54 -11 -100l-6 -23q-1 -3 -5 -13.5t-7 -19.5t-3 -11z" />
    <glyph glyph-name="uni03BC" unicode="&#x3bc;" horiz-adv-x="646" 
d="M189 -171h-126v691h129l-1 -316q0 -115 91 -115q64 0 96 48q33 49 33 116v267h127v-391q0 -40 36 -40q20 0 56 10v-98q-40 -9 -101 -9q-91 0 -104 73q-2 8 -7 48q-59 -122 -176 -122q-36 0 -52 22z" />
    <glyph glyph-name="uni0400" unicode="&#x400;" horiz-adv-x="650" 
d="M393 769h-93l-91 130h115zM603 0h-518v700h509v-105h-374v-200h323v-105h-323v-185h383v-105z" />
    <glyph glyph-name="uni0401" unicode="&#x401;" horiz-adv-x="650" 
d="M149 858q0 32 21.5 52.5t53.5 20.5q31 0 52.5 -20.5t21.5 -52.5q0 -31 -21.5 -52t-53.5 -21t-53 21t-21 52zM376 858q0 32 21.5 52.5t53.5 20.5t53 -20.5t21 -52.5q0 -31 -21 -52t-53 -21t-53.5 21t-21.5 52zM603 0h-518v700h509v-105h-374v-200h323v-105h-323v-185h383
v-105z" />
    <glyph glyph-name="uni0402" unicode="&#x402;" horiz-adv-x="873" 
d="M570 434q119 0 187.5 -57.5t68.5 -164.5q0 -100 -61 -159t-170 -59q-65 0 -122 16l7 91q60 -19 98 -19q63 0 97 33.5t34 96.5q0 130 -161 130q-80 0 -161 -34v-308h-129v602h-231v98h610v-98h-250v-198q90 30 183 30z" />
    <glyph glyph-name="uni0403" unicode="&#x403;" horiz-adv-x="602" 
d="M388 769h-93l73 130h119zM219 0h-135v700h484v-105h-349v-595z" />
    <glyph glyph-name="uni0404" unicode="&#x404;" horiz-adv-x="746" 
d="M637 208l90 -85q-120 -131 -293 -131q-175 0 -282 98q-106 97 -106 261q0 161 104 260t279 99q96 0 165.5 -30.5t130.5 -95.5l-95 -83q-78 95 -199 95q-99 0 -164.5 -54t-79.5 -145h321v-103h-319q16 -85 82 -137q65 -51 158 -51q121 0 208 102z" />
    <glyph glyph-name="uni0405" unicode="&#x405;" horiz-adv-x="630" 
d="M321 -7q-172 0 -285 122l78 87q96 -106 206 -106q56 0 88 24.5t32 68.5q0 25 -16 49q-12 19 -42 31q-16 10 -58 20l-33 9l-31 8q-196 52 -196 207q0 103 72 150q73 47 186 47q141 0 250 -85l-64 -91q-97 76 -184 76q-54 0 -85.5 -22.5t-31.5 -66.5q0 -47 33 -69
q35 -22 112 -44l52 -16q63 -20 91 -40q48 -27 66 -60q24 -44 24 -96q0 -104 -74 -154q-73 -49 -190 -49z" />
    <glyph glyph-name="uni0406" unicode="&#x406;" horiz-adv-x="306" 
d="M221 0h-136v700h136v-700z" />
    <glyph glyph-name="uni0407" unicode="&#x407;" horiz-adv-x="306" 
d="M-33 858q0 32 21.5 52.5t53.5 20.5q31 0 52.5 -20.5t21.5 -52.5q0 -31 -21.5 -52t-53.5 -21t-53 21t-21 52zM194 858q0 32 21.5 52.5t53.5 20.5t53 -20.5t21 -52.5q0 -31 -21 -52t-53 -21t-53.5 21t-21.5 52zM221 0h-136v700h136v-700z" />
    <glyph glyph-name="uni0408" unicode="&#x408;" horiz-adv-x="419" 
d="M121 -11q-58 0 -96 13v113q44 -14 91 -14q43 0 67.5 24t24.5 71v504h135v-504q0 -102 -59 -154.5t-163 -52.5z" />
    <glyph glyph-name="uni0409" unicode="&#x409;" horiz-adv-x="1193" 
d="M120 -4q-48 0 -88 6l2 103q27 -5 43 -5q73 0 99 78q26 80 30 268q1 21 1 68q0 54 -1 90v96h516v-243h164q126 0 200 -61q75 -62 75 -165t-78 -168q-77 -63 -196 -63h-301v595h-247q0 -108 -2 -174q-7 -226 -55 -327q-47 -98 -162 -98zM722 357v-258h146q75 0 114.5 36
t39.5 95t-39.5 93t-114.5 34h-146z" />
    <glyph glyph-name="uni040A" unicode="&#x40a;" horiz-adv-x="1145" 
d="M220 0h-135v700h135v-262h317v262h136v-269h165q127 0 201 -56t74 -157t-77 -160q-76 -58 -198 -58h-301v324h-317v-324zM673 331v-232h146q155 0 155 118q0 114 -155 114h-146z" />
    <glyph glyph-name="uni040B" unicode="&#x40b;" horiz-adv-x="868" 
d="M590 466q109 0 170.5 -55t61.5 -166v-245h-132v228q0 138 -143 138q-41 0 -80 -15q-54 -21 -87 -56v-295h-135v595h-229v105h613v-105h-249v-199q83 70 210 70z" />
    <glyph glyph-name="uni040C" unicode="&#x40c;" horiz-adv-x="668" 
d="M383 899h119l-99 -130h-94zM657 700l-250 -346l256 -354h-155l-204 287h-97v-287h-130v700h130v-297l95 1l212 296h143z" />
    <glyph glyph-name="uni040D" unicode="&#x40d;" horiz-adv-x="802" 
d="M395 899l69 -130h-93l-91 130h115zM212 187l368 513h124l-1 -700h-128v278q0 84 5 234l-364 -512h-124v700h129v-275q0 -118 -9 -238z" />
    <glyph glyph-name="uni040E" unicode="&#x40e;" horiz-adv-x="684" 
d="M350 771q-155 0 -164 131h74q8 -72 90 -72q83 0 91 72h74q-9 -131 -165 -131zM379 311l164 389h131l-306 -700h-140l83 180l-275 520h143z" />
    <glyph glyph-name="uni040F" unicode="&#x40f;" horiz-adv-x="767" 
d="M432 -170h-97l-4 170h-247v700h135v-595h329v595h135v-700h-246z" />
    <glyph glyph-name="uni0410" unicode="&#x410;" horiz-adv-x="780" 
d="M756 0h-142l-63 163h-329l-63 -163h-135l280 704h172zM386 591l-124 -322h249l-124 322h-1z" />
    <glyph glyph-name="uni0411" unicode="&#x411;" horiz-adv-x="711" 
d="M403 0h-318v700h526v-105h-390v-177h177q130 0 200.5 -52.5t70.5 -152.5q0 -102 -71.5 -157.5t-194.5 -55.5zM221 319v-220h170q65 0 100.5 29.5t35.5 81.5t-36 80.5t-102 28.5h-168z" />
    <glyph glyph-name="uni0412" unicode="&#x412;" horiz-adv-x="716" 
d="M529 359q54 -8 97 -51q44 -44 44 -117q0 -91 -65 -141t-166 -50h-354v700h326q112 0 172.5 -47t60.5 -134q0 -115 -115 -160zM396 601h-175v-198h178q48 0 76.5 26.5t28.5 71.5t-30 72.5t-78 27.5zM221 99h193q50 0 82 29t32 76q0 46 -30.5 75.5t-83.5 29.5h-193v-210z
" />
    <glyph glyph-name="uni0413" unicode="&#x413;" horiz-adv-x="583" 
d="M219 0h-135v700h484v-105h-349v-595z" />
    <glyph glyph-name="uni0414" unicode="&#x414;" horiz-adv-x="842" 
d="M707 700v-597h100v-263h-107l-6 160h-552l-7 -160h-106v263h95q11 11 26 63q11 34 23 101q11 59 18 174q8 123 8 259h508zM262 103h312v496h-250q0 -227 -22 -353q-18 -104 -34 -132z" />
    <glyph glyph-name="uni0415" unicode="&#x415;" horiz-adv-x="650" 
d="M603 0h-518v700h509v-105h-374v-200h323v-105h-323v-185h383v-105z" />
    <glyph glyph-name="uni0416" unicode="&#x416;" horiz-adv-x="1026" 
d="M172 0h-164l245 354l-237 346h149l201 -300h80v300h134v-300h81l201 300h150l-239 -346l245 -354h-162l-193 291h-83v-291h-134v291h-82z" />
    <glyph glyph-name="uni0417" unicode="&#x417;" horiz-adv-x="672" 
d="M463 359q74 -13 114.5 -58t40.5 -112q0 -95 -77 -146.5t-209 -51.5q-166 0 -288 101l67 93q101 -89 213 -89q69 0 112 28.5t43 81.5q0 101 -156 101h-139v95h126q71 0 112 25.5t41 77.5q0 49 -36 73.5t-99 24.5q-105 0 -212 -86l-68 92q133 102 283 102q128 0 198.5 -49
t70.5 -136q1 -57 -33.5 -100.5t-103.5 -66.5z" />
    <glyph glyph-name="uni0418" unicode="&#x418;" horiz-adv-x="802" 
d="M212 187l368 513h124l-1 -700h-128v278q0 84 5 234l-364 -512h-124v700h129v-275q0 -118 -9 -238z" />
    <glyph glyph-name="uni0419" unicode="&#x419;" horiz-adv-x="782" 
d="M235 864h317v-72h-317v72zM206 188l368 512h123l-1 -700h-128v278q0 113 6 236l-365 -514h-124v700h130v-275q0 -93 -9 -237z" />
    <glyph glyph-name="uni041A" unicode="&#x41a;" horiz-adv-x="679" 
d="M664 700l-250 -346l257 -354h-156l-204 287h-97v-287h-129v700h129v-297l95 1l213 296h142z" />
    <glyph glyph-name="uni041B" unicode="&#x41b;" horiz-adv-x="806" 
d="M120 -4q-48 0 -88 6l2 103q27 -5 43 -5q73 0 99 78q26 80 30 268q1 21 1 68q0 54 -1 90v96h515v-700h-135v595h-247q0 -113 -3 -177q-8 -228 -54 -325t-162 -97z" />
    <glyph glyph-name="uni041C" unicode="&#x41c;" horiz-adv-x="963" 
d="M216 0h-131v700h142l257 -364l252 364h142v-700h-138v329l10 182h-2l-257 -368h-26l-257 367h-1l9 -181v-329z" />
    <glyph glyph-name="uni041D" unicode="&#x41d;" horiz-adv-x="778" 
d="M221 0h-136v700h136v-297h336v297h136v-700h-136v288h-336v-288z" />
    <glyph glyph-name="uni041E" unicode="&#x41e;" horiz-adv-x="860" 
d="M51 349q0 159 104 260q103 102 275 102t275 -102q104 -101 104 -260q0 -158 -104 -259t-275 -101q-172 0 -276 101q-103 100 -103 259zM430 106q106 0 174 66q67 67 67 177t-67 177q-68 68 -174 68q-105 0 -173 -68q-67 -67 -67 -177t67 -177q67 -66 173 -66z" />
    <glyph glyph-name="uni041F" unicode="&#x41f;" horiz-adv-x="769" 
d="M219 0h-135v700h601v-700h-136l1 595h-330z" />
    <glyph glyph-name="uni0420" unicode="&#x420;" horiz-adv-x="706" 
d="M220 0h-135v700h318q126 0 195 -71t69 -168q0 -99 -69 -169t-194 -70h-184v-222zM220 595v-268h161q67 0 105.5 38t38.5 96q0 59 -38 96.5t-106 37.5h-161z" />
    <glyph glyph-name="uni0421" unicode="&#x421;" horiz-adv-x="751" 
d="M438 -8q-175 0 -282 98q-106 99 -106 261q0 161 104 260q105 99 280 99q96 0 165.5 -30.5t130.5 -95.5l-96 -83q-78 95 -198 95q-112 0 -180 -68t-68 -177q0 -110 68 -178q68 -67 178 -67q122 0 207 102l91 -85q-120 -131 -294 -131z" />
    <glyph glyph-name="uni0422" unicode="&#x422;" horiz-adv-x="639" 
d="M387 0h-135v595h-229v105h593v-105h-229v-595z" />
    <glyph glyph-name="uni0423" unicode="&#x423;" horiz-adv-x="684" 
d="M379 311l164 389h131l-306 -700h-140l83 180l-275 520h143z" />
    <glyph glyph-name="uni0424" unicode="&#x424;" horiz-adv-x="918" 
d="M522 -21h-126v64q-162 4 -257 86q-93 82 -93 221q0 136 93 219q96 84 257 88v63h126v-63q161 -4 256 -87t95 -220q0 -139 -94 -221q-95 -82 -257 -86v-64zM396 144v412q-103 -4 -161 -58t-58 -149t58 -148.5t161 -56.5zM522 556v-412q104 3 162 56.5t58 148.5t-58.5 149
t-161.5 58z" />
    <glyph glyph-name="uni0425" unicode="&#x425;" horiz-adv-x="677" 
d="M421 363l260 -363h-161l-181 259l-178 -259h-151l248 339l-252 361h156l178 -258l180 258h145z" />
    <glyph glyph-name="uni0426" unicode="&#x426;" horiz-adv-x="803" 
d="M773 -170h-110l-4 170h-575v700h136v-593h319v593h136v-595h98v-275z" />
    <glyph glyph-name="uni0427" unicode="&#x427;" horiz-adv-x="727" 
d="M507 384v316h136v-700h-136v287q-34 -30 -90 -51t-123 -21q-106 0 -174 54q-67 54 -67 166v265h136v-248q0 -142 146 -142q43 0 83 15q57 23 89 59z" />
    <glyph glyph-name="uni0428" unicode="&#x428;" horiz-adv-x="1095" 
d="M1009 -2h-924v702h136v-595h258v595h136v-595h258v595h136v-702z" />
    <glyph glyph-name="uni0429" unicode="&#x429;" horiz-adv-x="1134" 
d="M1103 -170h-106l-6 170h-907v700h133v-595h261v595h133v-595h262v595h133v-597h97v-273z" />
    <glyph glyph-name="uni042A" unicode="&#x42a;" horiz-adv-x="800" 
d="M493 0h-301v595h-194v105h330v-243h164q126 0 200 -61q76 -61 76 -165q0 -103 -78 -168q-76 -63 -197 -63zM328 357v-258h146q76 0 115.5 36t39.5 95t-39.5 93t-115.5 34h-146z" />
    <glyph glyph-name="uni042B" unicode="&#x42b;" horiz-adv-x="977" 
d="M386 0h-301v700h136v-243h164q126 0 200 -61q75 -62 75 -165t-78 -168q-76 -63 -196 -63zM892 0h-126v700h126v-700zM221 357v-258h146q76 0 115.5 36t39.5 95t-40 93t-115 34h-146z" />
    <glyph glyph-name="uni042C" unicode="&#x42c;" horiz-adv-x="693" 
d="M386 0h-301v700h136v-243h164q129 0 202 -63q74 -62 74 -163q0 -100 -77 -166q-77 -65 -198 -65zM221 357v-258h146q73 0 114 35.5t41 93.5q0 61 -40 95t-114 34h-147z" />
    <glyph glyph-name="uni042D" unicode="&#x42d;" horiz-adv-x="734" 
d="M298 711q172 0 279 -99q106 -99 106 -260t-104 -260q-103 -99 -276 -99q-161 0 -284 96l80 101q72 -84 194 -84q98 0 163 53.5t79 143.5h-315v103h314q-17 88 -81.5 139.5t-159.5 51.5q-117 0 -196 -79l-78 95q125 98 279 98z" />
    <glyph glyph-name="uni042E" unicode="&#x42e;" horiz-adv-x="1094" 
d="M684 -11q-151 0 -248 82q-96 82 -113 221h-107v-292h-132v700h132v-302h105q15 142 112 227q98 86 251 86q166 0 265 -100q100 -100 100 -262t-99 -261t-266 -99zM522 163q61 -67 162 -67t161 67q61 67 61 186q0 120 -61 187q-60 68 -161 68q-100 0 -162 -68
q-61 -67 -61 -187q0 -119 61 -186z" />
    <glyph glyph-name="uni042F" unicode="&#x42f;" horiz-adv-x="711" 
d="M319 700h308v-700h-135v229h-154l-139 -229h-143l156 245q-78 24 -122.5 84t-44.5 135q0 97 73 166q73 70 201 70zM333 334h159v261h-159q-66 0 -106 -37t-40 -94q0 -56 40.5 -93t105.5 -37z" />
    <glyph glyph-name="uni0430" unicode="&#x430;" horiz-adv-x="654" 
d="M476 437l6 83h117v-520h-116l-9 89q-56 -98 -190 -98q-116 0 -185 74q-68 74 -68 191q0 119 72 196t190 77q130 0 183 -92zM319 96q65 0 110 45q46 45 46 118q0 75 -45 120t-111 45q-69 0 -112.5 -44.5t-43.5 -120.5q0 -74 43.5 -118.5t112.5 -44.5z" />
    <glyph glyph-name="uni0431" unicode="&#x431;" horiz-adv-x="656" 
d="M377 500q113 0 177 -70q65 -71 65 -180q0 -118 -75 -188q-74 -71 -202 -71q-131 0 -208 71t-77 195v118q0 42 3 75q3 36 20 81q15 36 56 79q63 64 189 104q45 14 117 32q80 20 128 38l21 -110q-47 -15 -134 -30q-89 -16 -120 -25q-112 -31 -145 -100q-27 -57 -27 -119
q30 48 87 74t125 26zM339 87q67 0 109 43t42 116q0 74 -41.5 117t-108.5 43q-68 0 -110.5 -41t-43.5 -116q-1 -74 42 -118t111 -44z" />
    <glyph glyph-name="uni0432" unicode="&#x432;" horiz-adv-x="581" 
d="M420 270q49 -8 83 -38q37 -30 37 -92q0 -65 -49.5 -103t-131.5 -38l-291 1v520h281q77 0 122 -35t45 -97q0 -61 -38 -88q-27 -19 -58 -30zM320 439h-126v-135h129q33 0 51.5 19t18.5 49q0 31 -20 49t-53 18zM194 81h140q34 0 55 20t21 53t-21 53t-57 20h-138v-146z" />
    <glyph glyph-name="uni0433" unicode="&#x433;" horiz-adv-x="462" 
d="M196 0h-126v520h381v-90h-255v-430z" />
    <glyph glyph-name="uni0434" unicode="&#x434;" horiz-adv-x="668" 
d="M561 520v-435h81v-205h-98l-5 120h-423l-5 -120h-99v205h69q75 96 75 435h405zM213 85h221v350h-165q-2 -237 -56 -350z" />
    <glyph glyph-name="uni0435" unicode="&#x435;" horiz-adv-x="600" 
d="M566 290q0 -33 -5 -65h-397q6 -71 50.5 -106t115.5 -35q98 0 169 69l55 -84q-94 -78 -226 -78q-140 0 -218.5 72.5t-78.5 196.5q0 121 73 194q73 75 206 75q119 0 187.5 -63.5t68.5 -175.5zM309 440q-60 0 -98.5 -34.5t-46.5 -98.5h270q1 3 1 15q0 52 -34.5 85t-91.5 33z
" />
    <glyph glyph-name="uni0436" unicode="&#x436;" horiz-adv-x="863" 
d="M159 0h-144l175 265l-168 255h138l140 -217h70v217h127v-217h67l142 217h139l-172 -256l179 -264h-145l-140 217h-70v-217h-127v217h-73z" />
    <glyph glyph-name="uni0437" unicode="&#x437;" horiz-adv-x="548" 
d="M372 264q65 -9 98.5 -41.5t33.5 -82.5q0 -53 -38 -88q-66 -61 -217 -61q-125 1 -225 75l50 85q79 -67 176 -67q122 0 122 72q0 66 -114 66h-106v81h104q105 0 105 66q0 68 -102 68q-92 0 -169 -71l-62 83q103 80 248 80q103 0 161 -37t58 -103q0 -49 -32 -82t-91 -43z
" />
    <glyph glyph-name="uni0438" unicode="&#x438;" horiz-adv-x="626" 
d="M181 -1h-113v521h119v-194q-1 -101 -5 -161l2 -1l262 356h112v-521h-119v182q3 126 5 181l-3 1z" />
    <glyph glyph-name="uni0439" unicode="&#x439;" horiz-adv-x="643" 
d="M463 613h-277v72h277v-72zM181 -1h-113v521h119v-194q-1 -101 -5 -161l2 -1l262 356h112v-521h-119v182q3 126 5 181l-3 1z" />
    <glyph glyph-name="uni043A" unicode="&#x43a;" horiz-adv-x="566" 
d="M356 264l199 -264h-145l-146 209h-73v-209h-123v520h123v-208h70l149 208h137z" />
    <glyph glyph-name="uni043B" unicode="&#x43b;" horiz-adv-x="644" 
d="M93 -6q-39 0 -75 6l2 98q18 -3 32 -3q58 0 77 45q22 48 26 163q2 52 2 217h419v-520h-127v434h-165q0 -23 -2 -141q-7 -156 -51 -227.5t-138 -71.5z" />
    <glyph glyph-name="uni043C" unicode="&#x43c;" horiz-adv-x="773" 
d="M390 240l203 280h112v-520h-125v190q0 88 6 158l-3 1l-183 -265h-18l-197 265h-3q4 -68 4 -157v-192h-118v520h121z" />
    <glyph glyph-name="uni043D" unicode="&#x43d;" horiz-adv-x="624" 
d="M195 0h-127v520h127v-211h234v211h127v-520h-127v206h-234v-206z" />
    <glyph glyph-name="uni043E" unicode="&#x43e;" horiz-adv-x="635" 
d="M31 259q0 123 79 196q80 74 208 74q127 0 207 -74q79 -73 79 -196q0 -122 -79 -195t-207 -73q-129 0 -208 73t-79 195zM161 259q0 -74 43.5 -118.5t113.5 -44.5t114 44.5t44 118.5t-44 119.5t-114 45.5t-113.5 -45t-43.5 -120z" />
    <glyph glyph-name="uni043F" unicode="&#x43f;" horiz-adv-x="623" 
d="M196 0h-126v520h483v-520h-126v428h-231v-428z" />
    <glyph glyph-name="uni0440" unicode="&#x440;" horiz-adv-x="668" 
d="M374 529q122 0 193 -77q70 -76 70 -192q0 -115 -71 -192t-195 -77q-119 0 -176 70v-231h-127v690h109l11 -79q29 42 78.5 65t107.5 23zM349 96q70 0 113.5 45t43.5 119t-44 119t-113 45q-66 0 -112 -46q-45 -45 -45 -118q0 -72 45 -118t112 -46z" />
    <glyph glyph-name="uni0441" unicode="&#x441;" horiz-adv-x="572" 
d="M325 -9q-134 0 -214 73q-80 74 -80 196t79 195q80 74 212 74q137 0 227 -90l-71 -83q-64 70 -149 70q-75 0 -120.5 -45.5t-45.5 -120.5t46 -120.5t121 -45.5q86 0 147 72l74 -83q-50 -49 -103 -70.5t-123 -21.5z" />
    <glyph glyph-name="uni0442" unicode="&#x442;" horiz-adv-x="512" 
d="M319 0h-126v423h-177v97h479v-97h-176v-423z" />
    <glyph glyph-name="uni0443" unicode="&#x443;" horiz-adv-x="571" 
d="M359 314l76 206h124l-270 -690h-127l65 162l-215 528h135l80 -206q37 -93 67 -184h3z" />
    <glyph glyph-name="uni0444" unicode="&#x444;" horiz-adv-x="790" 
d="M459 -170h-127v157q-141 2 -221 74t-80 199q0 129 80 200.5t221 72.5v239h127v-239q141 -1 220.5 -72.5t79.5 -200.5q0 -128 -79.5 -199.5t-220.5 -73.5v-157zM332 83v354q-83 -1 -127 -47t-44 -131q0 -84 44 -129.5t127 -46.5zM459 437v-354q82 1 126.5 47t44.5 129
q0 85 -44 131t-127 47z" />
    <glyph glyph-name="uni0445" unicode="&#x445;" horiz-adv-x="549" 
d="M352 272l186 -272h-138l-127 188l-132 -188h-128l185 257l-183 263h140l122 -175l128 175h126z" />
    <glyph glyph-name="uni0446" unicode="&#x446;" horiz-adv-x="640" 
d="M620 -120h-104l-4 120h-443v520h126v-437h216v437h127v-434h82v-206z" />
    <glyph glyph-name="uni0447" unicode="&#x447;" horiz-adv-x="585" 
d="M388 283v237h126v-520h-126v195q-58 -31 -119.5 -39t-112.5 7t-83 59t-30 111v187h125v-171q0 -100 98 -100q67 0 122 34z" />
    <glyph glyph-name="uni0448" unicode="&#x448;" horiz-adv-x="903" 
d="M833 0h-765v520h127v-437h192v437h127v-437h193v437h126v-520z" />
    <glyph glyph-name="uni0449" unicode="&#x449;" horiz-adv-x="941" 
d="M915 -120h-102l-5 120h-740v520h127v-437h192v437h127v-437h193v437h126v-434h82v-206z" />
    <glyph glyph-name="uni044A" unicode="&#x44a;" horiz-adv-x="663" 
d="M437 0h-269v423h-137v97h264v-184h143q90 0 145 -44t55 -123q0 -78 -55 -123.5t-146 -45.5zM295 254v-171h111q102 0 102 86q0 41 -27 63t-75 22h-111z" />
    <glyph glyph-name="uni044B" unicode="&#x44b;" horiz-adv-x="827" 
d="M343 0h-266v520h127v-184h139q89 0 144 -44t55 -123q0 -78 -54 -123.5t-145 -45.5zM757 0h-126v520h126v-520zM204 253v-171h110q102 0 102 87q0 84 -101 84h-111z" />
    <glyph glyph-name="uni044C" unicode="&#x44c;" horiz-adv-x="560" 
d="M334 0h-266v520h127v-184h139q90 0 145 -44t55 -123q0 -78 -54.5 -123.5t-145.5 -45.5zM195 253v-171h110q102 0 102 87q0 84 -101 84h-111z" />
    <glyph glyph-name="uni044D" unicode="&#x44d;" horiz-adv-x="582" 
d="M250 529q130 0 210 -74q81 -73 81 -195t-79 -195q-77 -73 -208 -73q-135 0 -230 90l76 84q52 -72 143 -72q66 0 109.5 34.5t54.5 94.5h-220v80h218q-12 57 -55 90t-108 33q-88 0 -144 -66l-77 78q51 48 104.5 69.5t124.5 21.5z" />
    <glyph glyph-name="uni044E" unicode="&#x44e;" horiz-adv-x="867" 
d="M555 -9q-113 0 -189 61q-77 62 -89 166h-83v-218h-126v520h126v-217h83q12 105 88 165q76 61 190 61q125 0 202 -73q79 -72 79 -196t-79 -197q-79 -72 -202 -72zM403 259q0 -75 41.5 -119.5t110.5 -44.5t111 44.5t42 119.5t-42 120.5t-111 45.5t-110.5 -45.5
t-41.5 -120.5z" />
    <glyph glyph-name="uni044F" unicode="&#x44f;" horiz-adv-x="581" 
d="M254 520h272v-520h-126v167h-106l-118 -167h-143l134 180q-59 19 -91.5 62t-32.5 102q0 79 57.5 127.5t153.5 48.5zM280 249h120v189h-119q-49 0 -78.5 -25.5t-29.5 -68.5t29.5 -69t77.5 -26z" />
    <glyph glyph-name="uni0450" unicode="&#x450;" horiz-adv-x="600" 
d="M294 765l70 -168h-93l-95 168h118zM566 290q0 -33 -5 -65h-397q6 -71 50.5 -106t115.5 -35q98 0 169 69l55 -84q-94 -78 -226 -78q-140 0 -218.5 72.5t-78.5 196.5q0 121 73 194q73 75 206 75q119 0 187.5 -63.5t68.5 -175.5zM309 440q-60 0 -98.5 -34.5t-46.5 -98.5h270
q1 3 1 15q0 52 -34.5 85t-91.5 33z" />
    <glyph glyph-name="uni0451" unicode="&#x451;" horiz-adv-x="600" 
d="M193 605q-32 0 -53.5 20.5t-21.5 51.5q0 32 21.5 53t53.5 21q31 0 53 -21t22 -53q0 -30 -22 -51t-53 -21zM345 677q0 32 22 53t54 21q31 0 52.5 -21t21.5 -53q0 -31 -21.5 -51.5t-53.5 -20.5t-53.5 20.5t-21.5 51.5zM566 290q0 -33 -5 -65h-397q6 -71 50.5 -106
t115.5 -35q98 0 169 69l55 -84q-94 -78 -226 -78q-140 0 -218.5 72.5t-78.5 196.5q0 121 73 194q73 75 206 75q119 0 187.5 -63.5t68.5 -175.5zM309 440q-60 0 -98.5 -34.5t-46.5 -98.5h270q1 3 1 15q0 52 -34.5 85t-91.5 33z" />
    <glyph glyph-name="uni0452" unicode="&#x452;" horiz-adv-x="641" 
d="M395 -189l-53 97q64 17 89 50.5t25 98.5v244q0 110 -105 110q-66 0 -127 -34v-377h-126v586h-88v62h88v124h126v-124h220v-62h-220v-116q76 39 168 39q94 0 142 -49t48 -143v-256q0 -113 -38 -166q-37 -52 -149 -84z" />
    <glyph glyph-name="uni0453" unicode="&#x453;" horiz-adv-x="462" 
d="M298 597h-94l78 168h118zM196 0h-126v520h381v-90h-255v-430z" />
    <glyph glyph-name="uni0454" unicode="&#x454;" horiz-adv-x="582" 
d="M483 161l77 -79q-51 -48 -104 -69.5t-124 -21.5q-132 0 -211 73q-80 74 -80 196t78 195q80 74 208 74q135 0 231 -90l-76 -85q-52 72 -143 72q-65 0 -108 -33t-55 -90h218v-80h-219q11 -59 55 -93.5t110 -34.5q90 0 143 66z" />
    <glyph glyph-name="uni0455" unicode="&#x455;" horiz-adv-x="526" 
d="M271 -9q-160 0 -243 113l87 69q14 -21 32 -43q16 -18 49.5 -32.5t72.5 -14.5q87 0 87 61q0 31 -29 43q-15 7 -29 10q-18 5 -84 21q-74 21 -114.5 62t-40.5 99q0 80 58 114q59 36 147 36q64 0 123.5 -22t95.5 -61l-70 -77q-63 69 -140 69q-82 0 -82 -55q0 -29 21 -43
t78 -30q2 0 5 -1t4 -1q95 -27 128 -48q61 -39 61 -111q0 -79 -63 -119q-61 -39 -154 -39z" />
    <glyph glyph-name="uni0456" unicode="&#x456;" horiz-adv-x="263" 
d="M132 608q-34 0 -58.5 24t-24.5 59t24.5 59t59.5 24t59 -24t24 -59t-24.5 -59t-59.5 -24zM195 0h-127v520h127v-520z" />
    <glyph glyph-name="uni0457" unicode="&#x457;" horiz-adv-x="263" 
d="M20 605q-32 0 -53.5 20.5t-21.5 51.5q0 32 21.5 53t53.5 21q31 0 53 -21t22 -53q0 -30 -22 -51t-53 -21zM172 677q0 32 22 53t54 21q31 0 52.5 -21t21.5 -53q0 -31 -21.5 -51.5t-53.5 -20.5t-53.5 20.5t-21.5 51.5zM195 0h-127v520h127v-520z" />
    <glyph glyph-name="uni0458" unicode="&#x458;" horiz-adv-x="312" 
d="M182 774q34 0 58.5 -24t24.5 -59t-24.5 -59t-59.5 -24t-59 24t-24 59t24.5 59t59.5 24zM79 -180q-66 0 -103 21l16 95h2q2 -1 6 -2.5t7 -2.5q26 -11 45 -11q66 0 66 69v531h126v-537q0 -83 -44 -123t-121 -40z" />
    <glyph glyph-name="uni0459" unicode="&#x459;" horiz-adv-x="918" 
d="M71 -5q-15 0 -65 5l3 99q17 -3 31 -3q58 0 78 45q21 48 25 162q2 52 2 217h408v-184h140q89 0 143.5 -44t54.5 -123q0 -78 -54 -123.5t-145 -45.5h-265v435h-166q0 -84 -2 -142q-8 -156 -51.5 -227t-136.5 -71zM553 253v-171h111q102 0 102 87q0 41 -26.5 62.5
t-74.5 21.5h-112z" />
    <glyph glyph-name="uni045A" unicode="&#x45a;" horiz-adv-x="902" 
d="M538 326h139q90 0 144.5 -42.5t54.5 -119.5q0 -78 -53.5 -121t-145.5 -43h-266v233h-215v-233h-126v520h126v-195h215v195h127v-194zM538 82h111q102 0 102 82q0 79 -102 79h-111v-161z" />
    <glyph glyph-name="uni045B" unicode="&#x45b;" horiz-adv-x="622" 
d="M224 0h-126v586h-88v63h88v123h126v-123h220v-63h-220v-116q72 39 169 39q119 0 155 -62q34 -54 34 -169v-278h-127l1 278q1 69 -23 101t-80 32q-31 0 -57 -6q-25 -6 -37 -11l-35 -17v-377z" />
    <glyph glyph-name="uni045C" unicode="&#x45c;" horiz-adv-x="566" 
d="M320 765h118l-102 -168h-94zM356 264l199 -264h-145l-146 209h-73v-209h-123v520h123v-208h70l149 208h137z" />
    <glyph glyph-name="uni045D" unicode="&#x45d;" horiz-adv-x="626" 
d="M376 597h-93l-95 168h118zM181 -1h-113v521h119v-194q-1 -101 -5 -161l2 -1l262 356h112v-521h-119v182q3 126 5 181l-3 1z" />
    <glyph glyph-name="uni045E" unicode="&#x45e;" horiz-adv-x="571" 
d="M105 758h80q3 -92 93 -92t93 92h80q-6 -158 -173 -158t-173 158zM359 314l76 206h124l-270 -690h-127l65 162l-215 528h135l80 -206q37 -93 67 -184h3z" />
    <glyph glyph-name="uni045F" unicode="&#x45f;" horiz-adv-x="622" 
d="M362 -136h-101l-4 136h-187v520h126v-435h230v435h126v-520h-186z" />
    <glyph glyph-name="uni0490" unicode="&#x490;" horiz-adv-x="590" 
d="M219 0h-135v700h381l6 122h103v-227h-355v-595z" />
    <glyph glyph-name="uni0491" unicode="&#x491;" horiz-adv-x="459" 
d="M196 0h-126v520h277l10 113h93v-198h-253z" />
    <glyph glyph-name="uni04E2" unicode="&#x4e2;" horiz-adv-x="802" 
d="M248 870h317v-73h-317v73zM212 187l368 513h124l-1 -700h-128v278q0 84 5 234l-364 -512h-124v700h129v-275q0 -118 -9 -238z" />
    <glyph glyph-name="uni04E3" unicode="&#x4e3;" horiz-adv-x="619" 
d="M142 690h317v-73h-317v73zM416 251v269h126v-520h-111l-8 83q-53 -92 -166 -92q-188 0 -188 198v331h126v-310q0 -52 23.5 -83.5t75.5 -31.5q62 0 92 46q30 47 30 110z" />
    <glyph glyph-name="uni04EE" unicode="&#x4ee;" horiz-adv-x="684" 
d="M192 870h317v-73h-317v73zM379 311l164 389h131l-306 -700h-140l83 180l-275 520h143z" />
    <glyph glyph-name="uni04EF" unicode="&#x4ef;" horiz-adv-x="571" 
d="M136 690h317v-73h-317v73zM359 314l76 206h124l-270 -690h-127l65 162l-215 528h135l80 -206q37 -93 67 -184h3z" />
    <glyph glyph-name="Wgrave" unicode="&#x1e80;" horiz-adv-x="1044" 
d="M580 769h-93l-91 130h115zM391 0h-182l-194 700h138l155 -562h4l139 562h151l145 -562h5l153 562h124l-194 -700h-182l-131 509h-4z" />
    <glyph glyph-name="wgrave" unicode="&#x1e81;" horiz-adv-x="837" 
d="M410 762l70 -168h-93l-95 168h118zM649 288l62 232h116l-146 -525h-159l-52 190l-44 177l-47 -177l-54 -190h-161l-142 525h122l61 -234l44 -175l47 177l62 236h141l60 -234l44 -183z" />
    <glyph glyph-name="Wacute" unicode="&#x1e82;" horiz-adv-x="1044" 
d="M573 769h-93l74 130h118zM391 0h-182l-194 700h138l155 -562h4l139 562h151l145 -562h5l153 562h124l-194 -700h-182l-131 509h-4z" />
    <glyph glyph-name="wacute" unicode="&#x1e83;" horiz-adv-x="837" 
d="M450 762h118l-102 -168h-94zM649 288l62 232h116l-146 -525h-159l-52 190l-44 177l-47 -177l-54 -190h-161l-142 525h122l61 -234l44 -175l47 177l62 236h141l60 -234l44 -183z" />
    <glyph glyph-name="Wdieresis" unicode="&#x1e84;" horiz-adv-x="1044" 
d="M336 858q0 32 21.5 52.5t53.5 20.5q31 0 52.5 -20.5t21.5 -52.5q0 -31 -21.5 -52t-53.5 -21t-53 21t-21 52zM563 858q0 32 21.5 52.5t53.5 20.5t53 -20.5t21 -52.5q0 -31 -21 -52t-53 -21t-53.5 21t-21.5 52zM391 0h-182l-194 700h138l155 -562h4l139 562h151l145 -562h5
l153 562h124l-194 -700h-182l-131 509h-4z" />
    <glyph glyph-name="wdieresis" unicode="&#x1e85;" horiz-adv-x="837" 
d="M309 602q-32 0 -53.5 20.5t-21.5 51.5q0 32 21.5 53t53.5 21q31 0 53 -21t22 -53q0 -30 -22 -51t-53 -21zM461 674q0 32 22 53t54 21q31 0 52.5 -21t21.5 -53q0 -31 -21.5 -51.5t-53.5 -20.5t-53.5 20.5t-21.5 51.5zM649 288l62 232h116l-146 -525h-159l-52 190l-44 177
l-47 -177l-54 -190h-161l-142 525h122l61 -234l44 -175l47 177l62 236h141l60 -234l44 -183z" />
    <glyph glyph-name="uni1E9E" unicode="&#x1e9e;" horiz-adv-x="769" 
d="M626 312l12 -9q85 -60 85 -155q0 -161 -208 -161q-92 0 -191 37l15 113q109 -54 165 -54q42 0 65.5 20t23.5 53q0 22 -13 41q-4 7 -8 12.5t-7 9t-9 9t-8.5 7.5t-11.5 9t-13 10q-12 9 -37 32q-15 16 -27.5 45.5t-12.5 62.5q0 87 74 167q-52 46 -138 46q-76 0 -119 -47.5
t-43 -131.5v-427l-135 -1v426q0 138 77 212t218 74q186 0 301 -136q-112 -79 -112 -171q0 -33 14 -51q12 -17 19 -23q12 -11 24 -19z" />
    <glyph glyph-name="Ygrave" unicode="&#x1ef2;" horiz-adv-x="695" 
d="M335 899l69 -130h-93l-91 130h115zM542 700h136l-262 -436l-2 -264h-135l1 262l-263 438h141l191 -326z" />
    <glyph glyph-name="ygrave" unicode="&#x1ef3;" horiz-adv-x="571" 
d="M284 765l70 -168h-93l-95 168h118zM359 314l76 206h124l-270 -690h-127l65 162l-215 528h135l80 -206q37 -93 67 -184h3z" />
    <glyph glyph-name="uni2009" unicode="&#x2009;" horiz-adv-x="46" 
 />
    <glyph glyph-name="endash" unicode="&#x2013;" horiz-adv-x="611" 
d="M548 218l-485 -1v95h485v-94z" />
    <glyph glyph-name="emdash" unicode="&#x2014;" horiz-adv-x="906" 
d="M843 218h-780v94h780v-94z" />
    <glyph glyph-name="quoteleft" unicode="&#x2018;" horiz-adv-x="260" 
d="M146 593q32 0 49 -18.5t17 -49.5q0 -36 -22 -56.5t-58 -20.5q-43 0 -69.5 30.5t-26.5 81.5q0 65 41 118q39 51 91 79l44 -32q-46 -27 -74 -65t-29 -80q13 13 37 13z" />
    <glyph glyph-name="quoteright" unicode="&#x2019;" horiz-adv-x="260" 
d="M125 757q43 0 69.5 -30.5t26.5 -81.5q0 -65 -41 -118q-39 -51 -91 -79l-44 32q46 27 74 65t29 80q-14 -14 -37 -14q-30 0 -48 19t-18 50q0 36 22 56.5t58 20.5z" />
    <glyph glyph-name="quotesinglbase" unicode="&#x201a;" horiz-adv-x="276" 
d="M130 139q43 0 69.5 -30.5t26.5 -81.5q0 -66 -41 -119q-40 -52 -91 -78l-44 32q46 27 74 65t29 80q-13 -13 -37 -13q-32 0 -49 18.5t-17 49.5q0 36 22 56.5t58 20.5z" />
    <glyph glyph-name="quotedblleft" unicode="&#x201c;" horiz-adv-x="487" 
d="M149 593q32 0 49.5 -18.5t17.5 -49.5q0 -35 -22.5 -56t-58.5 -21q-42 0 -68.5 30.5t-26.5 81.5q0 65 41 118q39 51 91 79l43 -32q-46 -27 -74 -65t-29 -80q13 13 37 13zM376 593q32 0 49 -18.5t17 -49.5q0 -36 -22 -56.5t-58 -20.5q-43 0 -69.5 30.5t-26.5 81.5
q0 65 41 118q39 51 91 79l44 -32q-46 -27 -74 -65t-29 -80q13 13 37 13z" />
    <glyph glyph-name="quotedblright" unicode="&#x201d;" horiz-adv-x="487" 
d="M125 757q43 0 69.5 -30.5t26.5 -81.5q0 -65 -41 -118q-39 -51 -91 -79l-44 32q46 27 74 65t29 80q-14 -14 -37 -14q-30 0 -48 19t-18 50q0 36 22 56.5t58 20.5zM352 757q42 0 68.5 -30.5t26.5 -81.5q0 -65 -41 -118q-39 -51 -91 -79l-43 32q46 27 74 65t29 80
q-14 -14 -37 -14q-32 0 -49.5 19t-17.5 50q0 35 22.5 56t58.5 21z" />
    <glyph glyph-name="quotedblbase" unicode="&#x201e;" horiz-adv-x="505" 
d="M133 139q43 0 69.5 -30.5t26.5 -81.5q0 -65 -41 -118q-39 -51 -91 -79l-44 32q46 27 74 65t29 80q-13 -13 -37 -13q-32 0 -49 18.5t-17 49.5q0 36 22 56.5t58 20.5zM360 139q42 0 68.5 -30.5t26.5 -81.5q0 -65 -41 -118q-40 -52 -90 -79l-44 32q46 27 74 65t29 80
q-13 -13 -37 -13q-32 0 -49.5 18.5t-17.5 49.5q0 35 22.5 56t58.5 21z" />
    <glyph glyph-name="dagger" unicode="&#x2020;" horiz-adv-x="450" 
d="M265 617l123 9v-88l-123 10l9 -271h-99l10 271l-123 -10v88l123 -9l-10 134h100z" />
    <glyph glyph-name="daggerdbl" unicode="&#x2021;" horiz-adv-x="450" 
d="M274 185h-99l10 148l-123 -10v88l120 -9l-3 75l5 77l-122 -10v87l124 -10l-11 130h100l-11 -130l124 10v-87l-122 10l5 -77l-3 -75l120 9v-88l-123 10z" />
    <glyph glyph-name="bullet" unicode="&#x2022;" horiz-adv-x="392" 
d="M77 345q0 52 33 83t86 31q51 0 84 -30q34 -30 34 -84q0 -53 -33 -85q-33 -30 -85 -30q-53 0 -86 31t-33 84z" />
    <glyph glyph-name="ellipsis" unicode="&#x2026;" horiz-adv-x="819" 
d="M128 -11q-36 0 -57.5 19.5t-21.5 55.5q0 34 22 54.5t57 20.5q36 0 59 -20.5t23 -54.5q0 -35 -22.5 -55t-59.5 -20zM409 -11q-36 0 -57.5 19.5t-21.5 55.5q0 34 22 54.5t57 20.5q36 0 59 -20.5t23 -54.5q0 -35 -22.5 -55t-59.5 -20zM689 -11q-36 0 -57.5 19.5t-21.5 55.5
q0 34 22 54.5t57 20.5q36 0 58.5 -20.5t22.5 -54.5q0 -36 -22 -55.5t-59 -19.5z" />
    <glyph glyph-name="perthousand" unicode="&#x2030;" horiz-adv-x="1244" 
d="M211 -30h-77l451 760h77zM216 411q-73 0 -117.5 41.5t-44.5 107.5q0 69 45.5 111.5t119.5 42.5q73 0 117.5 -42t44.5 -110t-45.5 -109.5t-119.5 -41.5zM218 479q35 0 56.5 22t21.5 61t-21 61t-57 22t-57.5 -22.5t-21.5 -60.5q0 -40 21.5 -61.5t57.5 -21.5zM577 -13
q-73 0 -117.5 41.5t-44.5 107.5q0 69 45.5 111.5t119.5 42.5q72 0 117 -42t45 -110t-45.5 -109.5t-119.5 -41.5zM960 -13q-72 0 -117 41.5t-45 107.5q0 69 46 111q46 43 119 43t117 -42q45 -42 45 -110t-45.5 -109.5t-119.5 -41.5zM579 55q35 0 56.5 22t21.5 61t-21 60.5
t-57 21.5t-57.5 -22t-21.5 -60q0 -40 21 -61.5t58 -21.5zM962 55q34 0 56 21q22 22 22 62t-21 61t-57 21t-57.5 -22t-21.5 -60q0 -40 21.5 -61.5t57.5 -21.5z" />
    <glyph glyph-name="guilsinglleft" unicode="&#x2039;" horiz-adv-x="302" 
d="M160 434h104l-118 -174l118 -174h-104l-122 174z" />
    <glyph glyph-name="guilsinglright" unicode="&#x203a;" horiz-adv-x="302" 
d="M38 434h104l122 -174l-122 -174h-104l118 174z" />
    <glyph glyph-name="fraction" unicode="&#x2044;" horiz-adv-x="269" 
d="M-26 0h-89l410 700h89z" />
    <glyph glyph-name="Euro" unicode="&#x20ac;" horiz-adv-x="770" 
d="M676 173l64 -93q-55 -48 -110.5 -69.5t-132.5 -21.5q-142 0 -235.5 70t-119.5 196h-99l22 61h69q-1 7 -1 35q0 23 1 30h-86l22 62h71q26 128 115 198t221 70q74 0 142 -22t109 -56l-55 -110q-79 79 -178 79q-79 0 -132.5 -42t-74.5 -117h306l-21 -62h-296q-2 -30 0 -65
h263l-21 -61h-231q21 -75 76 -116t138 -41q41 0 74 13q39 15 49 23q15 10 51 39z" />
    <glyph glyph-name="uni20BA" unicode="&#x20ba;" horiz-adv-x="648" 
d="M497 321h122q7 -170 -81.5 -249t-277.5 -79q-58 0 -104 7v309l-110 -51v65l110 51v54l-110 -50v63l110 51v208h137l-1 -146l158 73v-64l-158 -72v-55l158 73v-63l-158 -74l-2 -273q110 -4 162 50.5t45 171.5z" />
    <glyph glyph-name="uni20BD" unicode="&#x20bd;" horiz-adv-x="682" 
d="M277 0h-131l-1 133h-100l1 78h100v65h-100l-1 78h100l1 346h218q136 0 207.5 -56.5t71.5 -160.5t-72 -160t-207 -56h-86l-1 -56h254v-78h-254v-133zM277 603v-249h86q64 0 102 35t38 94t-37.5 89.5t-106.5 30.5h-82z" />
    <glyph glyph-name="uni2116" unicode="&#x2116;" horiz-adv-x="1205" 
d="M759 520q0 88 57 139q56 52 143 52t142 -51q57 -51 57 -140q0 -87 -58 -136q-56 -49 -141 -49q-84 0 -142 49t-58 136zM565 415v285h128v-700h-110l-379 507l1 -2q8 -134 8 -184v-321h-128v700h110l376 -495q-6 67 -6 210zM1035 606q-31 29 -76 29t-76 -29
q-31 -28 -31 -82q0 -53 30 -83t77 -30t77 30t30 83q0 54 -31 82zM1135 189h-351v77h351v-77z" />
    <glyph glyph-name="trademark" unicode="&#x2122;" horiz-adv-x="790" 
d="M139 635h-104v65h291v-65h-105v-249h-82v249zM540 542l99 158h76v-314h-77v190l-94 -140h-7l-97 141v-191h-77v314h76z" />
    <glyph glyph-name="oneeighth" unicode="&#x215b;" horiz-adv-x="988" 
d="M70 268v70h99v294l-100 -12l-2 69l175 19h15v-370h89v-70h-276zM251 0l410 700h89l-410 -700h-89zM879 228q83 -30 83 -111q0 -59 -46.5 -92t-124.5 -33q-79 0 -126.5 32.5t-47.5 93.5q0 82 85 109q-69 27 -69 96q0 53 44 84t114 31q69 0 112.5 -31t43.5 -84
q0 -68 -68 -95zM791 373q-30 0 -48.5 -15.5t-18.5 -42.5q0 -25 18.5 -40.5t48.5 -15.5t47.5 15.5t17.5 40.5q0 27 -18 42.5t-47 15.5zM791 56q34 0 55.5 18t21.5 50q0 33 -21 51t-56 18q-37 0 -57.5 -18t-20.5 -51q0 -32 21 -50t57 -18z" />
    <glyph glyph-name="threeeighths" unicode="&#x215c;" horiz-adv-x="981" 
d="M368 403q0 -68 -52 -105t-131 -37q-106 0 -168 62l48 64q67 -55 118 -55q37 0 60.5 19t23.5 52q0 26 -20 43q-27 25 -84 25h-41v16l98 141h-175v73h310v-13l-113 -162q126 -15 126 -123zM244 0l410 700h89l-410 -700h-89zM872 228q84 -30 84 -111q0 -60 -46.5 -92.5
t-125.5 -32.5t-126.5 32.5t-47.5 93.5q0 81 85 109q-68 27 -68 96q0 54 43.5 84.5t113.5 30.5t113 -31t43 -84q0 -69 -68 -95zM784 373q-30 0 -48 -15.5t-18 -42.5q0 -25 18 -40.5t48 -15.5t47.5 15.5t17.5 40.5q0 27 -18 42.5t-47 15.5zM784 56q35 0 56.5 18t21.5 50
q0 35 -22 51q-21 18 -56 18q-34 0 -57 -18q-21 -18 -21 -51q0 -32 21 -50t57 -18z" />
    <glyph glyph-name="fiveeighths" unicode="&#x215d;" horiz-adv-x="979" 
d="M360 406q0 -67 -47.5 -106t-128.5 -39q-105 0 -162 59l43 65q58 -55 114 -55q35 0 58.5 19.5t23.5 54.5q0 72 -99 72q-46 0 -95 -11l-11 5v230h280v-72h-199v-94q29 7 67 7q73 0 114.5 -36t41.5 -99zM242 0l410 700h89l-410 -700h-89zM870 228q83 -30 83 -111
q0 -59 -46.5 -92t-124.5 -33q-80 0 -127 32.5t-47 93.5q0 82 85 109q-69 27 -69 96q0 54 43.5 84.5t114.5 30.5q69 0 112.5 -31t43.5 -84q0 -68 -68 -95zM782 373q-30 0 -48.5 -15.5t-18.5 -42.5q0 -25 18.5 -40.5t48.5 -15.5t47.5 15.5t17.5 40.5q0 27 -18 42.5t-47 15.5z
M782 56q34 0 55.5 18t21.5 50q0 33 -21 51t-56 18q-36 0 -57.5 -18t-21.5 -51q0 -32 21.5 -50t57.5 -18z" />
    <glyph glyph-name="seveneighths" unicode="&#x215e;" horiz-adv-x="889" 
d="M374 684l-222 -415h-105l199 358h-208v73h336v-16zM150 0l410 700h89l-410 -700h-89zM779 228q84 -30 84 -111q0 -60 -46.5 -92.5t-125.5 -32.5t-126 32.5t-47 93.5q0 82 85 109q-69 27 -69 96q0 54 43.5 84.5t113.5 30.5t113.5 -31t43.5 -84q0 -68 -69 -95zM625 315
q0 -25 18 -40.5t48 -15.5t48 15.5t18 40.5q4 36 -31 51t-70 0t-31 -51zM691 56q35 0 56.5 18t21.5 50q0 35 -22 51q-21 18 -56 18t-57 -18q-21 -18 -21 -51q0 -32 21 -50t57 -18z" />
    <glyph glyph-name="arrowleft" unicode="&#x2190;" horiz-adv-x="793" 
d="M517 49l-76 -75l-375 375l376 377l76 -76l-243 -244l472 2v-118l-472 1z" />
    <glyph glyph-name="arrowup" unicode="&#x2191;" horiz-adv-x="845" 
d="M481 -1h-118l1 472l-242 -242l-75 76l375 375l376 -376l-75 -76l-242 243v-472z" />
    <glyph glyph-name="arrowright" unicode="&#x2192;" horiz-adv-x="774" 
d="M727 350l-376 -376l-75 75l243 244l-472 -2v118l471 -1l-242 242l76 75z" />
    <glyph glyph-name="arrowdown" unicode="&#x2193;" horiz-adv-x="845" 
d="M798 376l-375 -375l-376 376l75 75l244 -243l-2 472h119l-2 -471l242 242z" />
    <glyph glyph-name="uni2196" unicode="&#x2196;" horiz-adv-x="642" 
d="M158 82h-107l1 530h532v-106l-345 -1l336 -332l-84 -84l-333 334v-341z" />
    <glyph glyph-name="uni2197" unicode="&#x2197;" horiz-adv-x="625" 
d="M578 77h-107v345l-333 -336l-83 84l334 333h-342l1 107l530 -1v-532z" />
    <glyph glyph-name="uni2198" unicode="&#x2198;" horiz-adv-x="626" 
d="M578 78h-532v107h345l-335 333l83 84l333 -335v342h107z" />
    <glyph glyph-name="uni2199" unicode="&#x2199;" horiz-adv-x="625" 
d="M577 78h-530v533l107 -1v-344l333 335l83 -83l-334 -333h342z" />
    <glyph glyph-name="minus" unicode="&#x2212;" horiz-adv-x="663" 
d="M544 293h-425v89h425v-89z" />
    <glyph glyph-name="uni26C7" unicode="&#x26c7;" horiz-adv-x="757" 
d="M78 740q12 -12 0 -24t-24 0t0 24t24 0zM678 740q12 12 24 0t0 -24t-24 0t0 24zM285 711q-12 -12 -24 0t0 24t24 0t0 -24zM390 711q-12 -12 -24 0t0 24t24 0t0 -24zM495 711q-12 -12 -24 0t0 24t24 0t0 -24zM145 710q0 16 17.5 16t17.5 -16q0 -17 -17.5 -17.5t-17.5 17.5z
M611 710q0 -18 -17.5 -17.5t-17.5 17.5q0 16 17.5 16t17.5 -16zM514 399q116 -50 116 -182q0 -106 -70 -161q-70 -56 -182 -56q-115 0 -189 56q-74 57 -74 161q0 133 126 183q-62 38 -62 116q0 82 54 124.5t145 42.5t144.5 -42.5t53.5 -124.5q0 -79 -62 -117zM61 627
q-12 12 0 24t24 0t0 -24t-24 0zM671 651q12 12 24 0t0 -24t-24 0t0 24zM155 592q-12 -12 -24 0t0 24t24 0t0 -24zM601 616q12 12 24 0t0 -24t-24 0t0 24zM325 539q-11 11 -28 11t-28 -11t-11 -28t11 -28t28 -11t28 11t11 28t-11 28zM497 539q-11 11 -28 11t-28 -11t-11 -28
t11 -28t28 -11t28 11t11 28t-11 28zM80 530q12 12 24 0t0 -24t-24 0t0 24zM676 530q12 -12 0 -24t-24 0t0 24t24 0zM448 436l-61 28q-14 -8 -8 -21zM155 422q-12 -12 -24 0t0 24t24 0t0 -24zM601 446q12 12 24 0t0 -24t-24 0t0 24zM61 351q12 12 24 0t0 -24t-24 0t0 24z
M671 351q12 12 24 0t0 -24t-24 0t0 24zM395 264q0 14 -15 14t-15 -14t15 -14t15 14zM369 167q7 -6 15.5 -2.5t10 10.5t-4.5 13q-6 7 -13.5 4.5t-10 -10t2.5 -15.5zM395 92q0 14 -15 14t-15 -14t15 -14t15 14z" />
    <glyph glyph-name="uniF8FF" unicode="&#xf8ff;" horiz-adv-x="1442" 
d="M703 237q-49 0 -49 61q0 62 50 62q17 0 33 -10v59h64v-168h-58l-3 11q-18 -15 -37 -15zM140 240q-28 0 -40.5 11.5t-12.5 40.5v27h-23v37h23l8 44h54v-44h29v-37h-29v-19q0 -22 31 -15l1 -37q-19 -8 -41 -8zM1337 240q-30 0 -42 11.5t-12 40.5v27h-22v37h22l8 44h55v-44
h28v-37h-28v-19q0 -22 30 -15l1 -37q-19 -8 -40 -8zM887 238q-73 0 -73 61q0 62 71 62q60 0 60 -46q0 -20 -1 -26h-73q3 -17 29 -17q20 0 40 5v-29q-26 -10 -53 -10zM416 188h-64v168h53l4 -13q20 17 44 17q46 0 46 -61q0 -62 -50 -62q-19 0 -33 11v-60zM584 237
q-73 0 -73 61q0 62 71 62q60 0 60 -46q0 -20 -1 -26h-73q3 -17 29 -17q22 0 40 5v-29q-24 -10 -53 -10zM1024 188h-64v168h53l4 -13q20 17 44 17q46 0 46 -61q0 -62 -50 -62q-19 0 -33 11v-60zM1188 237h-2q-35 0 -51 15t-16 47t16 46.5t51 14.5h1q68 0 68 -61
q0 -62 -67 -62zM261 182q-34 0 -58 9v37q21 -9 46 -7q25 1 25 19v6q-15 -9 -33 -9q-45 0 -45 43v76h63v-80q0 -12 14 -6v86h62v-105q0 -69 -74 -69zM870 308h25q5 20 -11 20q-14 0 -14 -20zM567 307h25q5 20 -11 20q-14 0 -14 -20zM1187 274q9 0 9 27q0 25 -9 25
q-10 0 -10 -25q0 -27 10 -27zM725 271q6 0 13 7v41q-6 3 -10 3q-17 0 -17 -25q0 -26 14 -26zM427 271q15 0 15 25q0 24 -13 24q-7 0 -14 -7v-37q8 -5 12 -5zM1035 271q15 0 15 25q0 24 -13 24q-7 0 -14 -7v-37q8 -5 12 -5z" />
    <glyph glyph-name="NULL" horiz-adv-x="646" 
 />
    <glyph glyph-name="CR" horiz-adv-x="333" 
 />
    <glyph glyph-name="Iacute_J.loclNLD" horiz-adv-x="725" 
d="M200 769h-93l73 130h119zM625 769h-94l74 130h118zM221 0h-136v700h136v-700zM427 -11q-58 0 -96 13v113q44 -14 91 -14q43 0 67.5 24t24.5 71v504h135v-504q0 -102 -59 -154.5t-163 -52.5z" />
    <glyph glyph-name="Q.alt" horiz-adv-x="846" 
d="M51 349q0 159 104 260q103 102 275 102t275 -102q104 -101 104 -260q0 -158 -104 -259t-275 -101q-172 0 -276 101q-103 100 -103 259zM430 106q106 0 174 66q67 67 67 177t-67 177q-68 68 -174 68q-105 0 -173 -68q-67 -67 -67 -177t67 -177q67 -66 173 -66zM767 -69
v-115l-391 26v89h391z" />
    <glyph glyph-name="uni1E9E.alt" horiz-adv-x="777" 
d="M666 682l-136 -262q209 -36 209 -211q0 -101 -66 -160q-65 -58 -178 -58q-121 0 -215 66l45 98q86 -62 155 -62q56 0 89 32.5t33 85.5q0 62 -54 96.5t-171 48.5v21l117 219h-274l-1 -596h-134l1 700h581z" />
    <glyph glyph-name="a.alt" horiz-adv-x="599" 
d="M303 529q236 0 236 -217v-312h-125v85q-58 -94 -183 -94q-84 0 -133.5 41t-49.5 118q0 80 59 117.5t180 37.5q13 0 61.5 -1.5t65.5 -1.5v12q0 45 -32 83t-97 38q-89 0 -184 -71l-49 85q116 80 251 80zM267 79q60 0 104 41q43 40 43 96v11q-64 4 -119 4q-118 0 -118 -76
q0 -38 24.5 -57t65.5 -19z" />
    <glyph glyph-name="aacute.alt" horiz-adv-x="599" 
d="M339 765h118l-102 -168h-94zM303 529q236 0 236 -217v-312h-125v85q-58 -94 -183 -94q-84 0 -133.5 41t-49.5 118q0 80 59 117.5t180 37.5q13 0 61.5 -1.5t65.5 -1.5v12q0 45 -32 83t-97 38q-89 0 -184 -71l-49 85q116 80 251 80zM267 79q60 0 104 41q43 40 43 96v11
q-64 4 -119 4q-118 0 -118 -76q0 -38 24.5 -57t65.5 -19z" />
    <glyph glyph-name="abreve.alt" horiz-adv-x="599" 
d="M137 758h80q3 -92 93 -92t93 92h80q-6 -158 -173 -158t-173 158zM303 529q236 0 236 -217v-312h-125v85q-58 -94 -183 -94q-84 0 -133.5 41t-49.5 118q0 80 59 117.5t180 37.5q13 0 61.5 -1.5t65.5 -1.5v12q0 45 -32 83t-97 38q-89 0 -184 -71l-49 85q116 80 251 80z
M267 79q60 0 104 41q43 40 43 96v11q-64 4 -119 4q-118 0 -118 -76q0 -38 24.5 -57t65.5 -19z" />
    <glyph glyph-name="acircumflex.alt" horiz-adv-x="599" 
d="M391 597l-77 99l-81 -99h-104l151 175h63l152 -175h-104zM303 529q236 0 236 -217v-312h-125v85q-58 -94 -183 -94q-84 0 -133.5 41t-49.5 118q0 80 59 117.5t180 37.5q13 0 61.5 -1.5t65.5 -1.5v12q0 45 -32 83t-97 38q-89 0 -184 -71l-49 85q116 80 251 80zM267 79
q60 0 104 41q43 40 43 96v11q-64 4 -119 4q-118 0 -118 -76q0 -38 24.5 -57t65.5 -19z" />
    <glyph glyph-name="adieresis.alt" horiz-adv-x="599" 
d="M199 605q-32 0 -53.5 20.5t-21.5 51.5q0 32 21.5 53t53.5 21q31 0 53 -21t22 -53q0 -30 -22 -51t-53 -21zM351 677q0 32 22 53t54 21q31 0 52.5 -21t21.5 -53q0 -31 -21.5 -51.5t-53.5 -20.5t-53.5 20.5t-21.5 51.5zM303 529q236 0 236 -217v-312h-125v85
q-58 -94 -183 -94q-84 0 -133.5 41t-49.5 118q0 80 59 117.5t180 37.5q13 0 61.5 -1.5t65.5 -1.5v12q0 45 -32 83t-97 38q-89 0 -184 -71l-49 85q116 80 251 80zM267 79q60 0 104 41q43 40 43 96v11q-64 4 -119 4q-118 0 -118 -76q0 -38 24.5 -57t65.5 -19z" />
    <glyph glyph-name="agrave.alt" horiz-adv-x="599" 
d="M300 765l70 -168h-93l-95 168h118zM303 529q236 0 236 -217v-312h-125v85q-58 -94 -183 -94q-84 0 -133.5 41t-49.5 118q0 80 59 117.5t180 37.5q13 0 61.5 -1.5t65.5 -1.5v12q0 45 -32 83t-97 38q-89 0 -184 -71l-49 85q116 80 251 80zM267 79q60 0 104 41q43 40 43 96
v11q-64 4 -119 4q-118 0 -118 -76q0 -38 24.5 -57t65.5 -19z" />
    <glyph glyph-name="amacron.alt" horiz-adv-x="599" 
d="M152 690h317v-73h-317v73zM303 529q236 0 236 -217v-312h-125v85q-58 -94 -183 -94q-84 0 -133.5 41t-49.5 118q0 80 59 117.5t180 37.5q13 0 61.5 -1.5t65.5 -1.5v12q0 45 -32 83t-97 38q-89 0 -184 -71l-49 85q116 80 251 80zM267 79q60 0 104 41q43 40 43 96v11
q-64 4 -119 4q-118 0 -118 -76q0 -38 24.5 -57t65.5 -19z" />
    <glyph glyph-name="aogonek.alt" horiz-adv-x="599" 
d="M568 -90l1 -78q-37 -10 -86 -10q-113 0 -113 89q0 62 53 89h-9v85q-58 -94 -183 -94q-84 0 -133.5 41t-49.5 118q0 80 59 117.5t180 37.5q13 0 61.5 -1.5t65.5 -1.5v12q0 45 -32 83t-97 38q-89 0 -184 -71l-49 85q116 80 251 80q236 0 236 -217v-312q-93 -10 -93 -61
q0 -38 50 -38q21 0 72 9zM267 79q60 0 104 41q43 40 43 96v11q-64 4 -119 4q-118 0 -118 -76q0 -38 24.5 -57t65.5 -19z" />
    <glyph glyph-name="aring.alt" horiz-adv-x="599" 
d="M310 593q-53 0 -88 30.5t-35 80.5q0 51 35 81t88 30t88 -30t35 -81t-35 -81t-88 -30zM352 748q-16 16 -42 16t-42 -16t-16 -44t16 -44q16 -15 42 -15t42 15q17 16 17 44t-17 44zM303 529q236 0 236 -217v-312h-125v85q-58 -94 -183 -94q-84 0 -133.5 41t-49.5 118
q0 80 59 117.5t180 37.5q13 0 61.5 -1.5t65.5 -1.5v12q0 45 -32 83t-97 38q-89 0 -184 -71l-49 85q116 80 251 80zM267 79q60 0 104 41q43 40 43 96v11q-64 4 -119 4q-118 0 -118 -76q0 -38 24.5 -57t65.5 -19z" />
    <glyph glyph-name="atilde.alt" horiz-adv-x="599" 
d="M230 658q-45 0 -50 -41l-45 2q5 61 33 91t73 30q37 0 81 -24q2 -1 8.5 -4.5t15 -7.5t10.5 -5q20 -9 39 -9q21 0 34.5 11.5t15.5 29.5l45 -2q-8 -120 -107 -120q-31 0 -80 23q-2 0 -17 7.5l-19 9.5q-18 9 -37 9zM303 529q236 0 236 -217v-312h-125v85q-58 -94 -183 -94
q-84 0 -133.5 41t-49.5 118q0 80 59 117.5t180 37.5q13 0 61.5 -1.5t65.5 -1.5v12q0 45 -32 83t-97 38q-89 0 -184 -71l-49 85q116 80 251 80zM267 79q60 0 104 41q43 40 43 96v11q-64 4 -119 4q-118 0 -118 -76q0 -38 24.5 -57t65.5 -19z" />
    <glyph glyph-name="y.alt" horiz-adv-x="642" 
d="M443 243v277h130v-446q0 -69 -23 -119.5t-64 -79t-91.5 -42t-112.5 -13.5q-133 0 -227 75l46 97q39 -37 89 -58.5t97 -21.5q75 0 115.5 36.5t40.5 104.5v53q-52 -88 -155 -88q-100 0 -156 58t-56 159v285h127v-277q0 -57 33 -92.5t87 -35.5t87 35.5t33 92.5z" />
    <glyph glyph-name="yacute.alt" horiz-adv-x="642" 
d="M352 765h118l-102 -168h-94zM443 243v277h130v-446q0 -69 -23 -119.5t-64 -79t-91.5 -42t-112.5 -13.5q-133 0 -227 75l46 97q39 -37 89 -58.5t97 -21.5q75 0 115.5 36.5t40.5 104.5v53q-52 -88 -155 -88q-100 0 -156 58t-56 159v285h127v-277q0 -57 33 -92.5t87 -35.5
t87 35.5t33 92.5z" />
    <glyph glyph-name="ycircumflex.alt" horiz-adv-x="642" 
d="M404 597l-77 99l-81 -99h-104l151 175h63l152 -175h-104zM443 243v277h130v-446q0 -69 -23 -119.5t-64 -79t-91.5 -42t-112.5 -13.5q-133 0 -227 75l46 97q39 -37 89 -58.5t97 -21.5q75 0 115.5 36.5t40.5 104.5v53q-52 -88 -155 -88q-100 0 -156 58t-56 159v285h127
v-277q0 -57 33 -92.5t87 -35.5t87 35.5t33 92.5z" />
    <glyph glyph-name="ydieresis.alt" horiz-adv-x="642" 
d="M212 605q-32 0 -53.5 20.5t-21.5 51.5q0 32 21.5 53t53.5 21q31 0 53 -21t22 -53q0 -30 -22 -51t-53 -21zM364 677q0 32 22 53t54 21q31 0 52.5 -21t21.5 -53q0 -31 -21.5 -51.5t-53.5 -20.5t-53.5 20.5t-21.5 51.5zM443 243v277h130v-446q0 -69 -23 -119.5t-64 -79
t-91.5 -42t-112.5 -13.5q-133 0 -227 75l46 97q39 -37 89 -58.5t97 -21.5q75 0 115.5 36.5t40.5 104.5v53q-52 -88 -155 -88q-100 0 -156 58t-56 159v285h127v-277q0 -57 33 -92.5t87 -35.5t87 35.5t33 92.5z" />
    <glyph glyph-name="ygrave.alt" horiz-adv-x="642" 
d="M313 765l70 -168h-93l-95 168h118zM443 243v277h130v-446q0 -69 -23 -119.5t-64 -79t-91.5 -42t-112.5 -13.5q-133 0 -227 75l46 97q39 -37 89 -58.5t97 -21.5q75 0 115.5 36.5t40.5 104.5v53q-52 -88 -155 -88q-100 0 -156 58t-56 159v285h127v-277q0 -57 33 -92.5
t87 -35.5t87 35.5t33 92.5z" />
    <glyph glyph-name="iacute_j.loclNLD" horiz-adv-x="592" 
d="M163 597h-94l78 168h118zM505 597h-94l78 168h118zM182 0h-127v520h127v-520zM353 -179q-51 0 -95 11l3 91q35 -12 66 -12q72 0 72 77v532h127v-536q0 -163 -173 -163z" />
    <glyph glyph-name="uni0414.bg" horiz-adv-x="874" 
d="M142 -141h-112v247h76l253 602h157l251 -602h78v-247h-106l-6 141h-585zM339 344l-103 -244h397l-103 243l-93 250h-3q-41 -119 -95 -249z" />
    <glyph glyph-name="uni041B.bg" horiz-adv-x="736" 
d="M149 0h-133l270 706h165l269 -706h-138l-217 582h-1z" />
    <glyph glyph-name="uni0424.bg" horiz-adv-x="918" 
d="M522 -83h-126v88q-165 5 -257 98q-93 94 -93 245q0 150 93 244q95 97 257 101v86h126v-86q163 -4 257 -100q94 -94 94 -245t-94 -245q-92 -93 -257 -98v-88zM396 106v485q-103 -4 -161 -69.5t-58 -174.5q0 -108 58 -172.5t161 -68.5zM522 591v-485q104 4 162 68t58 173
t-58 174.5t-162 69.5z" />
    <glyph glyph-name="uni0409.bg" horiz-adv-x="1110" 
d="M160 0h-134l390 700h222v-243h164q128 0 202 -63q74 -62 74 -163q0 -100 -77 -166q-77 -65 -198 -65h-301v599h-8zM638 357v-258h146q73 0 113.5 35.5t40.5 93.5q0 61 -39.5 95t-113.5 34h-147z" />
    <glyph glyph-name="uni0434.alt.bg" horiz-adv-x="685" 
d="M126 -120h-106v207h73l175 439h148l173 -439h76v-207h-107l-4 120h-424zM283 263l-73 -183h260l-71 183q-7 23 -27 69q-19 45 -30 80h-4q-20 -60 -55 -149z" />
    <glyph glyph-name="uni0432.bg" horiz-adv-x="651" 
d="M440 411q84 -14 127.5 -65t43.5 -130q0 -107 -74 -166t-204 -59q-129 0 -200 65.5t-71 185.5v282q0 71 22.5 122.5t61 80.5t83.5 42t97 13q116 0 181 -52.5t65 -142.5q0 -63 -34 -111t-98 -65zM189 550v-101h120q68 0 106 33t38 90t-34.5 87.5t-95.5 30.5
q-63 0 -98.5 -36.5t-35.5 -103.5zM481 225q0 70 -43.5 105t-118.5 35h-130v-134q0 -70 36 -108.5t107 -38.5q72 0 110.5 37.5t38.5 103.5z" />
    <glyph glyph-name="uni0433.bg" horiz-adv-x="504" 
d="M238 -9q-99 0 -155.5 39t-56.5 115q0 59 39 98q15 14 45 28q29 13 50 18q23 7 56 14q57 14 81.5 30t24.5 47q0 60 -84 60q-77 0 -140 -69l-67 75q39 39 98.5 61t125.5 22q89 0 142 -36t53 -108q0 -126 -164 -157q-24 -4 -37 -8q-11 -2 -33 -9q-31 -10 -45 -24t-18 -41
q0 -30 24 -47.5t68 -17.5q91 0 152 90l83 -67q-84 -113 -242 -113z" />
    <glyph glyph-name="uni0453.bg" horiz-adv-x="491" 
d="M290 597h-93l78 168h118zM238 -9q-99 0 -155.5 39t-56.5 115q0 59 39 98q15 14 45 28q29 13 50 18q23 7 56 14q57 14 81.5 30t24.5 47q0 60 -84 60q-77 0 -140 -69l-67 75q39 39 98.5 61t125.5 22q89 0 142 -36t53 -108q0 -126 -164 -157q-24 -4 -37 -8q-11 -2 -33 -9
q-31 -10 -45 -24t-18 -41q0 -30 24 -47.5t68 -17.5q91 0 152 90l83 -67q-84 -113 -242 -113z" />
    <glyph glyph-name="uni0491.bg" horiz-adv-x="504" 
d="M397 171l83 -67q-84 -113 -242 -113q-99 0 -155.5 39t-56.5 115q0 59 39 98q15 14 45 28q29 13 50 18q23 7 56 14q57 14 81.5 30t24.5 47q0 60 -84 60q-77 0 -140 -69l-67 75q71 71 188 81l-2 106h99l-3 -109q64 -10 100.5 -45.5t36.5 -93.5q0 -126 -164 -157
q-24 -4 -37 -8q-11 -2 -33 -9q-31 -10 -45 -24t-18 -41q0 -30 24 -47.5t68 -17.5q91 0 152 90z" />
    <glyph glyph-name="uni0434.bg" horiz-adv-x="663" 
d="M481 443l10 77h107v-422q0 -76 -24.5 -131.5t-69 -86.5t-99 -45.5t-121.5 -14.5q-142 0 -236 74l45 89q39 -33 90.5 -52t99.5 -19q87 0 136 38t49 113v50q-21 -45 -71 -70t-112 -25q-49 0 -91.5 12.5t-80.5 40t-60 78.5t-22 121q0 69 21.5 120.5t59 81t81 43.5t92.5 14
q67 0 119 -23.5t77 -62.5zM318 118q71 0 113 42t42 113q0 70 -42 112t-114 42t-114.5 -42t-42.5 -112q0 -71 42.5 -113t115.5 -42z" />
    <glyph glyph-name="uni0436.bg" horiz-adv-x="873" 
d="M663 264l199 -264h-143l-146 209h-75v-209h-123v209h-74l-146 -209h-144l199 264l-191 256h136l150 -208h70v460h123v-460h71l149 208h137z" />
    <glyph glyph-name="uni0437.bg" horiz-adv-x="535" 
d="M346 181q148 -27 148 -163q0 -68 -40 -113.5t-98 -63t-131 -17.5q-150 0 -248 91l59 85q88 -82 186 -82q64 0 102.5 30t38.5 81q0 104 -149 104h-116v88h109q70 0 109 30.5t39 79.5q0 48 -35.5 76t-95.5 28q-87 0 -164 -68l-55 88q101 74 233 74q112 0 175.5 -48
t63.5 -134q0 -62 -34 -104.5t-97 -61.5z" />
    <glyph glyph-name="uni0438.bg" horiz-adv-x="619" 
d="M416 251v269h126v-520h-111l-8 83q-53 -92 -166 -92q-188 0 -188 198v331h126v-310q0 -52 23.5 -83.5t75.5 -31.5q62 0 92 46q30 47 30 110z" />
    <glyph glyph-name="uni0439.bg" horiz-adv-x="584" 
d="M153 685h277v-72h-277v72zM403 251v269h126v-520h-111l-8 83q-53 -92 -166 -92q-189 0 -189 198v331h127v-310q0 -52 23.5 -83.5t75.5 -31.5q62 0 92 46q30 47 30 110z" />
    <glyph glyph-name="uni045D.bg" horiz-adv-x="619" 
d="M306 765l70 -168h-93l-95 168h118zM416 251v269h126v-520h-111l-8 83q-53 -92 -166 -92q-188 0 -188 198v331h126v-310q0 -52 23.5 -83.5t75.5 -31.5q62 0 92 46q30 47 30 110z" />
    <glyph glyph-name="uni043A.bg" horiz-adv-x="573" 
d="M363 264l199 -264h-145l-146 209h-74v-209h-122v759h122v-447h71l149 208h137z" />
    <glyph glyph-name="uni043B.bg" horiz-adv-x="567" 
d="M366 520l191 -520h-134l-141 415l-141 -415h-130l191 520h164z" />
    <glyph glyph-name="uni043F.bg" horiz-adv-x="613" 
d="M356 529q98 0 147.5 -49.5t49.5 -141.5v-338h-126v303q0 121 -109 121q-66 0 -95 -42q-28 -40 -28 -97v-285h-127v520h112l5 -74q56 83 171 83z" />
    <glyph glyph-name="uni0442.bg" horiz-adv-x="904" 
d="M653 529q90 0 140.5 -50t50.5 -152v-327h-127v319q0 105 -94 105q-50 0 -76.5 -32t-26.5 -85v-307h-127v323q0 46 -25 73.5t-69 27.5q-50 0 -77 -32t-27 -85v-307h-127v520h110l4 -66q50 75 150 75q110 0 153 -90q47 90 168 90z" />
    <glyph glyph-name="uni0446.bg" horiz-adv-x="637" 
d="M529 520v-434h82v-206h-101l-7 120h-85l-8 87q-55 -96 -169 -96q-186 0 -186 198v331h127v-310q0 -115 96 -115q62 0 94 48q31 49 31 117v260h126z" />
    <glyph glyph-name="uni0448.bg" horiz-adv-x="876" 
d="M694 262v258h127v-520h-110l-6 102q-48 -111 -160 -111q-51 0 -89.5 29t-55.5 86q-45 -115 -172 -115q-173 0 -173 202v327h127v-326q0 -49 22.5 -77t64.5 -28q57 0 81 52q25 51 25 121v258h126v-324q0 -49 23 -78t64 -29q52 0 79 46.5t27 126.5z" />
    <glyph glyph-name="uni0449.bg" horiz-adv-x="949" 
d="M923 -120h-103l-5 120h-84l-6 103q-46 -112 -160 -112q-52 0 -90 29t-55 87q-44 -116 -172 -116q-173 0 -173 202v327h127v-326q0 -105 86 -105q57 0 81 52q25 51 25 121v258h127v-324q0 -49 23 -78t64 -29q52 0 79 46.5t27 126.5v258h127v-434h82v-206z" />
    <glyph glyph-name="uni045F.bg" horiz-adv-x="605" 
d="M416 251v269h126v-520h-111l-8 83q-46 -82 -140 -91l3 -128h-98l5 134q-124 28 -124 191v331h126v-310q0 -52 23.5 -83.5t75.5 -31.5q62 0 92 46q30 47 30 110z" />
    <glyph glyph-name="uni044C.bg" horiz-adv-x="606" 
d="M357 408q92 0 153 -52q62 -51 62 -154t-67.5 -157t-186.5 -54q-116 0 -186 57q-70 58 -70 183v289h127v-187q54 75 168 75zM316 71q60 0 94 34t34 95q0 62 -33.5 95.5t-93.5 33.5q-61 0 -95.5 -34t-34.5 -96q0 -60 34.5 -94t94.5 -34z" />
    <glyph glyph-name="uni044A.bg" horiz-adv-x="704" 
d="M456 408q90 0 152 -51t62 -153q0 -104 -67 -158.5t-186 -54.5t-187 59.5t-68 180.5v199h-152v90h279v-187q54 75 167 75zM415 71q58 0 92.5 34.5t34.5 94.5t-34 94.5t-92 34.5q-60 0 -94.5 -34.5t-34.5 -95.5q0 -59 35 -93.5t93 -34.5z" />
    <glyph glyph-name="uni044B.bg" horiz-adv-x="851" 
d="M357 408q92 0 153 -52q62 -51 62 -154t-67.5 -157t-186.5 -54q-116 0 -186 57q-70 58 -70 183v289h127v-187q54 75 168 75zM655 0v520h126v-520h-126zM316 71q60 0 94 34t34 95q0 62 -33.5 95.5t-93.5 33.5q-61 0 -95.5 -34t-34.5 -96q0 -60 34.5 -94t94.5 -34z" />
    <glyph glyph-name="uni0459.bg" horiz-adv-x="923" 
d="M663 409q95 0 159 -52q66 -53 66 -155q0 -103 -67 -157t-186 -54q-193 0 -246 159l-96 271l-145 -421h-130l191 520h164l89 -238q21 60 73 93.5t128 33.5zM761 200q0 62 -33.5 95.5t-93.5 33.5q-62 0 -96 -34t-34 -96t35 -95t94 -33t93.5 34.5t34.5 94.5z" />
    <glyph glyph-name="uni045A.bg" horiz-adv-x="953" 
d="M704 408q92 0 153 -52q62 -51 62 -154t-67 -157t-186 -54q-116 0 -184 56.5t-72 170.5h-215v-218h-127v520h127v-211h215v211h126v-187q54 75 168 75zM792 200q0 62 -33.5 95.5t-93.5 33.5q-62 0 -96 -34t-34 -96t35 -95q34 -33 94 -33t94 34.5t34 94.5z" />
    <glyph glyph-name="uni044E.bg" horiz-adv-x="867" 
d="M555 -9q-113 0 -189 61q-77 62 -89 166h-83v-218h-126v772h126v-469h83q12 105 88 165q76 61 190 61q125 0 202 -73q79 -72 79 -196t-79 -197q-79 -72 -202 -72zM403 259q0 -75 41.5 -119.5t110.5 -44.5t111 44.5t42 119.5t-42 120.5t-111 45.5t-110.5 -45.5
t-41.5 -120.5z" />
    <glyph glyph-name="zero.tnum" horiz-adv-x="660" 
d="M615 351q0 -169 -76 -266q-77 -96 -209 -96t-209 96q-76 95 -76 265t76 265q77 96 209 96t209 -96q76 -95 76 -264zM182 351q0 -258 148 -258t148 257t-148 257t-148 -256z" />
    <glyph glyph-name="one.tnum" horiz-adv-x="660" 
d="M587 0h-498v97h188v480l-175 -43l-4 105l282 66h29v-608h178v-97z" />
    <glyph glyph-name="two.tnum" horiz-adv-x="660" 
d="M394 187l-89 -88l283 5v-104h-514v21l239 249q69 72 97 117q28 43 28 94q0 61 -34.5 94.5t-95.5 33.5q-75 0 -167 -92l-74 86q101 108 247 108q125 0 193.5 -58.5t68.5 -167.5q0 -86 -55 -159q-29 -39 -54 -66t-73 -73z" />
    <glyph glyph-name="three.tnum" horiz-adv-x="660" 
d="M576 682l-189 -264q99 -10 155 -63t56 -138q0 -111 -81 -169q-80 -57 -206 -57q-153 0 -253 102l68 89q83 -89 184 -89q69 0 110.5 33t41.5 93q0 120 -175 120h-66v21l169 236h-294v104h480v-18z" />
    <glyph glyph-name="four.tnum" horiz-adv-x="660" 
d="M513 445v-206h113v-95h-113v-144h-126v144h-355v19l234 537h132l-201 -461h190l1 206h125z" />
    <glyph glyph-name="five.tnum" horiz-adv-x="660" 
d="M347 439q118 0 185 -56.5t67 -158.5q0 -108 -74.5 -171t-205.5 -63q-159 0 -254 91l59 90q92 -84 181 -84q73 0 116 33.5t43 97.5q0 124 -173 124q-75 0 -165 -18l-14 7v369h451v-102h-338v-169q60 10 122 10z" />
    <glyph glyph-name="six.tnum" horiz-adv-x="660" 
d="M379 453q105 0 169 -58q65 -57 65 -164q0 -114 -75 -177t-198 -63q-170 0 -243 130q-52 91 -52 219q0 170 93 276q83 95 230 95q138 0 234 -69l-52 -93q-83 64 -169 64q-109 0 -163 -77q-41 -57 -45 -145q0 -37 1 -47q63 109 205 109zM334 88q65 0 104 37.5t39 100.5
q0 61 -37.5 98t-102.5 37q-68 0 -108 -39.5t-40 -98.5q0 -29 10 -53q15 -39 51 -60.5t84 -21.5z" />
    <glyph glyph-name="seven.tnum" horiz-adv-x="660" 
d="M69 596v104h525v-23l-336 -677h-142l303 596h-350z" />
    <glyph glyph-name="eight.tnum" horiz-adv-x="660" 
d="M468 371q144 -43 144 -181q0 -98 -75 -149.5t-205 -51.5q-127 0 -206 50q-78 51 -78 152q0 137 144 180q-52 18 -83.5 58.5t-31.5 97.5q0 87 68.5 135.5t184.5 48.5t184.5 -49t68.5 -135q0 -57 -31.5 -97t-83.5 -59zM208 516q0 -46 32 -74t90 -28t90 28t32 74
q0 49 -32.5 76t-89.5 27t-89.5 -27t-32.5 -76zM225 112q38 -31 105 -31t104 31q39 32 39 89t-38 89t-105 32t-105 -32t-38 -89t38 -89z" />
    <glyph glyph-name="nine.tnum" horiz-adv-x="660" 
d="M311 712q144 0 218 -96q74 -95 74 -254q0 -170 -81 -270q-81 -101 -230 -101q-138 0 -242 72l54 93q83 -65 178 -65q90 0 138.5 59.5t53.5 162.5v38q-56 -101 -202 -101q-101 0 -166 57q-64 58 -64 165q0 114 74 177q75 63 195 63zM314 342q66 0 105.5 39.5t39.5 99.5
t-40 97.5t-103 37.5q-64 0 -102 -38t-38 -101q0 -61 37.5 -98t100.5 -37z" />
    <glyph glyph-name="zero.zero" horiz-adv-x="678" 
d="M632 351q0 -168 -79 -265t-214 -97t-214 96q-79 97 -79 265q0 169 79 264q79 97 214 97t214 -97q79 -95 79 -263zM205 221l241 332q-39 54 -107 54q-77 0 -116.5 -66.5t-39.5 -189.5q0 -74 22 -130zM339 93q76 0 115.5 66.5t39.5 190.5q0 66 -18 113l-237 -326
q38 -44 100 -44z" />
    <glyph glyph-name="zero.dnom" 
d="M17 215q0 107 47.5 165t134.5 58t134.5 -57.5t47.5 -165.5t-47.5 -165.5t-134.5 -57.5q-88 0 -135 57t-47 166zM199 68q83 0 83 147t-83 147q-82 0 -82 -147t82 -147z" />
    <glyph glyph-name="one.dnom" 
d="M346 0h-276v70h99v294l-100 -12l-2 68l175 19h15v-369h89v-70z" />
    <glyph glyph-name="two.dnom" 
d="M242 110l-34 -35l160 3v-78h-335v15l150 153q44 44 59.5 68.5t15.5 53.5q0 33 -21 52t-56 19q-48 0 -105 -57l-50 62q69 72 169 72q77 0 120 -38.5t43 -105.5q0 -36 -19 -70q-20 -36 -36 -53z" />
    <glyph glyph-name="three.dnom" 
d="M355 419l-112 -162q125 -15 125 -123q0 -67 -51 -104.5t-132 -37.5q-108 0 -168 62l48 63q67 -55 118 -55q37 0 60.5 19t23.5 52q0 68 -104 68h-41v17l99 141h-176v72h310v-12z" />
    <glyph glyph-name="four.dnom" 
d="M316 271v-117h68v-69h-68v-85h-85v85h-220v13l170 334h90l-143 -278h103v90l14 27h71z" />
    <glyph glyph-name="five.dnom" 
d="M212 272q73 0 114.5 -36t41.5 -99q0 -67 -47.5 -106t-128.5 -39q-105 0 -162 59l43 65q58 -55 114 -55q35 0 58.5 19.5t23.5 54.5q0 72 -99 72q-46 0 -95 -11l-11 5v230h280v-72h-198v-94q29 7 66 7z" />
    <glyph glyph-name="six.dnom" 
d="M228 280q64 0 105 -37t41 -101q0 -69 -47 -109.5t-121 -40.5q-90 0 -136 60q-46 59 -46 153q0 101 54 166q56 66 147 66q77 0 139 -44l-30 -64q-49 37 -104 37q-50 0 -80.5 -35t-33.5 -87q-1 -5 -1 -21q37 57 113 57zM201 62q34 0 55 21t21 54q0 34 -20 54.5t-55 20.5
q-36 0 -57.5 -21.5t-21.5 -54.5q0 -32 22.5 -53t55.5 -21z" />
    <glyph glyph-name="seven.dnom" 
d="M38 359v72h336v-15l-222 -416h-105l199 359h-208z" />
    <glyph glyph-name="eight.dnom" 
d="M287 228q84 -30 84 -111q0 -60 -46.5 -92.5t-125.5 -32.5t-126 32.5t-47 93.5q0 82 85 109q-69 27 -69 96q0 54 43.5 84.5t113.5 30.5t113.5 -31t43.5 -84q0 -68 -69 -95zM133 315q0 -25 18 -40.5t48 -15.5t48 15.5t18 40.5q4 36 -31 51t-70 0t-31 -51zM199 56
q35 0 56.5 18t21.5 50q0 35 -22 51q-21 18 -56 18t-57 -18q-21 -18 -21 -51q0 -32 21 -50t57 -18z" />
    <glyph glyph-name="nine.dnom" 
d="M191 437q87 0 134.5 -58t47.5 -156q0 -103 -55 -167q-54 -64 -146 -64q-75 0 -143 44l33 68q50 -41 105 -41q50 0 80 34t34 89q0 5 0.5 11t1 9.5t0.5 4.5q-36 -62 -116 -62q-62 0 -102.5 37t-40.5 101q0 69 46 109.5t121 40.5zM195 217q35 0 57 21.5t22 55.5
q0 31 -22.5 52t-56.5 21t-54.5 -21t-20.5 -54t20 -54t55 -21z" />
    <glyph glyph-name="zero.numr" 
d="M17 488q0 107 47.5 165t134.5 58q88 0 134 -58q48 -57 48 -166t-48 -166q-47 -57 -134 -57q-88 0 -135 57.5t-47 166.5zM199 340q83 0 83 148q0 147 -83 147q-82 0 -82 -148q0 -147 82 -147z" />
    <glyph glyph-name="one.numr" 
d="M346 264h-276v70h99v294l-100 -12l-2 69l175 19h15v-370h89v-70z" />
    <glyph glyph-name="two.numr" 
d="M242 380l-35 -35l161 3v-78h-335v15l150 153q43 44 59 69t16 54q0 33 -20.5 51.5t-56.5 18.5q-49 0 -105 -56l-50 61q69 72 169 72q77 0 120 -38t43 -106q0 -36 -19 -70q-20 -36 -36 -53q-3 -3 -13 -13.5t-22.5 -22.5t-25.5 -25z" />
    <glyph glyph-name="three.numr" 
d="M355 688l-113 -162q126 -15 126 -123q0 -68 -52 -105t-131 -37q-106 0 -168 62l48 64q67 -55 118 -55q37 0 60.5 19t23.5 52q0 26 -20 43q-27 25 -84 25h-41v16l98 141h-175v73h310v-13z" />
    <glyph glyph-name="four.numr" 
d="M316 545v-118h68v-68h-68v-86h-85v86h-220v12l170 334h90l-143 -278h103v91l14 27h71z" />
    <glyph glyph-name="five.numr" 
d="M212 545q73 0 114.5 -36.5t41.5 -98.5q0 -68 -47.5 -107t-128.5 -39q-104 0 -162 60l43 65q59 -56 114 -56q35 0 58.5 19.5t23.5 54.5q0 72 -99 72q-45 0 -95 -10l-11 4v230h280v-72h-198v-93q29 7 66 7z" />
    <glyph glyph-name="six.numr" 
d="M228 553q64 0 105 -37t41 -101q0 -69 -47 -109.5t-121 -40.5q-90 0 -136 60q-46 59 -46 153q0 102 54 166q56 66 147 66q77 0 139 -44l-30 -64q-49 37 -104 37q-50 0 -80.5 -35t-33.5 -87q-1 -5 -1 -21q37 57 113 57zM201 335q34 0 55 21t21 54q0 34 -20 54.5t-55 20.5
q-36 0 -57.5 -22t-21.5 -55q0 -31 22.5 -52t55.5 -21z" />
    <glyph glyph-name="seven.numr" 
d="M38 631v72h336v-15l-222 -416h-105l199 359h-208z" />
    <glyph glyph-name="eight.numr" 
d="M287 500q84 -30 84 -110q0 -61 -46.5 -93t-125.5 -32t-126 32.5t-47 93.5q0 81 85 109q-69 27 -69 96q0 54 43.5 84.5t113.5 30.5t113.5 -31t43.5 -84q0 -69 -69 -96zM133 588q0 -25 18 -40.5t48 -15.5q31 0 48.5 15t17.5 41q4 36 -31 51t-70 0t-31 -51zM199 329
q35 0 56.5 18t21.5 50q0 35 -22 51q-21 18 -56 18t-57 -18q-21 -18 -21 -51q0 -32 21 -50t57 -18z" />
    <glyph glyph-name="nine.numr" 
d="M191 710q89 0 135 -60q47 -61 47 -154q0 -103 -55 -167q-54 -64 -146 -64q-75 0 -143 44l33 67q49 -40 105 -40q50 0 80 34t34 89q0 4 0.5 8.5t1 7t0.5 5v3.5q-36 -61 -116 -61q-63 0 -103 36.5t-40 100.5q0 69 46 110t121 41zM195 490q35 0 57 21.5t22 54.5
q0 32 -22.5 53t-56.5 21q-33 0 -54 -21t-21 -54t20 -54t55 -21z" />
    <glyph glyph-name="exclamdown.case" horiz-adv-x="297" 
d="M93 695q23 22 55 22t54 -22q23 -22 23 -54t-23 -54q-22 -22 -54 -22t-55 22q-22 22 -22 54t22 54zM95 495h104l21 -495h-145z" />
    <glyph glyph-name="questiondown.case" horiz-adv-x="479" 
d="M214 696q23 23 55 23t54 -23q23 -22 23 -54t-23 -54q-22 -22 -54 -22t-55 22q-22 22 -22 54t22 54zM219 496h111q8 -26 8 -62q0 -42 -17.5 -74.5t-43 -52t-51 -37.5t-43 -42.5t-17.5 -55.5q0 -41 26.5 -63t68.5 -22q75 0 134 90l81 -74q-86 -113 -225 -113q-91 0 -152 43
q-60 43 -60 132q0 87 65 136q9 7 31.5 22.5t34 24.5t26.5 24.5t21.5 32.5t7.5 38q0 29 -6 53z" />
    <glyph glyph-name="period.tnum" horiz-adv-x="660" 
d="M329 -11q-36 0 -57.5 20.5t-21.5 54.5q0 33 21.5 54t57.5 21q38 0 60 -20.5t22 -54.5t-22 -54.5t-60 -20.5z" />
    <glyph glyph-name="parenleft.case" horiz-adv-x="350" 
d="M339 -101h-128q-161 193 -161 450q0 259 161 452h128q-34 -43 -55 -76q-22 -35 -51 -93q-61 -120 -61 -283q0 -159 61 -283q30 -59 52 -91q20 -31 54 -76z" />
    <glyph glyph-name="parenright.case" horiz-adv-x="350" 
d="M140 -101h-128q34 45 54 76q23 34 51 91q62 122 62 283q0 164 -62 283q-29 58 -51 93q-20 31 -54 76h128q52 -61 101 -164q59 -125 59 -288q0 -260 -160 -450z" />
    <glyph glyph-name="braceleft.case" horiz-adv-x="381" 
d="M230 651v-190q0 -94 -80 -111q80 -17 80 -111v-190q0 -34 14.5 -50t48.5 -16h52v-84h-80q-94 0 -124 48q-26 40 -26 108v191q0 65 -57 65h-21v78h21q57 0 57 65v191q0 68 26 108q30 48 124 48h80v-84h-52q-34 0 -48.5 -16t-14.5 -50z" />
    <glyph glyph-name="braceright.case" horiz-adv-x="381" 
d="M323 389h21v-78h-21q-57 0 -57 -65v-191q0 -75 -31 -115q-30 -41 -118 -41h-81v84h52q34 0 48.5 16t14.5 50v190q0 94 80 111q-80 17 -80 111v190q0 34 -14.5 50t-48.5 16h-52v84h81q88 0 118 -41q31 -40 31 -115v-191q0 -65 57 -65z" />
    <glyph glyph-name="bracketleft.case" horiz-adv-x="353" 
d="M315 -101h-229v902h229v-84h-110v-734h110v-84z" />
    <glyph glyph-name="bracketright.case" horiz-adv-x="353" 
d="M267 -101h-229v84h110v734h-110v84h229v-902z" />
    <glyph glyph-name="hyphen.case" horiz-adv-x="498" 
d="M429 308h-360v95h360v-95z" />
    <glyph glyph-name="endash.case" horiz-adv-x="624" 
d="M554 309l-485 -1v95h485v-94z" />
    <glyph glyph-name="emdash.case" horiz-adv-x="918" 
d="M849 308h-780v95h780v-95z" />
    <glyph glyph-name="guillemotleft.case" horiz-adv-x="535" 
d="M38 346l122 174h105l-118 -174l118 -174h-105zM391 520h105l-118 -174l118 -174h-105l-121 174z" />
    <glyph glyph-name="guillemotright.case" horiz-adv-x="535" 
d="M156 346l-118 174h106l121 -174l-121 -174h-106zM270 520h105l121 -174l-121 -174h-105l118 174z" />
    <glyph glyph-name="guilsinglleft.case" horiz-adv-x="302" 
d="M160 520h104l-118 -174l118 -174h-104l-122 174z" />
    <glyph glyph-name="guilsinglright.case" horiz-adv-x="302" 
d="M39 520h104l121 -174l-122 -174h-103l117 174z" />
    <glyph glyph-name="cent.tnum" horiz-adv-x="660" 
d="M523 242l74 -79q-89 -85 -203 -91l1 -81h-71l1 82q-114 13 -181 84.5t-67 182.5q0 112 66 182q68 72 182 84l-1 84h71l-1 -83q119 -7 201 -89l-73 -85q-64 72 -150 72q-74 0 -119 -45.5t-45 -119.5q0 -76 46 -121.5t120 -45.5q88 0 149 69z" />
    <glyph glyph-name="dollar.tnum" horiz-adv-x="660" 
d="M594 195q0 -90 -58.5 -140.5t-160.5 -59.5v-98h-72v97q-146 11 -242 127l81 81q85 -112 195 -112q56 0 88 25t32 70q0 27 -15 49q-8 13 -40 32q-11 7 -56 21l-34 9l-32 10q-98 28 -145 75t-47 129q0 96 60 144q59 49 155 55v92h72v-93q125 -10 210 -90l-71 -95
q-72 87 -176 87q-53 0 -83.5 -24.5t-30.5 -69.5q0 -46 33 -69t111 -45q39 -11 56 -18q24 -7 51 -19q34 -14 49 -27q75 -53 70 -143z" />
    <glyph glyph-name="Euro.tnum" horiz-adv-x="660" 
d="M458 602q-158 0 -196 -159h265l-22 -62h-252q-1 -7 -1 -34q0 -24 1 -31h226l-21 -61h-197q37 -157 193 -157q38 0 71 10q4 1 17.5 6t14.5 5q14 9 36 14l1 -115q-70 -29 -163 -29q-124 0 -207.5 70t-106.5 196h-89l21 61h61q-2 30 0 65h-77l21 62h63q24 127 110 198
q85 70 210 70q113 0 193 -45l-22 -113q-76 49 -150 49z" />
    <glyph glyph-name="uni20BD.tnum" horiz-adv-x="660" 
d="M270 0h-132l-1 133h-88v78h89v65h-88v78h88v346h231q106 0 177 -59q70 -58 70 -162q0 -102 -70 -157q-68 -55 -177 -55h-99l-1 -56h253v-78h-253zM269 603l1 -249h89q56 0 90.5 33.5t34.5 91.5t-34 91t-91 33h-90z" />
    <glyph glyph-name="sterling.tnum" horiz-adv-x="660" 
d="M323 245q0 -104 -87 -146h344v-99h-502v92q114 33 114 137q0 27 -9 63h-115v83h87q-22 63 -22 114q0 98 68 160q70 62 179 62q130 0 225 -107l-79 -77q-64 84 -135 84q-60 0 -93.5 -33.5t-33.5 -90.5q0 -43 27 -112h228v-83h-201q5 -28 5 -47z" />
    <glyph glyph-name="yen.tnum" horiz-adv-x="660" 
d="M498 700h129l-217 -397h143v-62h-158v-67h158v-59h-159v-115h-130v115h-158v59h159v67h-159v62h143l-216 397h134l165 -315z" />
    <glyph glyph-name="arrowup.alt" horiz-adv-x="864" 
d="M449 -18q-157 0 -264 101q-106 100 -106 266q0 167 106 269q107 102 264 102q156 0 261 -102q106 -102 106 -269q0 -166 -106 -266q-106 -101 -261 -101zM410 446l-1 -313h79l-1 314l162 -162l50 51l-250 250l-250 -250l50 -50z" />
    <glyph glyph-name="uni2197.alt" horiz-adv-x="864" 
d="M449 -18q-157 0 -264 101q-106 100 -106 266q0 167 106 269q107 102 264 102q156 0 261 -102q106 -102 106 -269q0 -166 -106 -266q-106 -101 -261 -101zM543 392l1 -229h70v354h-353v-72h228l-224 -221l56 -55z" />
    <glyph glyph-name="arrowright.alt" horiz-adv-x="866" 
d="M447 -18q-167 0 -267 106q-101 107 -101 262q0 156 101 263t267 107q167 0 269 -107t102 -263t-102 -262q-102 -104 -269 -106zM383 149l51 -48l249 249l-249 249l-51 -50l161 -160l-314 1v-79l315 1z" />
    <glyph glyph-name="uni2198.alt" horiz-adv-x="865" 
d="M448 -18q-162 0 -266 104q-103 103 -103 264t103 265q104 105 266 105t266 -105q103 -104 103 -265t-103 -264q-101 -102 -266 -104zM261 255v-70l353 -1v352l-71 1v-227l-222 223l-55 -56l223 -221z" />
    <glyph glyph-name="arrowdown.alt" horiz-adv-x="864" 
d="M447 -18q-156 0 -261 102q-104 102 -106 269q0 165 105 266q107 101 262 101q156 0 263 -101t107 -266q0 -167 -107 -269q-106 -102 -263 -102zM198 366l249 -249l250 248l-50 51l-161 -161l1 314h-79l1 -314l-162 161z" />
    <glyph glyph-name="uni2199.alt" horiz-adv-x="865" 
d="M448 720q156 0 263 -102q106 -100 106 -266t-107 -268q-106 -102 -262 -102t-262 102t-106 268q0 167 106 267q107 101 262 101zM282 538v-352h351l1 70h-227l223 222l-56 55l-221 -223l-1 228h-70z" />
    <glyph glyph-name="arrowleft.alt" horiz-adv-x="867" 
d="M451 -18q-167 0 -269 106t-102 264q0 156 102 262t269 106t267 -106q101 -107 101 -262q0 -157 -101 -264q-100 -106 -267 -106zM215 352l249 -250l51 50l-161 161h314v78l-314 -1l162 162l-51 50z" />
    <glyph glyph-name="uni2196.alt" horiz-adv-x="866" 
d="M450 -18q-163 0 -267 104q-103 104 -103 265t103 264q103 105 267 105q163 0 265 -105q103 -103 103 -264t-103 -265q-102 -104 -265 -104zM283 517v-353h71v227l221 -223l56 57l-223 221h229v71h-354z" />
    <glyph glyph-name="gravecomb.case" horiz-adv-x="0" 
d="M-338 773h-94l-91 130h116z" />
    <glyph glyph-name="acute.case" horiz-adv-x="355" 
d="M191 589h-93l74 130h118z" />
    <glyph glyph-name="breve.case" horiz-adv-x="471" 
d="M234 591q-155 0 -164 131h74q8 -72 90 -72q84 0 91 72h74q-9 -131 -165 -131z" />
    <glyph glyph-name="caron.case" horiz-adv-x="524" 
d="M263 626l85 89h108l-128 -130h-131l-128 130h109z" />
    <glyph glyph-name="circumflex.case" horiz-adv-x="524" 
d="M279 730l158 -137h-104l-77 74l-81 -74h-104l158 137h50z" />
    <glyph glyph-name="dieresis.case" horiz-adv-x="544" 
d="M84 678q0 32 21.5 52.5t53.5 20.5q31 0 52.5 -20.5t21.5 -52.5q0 -31 -21.5 -52t-53.5 -21t-53 21t-21 52zM311 678q0 32 21.5 52.5t53.5 20.5t53 -20.5t21 -52.5q0 -31 -21 -52t-53 -21t-53.5 21t-21.5 52z" />
    <glyph glyph-name="dotaccent.case" horiz-adv-x="305" 
d="M82 677q0 31 22 52.5t54 21.5q30 0 52 -21.5t22 -52.5q0 -30 -22 -51t-53 -21t-53 21t-22 51z" />
    <glyph glyph-name="grave.case" horiz-adv-x="360" 
d="M268 589h-93l-91 130h115z" />
    <glyph glyph-name="hungarumlaut.case" horiz-adv-x="550" 
d="M188 589h-93l77 129h119zM364 589h-93l77 129h118z" />
    <glyph glyph-name="Agravecy" horiz-adv-x="780" 
d="M377 899l69 -130h-93l-91 130h115zM756 0h-142l-63 163h-329l-63 -163h-135l280 704h172zM386 591l-124 -322h249l-124 322h-1z" />
    <glyph glyph-name="Hardsigngravecy" horiz-adv-x="800" 
d="M551 769h-93l-91 130h115zM493 0h-301v595h-194v105h330v-243h164q126 0 200 -61q76 -61 76 -165q0 -103 -78 -168q-76 -63 -197 -63zM328 357v-258h146q76 0 115.5 36t39.5 95t-39.5 93t-115.5 34h-146z" />
    <glyph glyph-name="Iagravecy" horiz-adv-x="711" 
d="M396 899l69 -130h-93l-91 130h115zM319 700h308v-700h-135v229h-154l-139 -229h-143l156 245q-78 24 -122.5 84t-44.5 135q0 97 73 166q73 70 201 70zM333 334h159v261h-159q-66 0 -106 -37t-40 -94q0 -56 40.5 -93t105.5 -37z" />
    <glyph glyph-name="Iugravecy" horiz-adv-x="1094" 
d="M739 769h-93l-91 130h115zM684 -11q-151 0 -248 82q-96 82 -113 221h-107v-292h-132v700h132v-302h105q15 142 112 227q98 86 251 86q166 0 265 -100q100 -100 100 -262t-99 -261t-266 -99zM522 163q61 -67 162 -67t161 67q61 67 61 186q0 120 -61 187q-60 68 -161 68
q-100 0 -162 -68q-61 -67 -61 -187q0 -119 61 -186z" />
    <glyph glyph-name="Ogravecy" horiz-adv-x="860" 
d="M487 769h-93l-91 130h115zM51 349q0 159 104 260q103 102 275 102t275 -102q104 -101 104 -260q0 -158 -104 -259t-275 -101q-172 0 -276 101q-103 100 -103 259zM430 106q106 0 174 66q67 67 67 177t-67 177q-68 68 -174 68q-105 0 -173 -68q-67 -67 -67 -177t67 -177
q67 -66 173 -66z" />
    <glyph glyph-name="Ugravecy" horiz-adv-x="684" 
d="M339 899l69 -130h-93l-91 130h115zM379 311l164 389h131l-306 -700h-140l83 180l-275 520h143z" />
    <glyph glyph-name="agravecy" horiz-adv-x="654" 
d="M320 765l70 -168h-93l-95 168h118zM476 437l6 83h117v-520h-116l-9 89q-56 -98 -190 -98q-116 0 -185 74q-68 74 -68 191q0 119 72 196t190 77q130 0 183 -92zM319 96q65 0 110 45q46 45 46 118q0 75 -45 120t-111 45q-69 0 -112.5 -44.5t-43.5 -120.5q0 -74 43.5 -118.5
t112.5 -44.5z" />
    <glyph glyph-name="hardsigngravecy" horiz-adv-x="704" 
d="M407 765l70 -168h-93l-95 168h118zM456 408q90 0 152 -51t62 -153q0 -104 -67 -158.5t-186 -54.5t-187 59.5t-68 180.5v199h-152v90h279v-187q54 75 167 75zM415 71q58 0 92.5 34.5t34.5 94.5t-34 94.5t-92 34.5q-60 0 -94.5 -34.5t-34.5 -95.5q0 -59 35 -93.5t93 -34.5z
" />
    <glyph glyph-name="iagravecy" horiz-adv-x="588" 
d="M313 765l70 -168h-93l-95 168h118zM254 520h272v-520h-126v167h-106l-118 -167h-143l134 180q-59 19 -91.5 62t-32.5 102q0 79 57.5 127.5t153.5 48.5zM280 249h120v189h-119q-49 0 -78.5 -25.5t-29.5 -68.5t29.5 -69t77.5 -26z" />
    <glyph glyph-name="iugravecy" horiz-adv-x="867" 
d="M555 -9q-113 0 -189 61q-77 62 -89 166h-83v-218h-126v772h126v-469h83q12 105 88 165q76 61 190 61q125 0 202 -73q79 -72 79 -196t-79 -197q-79 -72 -202 -72zM602 597h-93l-95 168h118zM403 259q0 -75 41.5 -119.5t110.5 -44.5t111 44.5t42 119.5t-42 120.5t-111 45.5
t-110.5 -45.5t-41.5 -120.5z" />
    <glyph glyph-name="ogravecy" horiz-adv-x="635" 
d="M378 597h-93l-95 168h118zM31 259q0 123 79 196q80 74 208 74q127 0 207 -74q79 -73 79 -196q0 -122 -79 -195t-207 -73q-129 0 -208 73t-79 195zM161 259q0 -74 43.5 -118.5t113.5 -44.5t114 44.5t44 118.5t-44 119.5t-114 45.5t-113.5 -45t-43.5 -120z" />
    <glyph glyph-name="ugravecy" horiz-adv-x="571" 
d="M268 765l70 -168h-93l-95 168h118zM359 314l76 206h124l-270 -690h-127l65 162l-215 528h135l80 -206q37 -93 67 -184h3z" />
    </font>
</defs>
</svg>
